<?xml version="1.0" encoding="UTF-8" standalone="no"?>
<!-- Created with Inkscape (http://www.inkscape.org/) -->

<svg
   xmlns:ns1="http://www.iki.fi/pav/software/textext/"
   xmlns:dc="http://purl.org/dc/elements/1.1/"
   xmlns:cc="http://creativecommons.org/ns#"
   xmlns:rdf="http://www.w3.org/1999/02/22-rdf-syntax-ns#"
   xmlns:svg="http://www.w3.org/2000/svg"
   xmlns="http://www.w3.org/2000/svg"
   xmlns:sodipodi="http://sodipodi.sourceforge.net/DTD/sodipodi-0.dtd"
   xmlns:inkscape="http://www.inkscape.org/namespaces/inkscape"
   width="210mm"
   height="297mm"
   viewBox="0 0 210 297"
   version="1.1"
   id="svg8"
   inkscape:version="0.92.4 (5da689c313, 2019-01-14)"
   sodipodi:docname="drawing-1.svg">
  <defs
     id="defs2" />
  <sodipodi:namedview
     id="base"
     pagecolor="#ffffff"
     bordercolor="#666666"
     borderopacity="1.0"
     inkscape:pageopacity="0.0"
     inkscape:pageshadow="2"
     inkscape:zoom="1.979899"
     inkscape:cx="95.204319"
     inkscape:cy="747.88664"
     inkscape:document-units="mm"
     inkscape:current-layer="g820"
     showgrid="false"
     inkscape:window-width="2498"
     inkscape:window-height="1417"
     inkscape:window-x="1974"
     inkscape:window-y="-8"
     inkscape:window-maximized="1" />
  <metadata
     id="metadata5">
    <rdf:RDF>
      <cc:Work
         rdf:about="">
        <dc:format>image/svg+xml</dc:format>
        <dc:type
           rdf:resource="http://purl.org/dc/dcmitype/StillImage" />
        <dc:title></dc:title>
      </cc:Work>
    </rdf:RDF>
  </metadata>
  <g
     inkscape:label="Layer 1"
     inkscape:groupmode="layer"
     id="layer1">
    <g
       id="g823"
       ns1:jacobian_sqrt="0.352778"
       ns1:alignment="middle center"
       ns1:scale="1.0"
       ns1:preamble="C:\\Users\\Alessandro\\AppData\\Roaming\\inkscape\\extensions\\textext\\default_packages.tex"
       ns1:text="$\\mu$"
       ns1:pdfconverter="pdf2svg"
       ns1:texconverter="pdflatex"
       ns1:version="0.11.0"
       transform="matrix(0.352778,0,0,0.352778,-3.9122657,77.701397)">
      <g
         id="g846">
        <g
           style="fill:#000000;fill-opacity:1"
           id="g820">
          <g
             id="g843"
             ns1:jacobian_sqrt="0.352778"
             ns1:alignment="middle center"
             ns1:scale="1.0"
             ns1:preamble="C:\\Users\\Alessandro\\AppData\\Roaming\\inkscape\\extensions\\textext\\default_packages.tex"
             ns1:text="$\\mu \\rm m$\n"
             ns1:pdfconverter="pdf2svg"
             ns1:texconverter="pdflatex"
             ns1:version="0.11.0"
             transform="matrix(4.3194573,0,0,4.3194573,-384.64591,-444.58018)">
            <g
               id="surface1">
              <g
                 id="g836"
                 style="fill:#000000;fill-opacity:1">
                <path
                   id="path834"
                   transform="translate(148.712,134.765)"
                   d="m 2.296875,-3.5 c 0.0625,-0.203125 0.15625,-0.59375 0.15625,-0.640625 0,-0.171875 -0.125,-0.265625 -0.296875,-0.265625 -0.015625,0 -0.296875,0.015625 -0.390625,0.359375 l -1.4375,5.765625 c -0.03125,0.125 -0.03125,0.140625 -0.03125,0.171875 0,0.140625 0.109375,0.265625 0.28125,0.265625 0.203125,0 0.328125,-0.1875 0.34375,-0.21875 C 0.96875,1.859375 1.09375,1.328125 1.46875,-0.203125 1.796875,0.0625 2.25,0.109375 2.4375,0.109375 c 0.703125,0 1.09375,-0.453125 1.328125,-0.734375 0.09375,0.453125 0.46875,0.734375 0.90625,0.734375 0.34375,0 0.578125,-0.234375 0.734375,-0.546875 0.171875,-0.359375 0.296875,-0.96875 0.296875,-0.984375 0,-0.109375 -0.09375,-0.109375 -0.125,-0.109375 -0.09375,0 -0.109375,0.046875 -0.140625,0.1875 -0.15625,0.640625 -0.34375,1.234375 -0.75,1.234375 -0.265625,0 -0.296875,-0.265625 -0.296875,-0.453125 0,-0.21875 0.109375,-0.6875 0.1875,-1.046875 L 4.859375,-2.6875 C 4.890625,-2.828125 5,-3.203125 5.03125,-3.359375 5.078125,-3.59375 5.1875,-3.96875 5.1875,-4.03125 c 0,-0.171875 -0.140625,-0.265625 -0.296875,-0.265625 -0.046875,0 -0.3125,0.015625 -0.390625,0.34375 l -0.46875,1.875 c -0.109375,0.5 -0.21875,0.90625 -0.25,1.015625 -0.015625,0.046875 -0.484375,0.953125 -1.296875,0.953125 -0.5,0 -0.734375,-0.328125 -0.734375,-0.875 0,-0.28125 0.0625,-0.5625 0.140625,-0.84375 z m 0,0"
                   style="stroke:none;stroke-width:0"
                   inkscape:connector-curvature="0" />
              </g>
              <g
                 id="g840"
                 style="fill:#000000;fill-opacity:1">
                <path
                   id="path838"
                   transform="translate(154.715,134.765)"
                   d="M 1.09375,-3.421875 V -0.75 c 0,0.4375 -0.109375,0.4375 -0.78125,0.4375 V 0 c 0.359375,-0.015625 0.859375,-0.03125 1.140625,-0.03125 0.25,0 0.765625,0.015625 1.109375,0.03125 v -0.3125 c -0.671875,0 -0.78125,0 -0.78125,-0.4375 V -2.59375 C 1.78125,-3.625 2.5,-4.1875 3.125,-4.1875 c 0.640625,0 0.75,0.53125 0.75,1.109375 V -0.75 c 0,0.4375 -0.109375,0.4375 -0.78125,0.4375 V 0 c 0.34375,-0.015625 0.859375,-0.03125 1.125,-0.03125 0.25,0 0.78125,0.015625 1.109375,0.03125 v -0.3125 c -0.65625,0 -0.765625,0 -0.765625,-0.4375 v -1.84375 c 0,-1.03125 0.703125,-1.59375 1.34375,-1.59375 0.625,0 0.734375,0.53125 0.734375,1.109375 V -0.75 c 0,0.4375 -0.109375,0.4375 -0.78125,0.4375 V 0 c 0.34375,-0.015625 0.859375,-0.03125 1.125,-0.03125 0.265625,0 0.78125,0.015625 1.125,0.03125 v -0.3125 c -0.515625,0 -0.765625,0 -0.78125,-0.296875 v -1.90625 c 0,-0.859375 0,-1.15625 -0.3125,-1.515625 -0.140625,-0.171875 -0.46875,-0.375 -1.046875,-0.375 -0.828125,0 -1.28125,0.59375 -1.4375,0.984375 C 4.390625,-4.296875 3.65625,-4.40625 3.203125,-4.40625 2.46875,-4.40625 2,-3.984375 1.71875,-3.359375 V -4.40625 L 0.3125,-4.296875 v 0.3125 c 0.703125,0 0.78125,0.0625 0.78125,0.5625 z m 0,0"
                   style="stroke:none;stroke-width:0"
                   inkscape:connector-curvature="0" />
              </g>
            </g>
          </g>
          <text
             xml:space="preserve"
             style="font-style:normal;font-weight:normal;font-size:143.99990845px;line-height:1.25;font-family:sans-serif;letter-spacing:0px;word-spacing:0px;fill:#000000;fill-opacity:1;stroke:none;stroke-width:0.74999952"
             x="62.986435"
             y="-40.521152"
             id="text887"><tspan
               sodipodi:role="line"
               id="tspan885"
               x="62.986435"
               y="-40.521152"
               style="font-style:normal;font-variant:normal;font-weight:normal;font-stretch:normal;font-family:'Monotype Corsiva';-inkscape-font-specification:'Monotype Corsiva';stroke-width:0.74999952">a</tspan></text>
          <g
             id="g926"
             ns1:jacobian_sqrt="6.191714"
             ns1:alignment="middle center"
             ns1:scale="17.5513030858"
             ns1:preamble="C:\\Users\\Alessandro\\AppData\\Roaming\\inkscape\\extensions\\textext\\default_packages.tex"
             ns1:text="\\bf a\n\\fontsize{9pt}{1em} $\\sum_{ij} w_{ij}$"
             ns1:pdfconverter="pdf2svg"
             ns1:texconverter="pdflatex"
             ns1:version="0.11.0"
             transform="matrix(6.191714,0,0,6.191714,-835.56578,-773.30455)">
            <g
               id="g924">
              <g
                 id="g902"
                 style="fill:#000000;fill-opacity:1">
                <path
                   id="path900"
                   transform="translate(148.712,134.765)"
                   d="m 3.734375,-0.765625 c 0,0.3125 0,0.765625 1.03125,0.765625 H 5.25 C 5.4375,0 5.5625,0 5.5625,-0.234375 5.5625,-0.46875 5.4375,-0.46875 5.296875,-0.46875 4.6875,-0.484375 4.6875,-0.609375 4.6875,-0.84375 v -2.140625 c 0,-0.890625 -0.703125,-1.53125 -2.1875,-1.53125 -0.5625,0 -1.78125,0.046875 -1.78125,0.921875 0,0.4375 0.34375,0.625 0.609375,0.625 0.3125,0 0.640625,-0.21875 0.640625,-0.625 0,-0.296875 -0.1875,-0.46875 -0.21875,-0.5 0.28125,-0.046875 0.59375,-0.0625 0.71875,-0.0625 0.734375,0 1.09375,0.421875 1.09375,1.171875 v 0.34375 c -0.71875,0.03125 -3.25,0.125 -3.25,1.5625 0,0.953125 1.25,1.140625 1.9375,1.140625 0.796875,0 1.265625,-0.40625 1.484375,-0.828125 z M 3.5625,-2.328125 v 0.9375 c 0,0.96875 -0.921875,1.09375 -1.171875,1.09375 -0.5,0 -0.90625,-0.34375 -0.90625,-0.796875 0,-1.0625 1.578125,-1.203125 2.078125,-1.234375 z m 0,0"
                   style="stroke:none;stroke-width:0"
                   inkscape:connector-curvature="0" />
              </g>
              <g
                 id="g906"
                 style="fill:#000000;fill-opacity:1">
                <path
                   id="path904"
                   transform="translate(161.92,128.04)"
                   d="m 4.5,4.640625 c 0.09375,-0.109375 0.09375,-0.125 0.09375,-0.15625 0,-0.015625 0,-0.046875 -0.078125,-0.140625 L 1.546875,0.390625 h 3.625 c 0.671875,0 1.34375,0.03125 2,0.203125 C 8,0.84375 8.6875,1.375 8.953125,2.125 H 9.21875 L 8.421875,0 h -7.65625 c -0.25,0 -0.25,0.015625 -0.25,0.3125 L 3.875,4.796875 0.59375,8.703125 c -0.078125,0.09375 -0.078125,0.125 -0.078125,0.15625 0,0.109375 0.09375,0.109375 0.25,0.109375 h 7.65625 L 9.21875,6.703125 H 8.953125 C 8.703125,7.421875 8.078125,7.96875 7.25,8.21875 7.125,8.25 6.484375,8.453125 5.21875,8.453125 H 1.3125 Z m 0,0"
                   style="stroke:none;stroke-width:0"
                   inkscape:connector-curvature="0" />
              </g>
              <g
                 id="g912"
                 style="fill:#000000;fill-opacity:1">
                <path
                   id="path908"
                   transform="translate(171.647,137.504)"
                   d="M 2.078125,-3.734375 C 2.078125,-3.875 1.96875,-3.96875 1.84375,-3.96875 1.671875,-3.96875 1.5,-3.8125 1.5,-3.640625 1.5,-3.5 1.609375,-3.40625 1.734375,-3.40625 c 0.203125,0 0.34375,-0.171875 0.34375,-0.328125 z M 1.71875,-1.640625 C 1.75,-1.703125 1.796875,-1.84375 1.828125,-1.90625 1.84375,-1.953125 1.859375,-2.015625 1.859375,-2.125 c 0,-0.328125 -0.296875,-0.515625 -0.59375,-0.515625 -0.609375,0 -0.90625,0.796875 -0.90625,0.921875 0,0.03125 0.03125,0.078125 0.109375,0.078125 0.09375,0 0.109375,-0.03125 0.125,-0.078125 C 0.765625,-2.296875 1.078125,-2.4375 1.25,-2.4375 c 0.109375,0 0.15625,0.078125 0.15625,0.21875 0,0.109375 -0.03125,0.203125 -0.046875,0.25 l -0.3125,0.765625 c -0.078125,0.171875 -0.078125,0.1875 -0.15625,0.390625 -0.078125,0.171875 -0.09375,0.25 -0.09375,0.359375 0,0.296875 0.265625,0.515625 0.59375,0.515625 0.609375,0 0.90625,-0.796875 0.90625,-0.921875 0,-0.015625 0,-0.09375 -0.109375,-0.09375 -0.09375,0 -0.09375,0.03125 -0.125,0.15625 C 1.96875,-0.5 1.71875,-0.140625 1.40625,-0.140625 1.296875,-0.140625 1.25,-0.203125 1.25,-0.359375 1.25,-0.46875 1.28125,-0.5625 1.359375,-0.75 Z m 0,0"
                   style="stroke:none;stroke-width:0"
                   inkscape:connector-curvature="0" />
                <path
                   id="path910"
                   transform="translate(174.31062,137.504)"
                   d="m 2.78125,-3.734375 c 0,-0.171875 -0.140625,-0.234375 -0.25,-0.234375 -0.1875,0 -0.328125,0.1875 -0.328125,0.328125 0,0.125 0.09375,0.234375 0.234375,0.234375 0.15625,0 0.34375,-0.140625 0.34375,-0.328125 z m -1.28125,4 c -0.109375,0.453125 -0.46875,0.75 -0.8125,0.75 C 0.671875,1.015625 0.5,1.015625 0.5,1 0.5,0.984375 0.515625,0.96875 0.515625,0.96875 0.609375,0.890625 0.65625,0.796875 0.65625,0.71875 c 0,-0.203125 -0.15625,-0.234375 -0.25,-0.234375 -0.15625,0 -0.328125,0.125 -0.328125,0.34375 0,0.328125 0.375,0.390625 0.609375,0.390625 C 1.09375,1.21875 1.8125,1 2,0.28125 l 0.53125,-2.140625 c 0.015625,-0.0625 0.03125,-0.125 0.03125,-0.203125 0,-0.34375 -0.296875,-0.578125 -0.6875,-0.578125 -0.671875,0 -1.09375,0.8125 -1.09375,0.921875 0,0.03125 0.03125,0.078125 0.109375,0.078125 0.078125,0 0.09375,-0.015625 0.125,-0.09375 C 1.203125,-2.125 1.53125,-2.4375 1.859375,-2.4375 c 0.1875,0 0.21875,0.140625 0.21875,0.296875 0,0.078125 0,0.15625 -0.015625,0.171875 z m 0,0"
                   style="stroke:none;stroke-width:0"
                   inkscape:connector-curvature="0" />
              </g>
              <g
                 id="g916"
                 style="fill:#000000;fill-opacity:1">
                <path
                   id="path914"
                   transform="translate(179.749,134.765)"
                   d="m 4.28125,-3.0625 c 0.046875,-0.1875 0.125,-0.5 0.125,-0.546875 0,-0.109375 -0.078125,-0.25 -0.28125,-0.25 -0.109375,0 -0.28125,0.0625 -0.34375,0.234375 -0.015625,0.0625 -0.453125,1.78125 -0.5,2.015625 C 3.21875,-1.390625 3.1875,-1.25 3.1875,-1.03125 3.21875,-0.8125 3.078125,-0.609375 2.953125,-0.4375 2.75,-0.1875 2.5625,-0.125 2.375,-0.125 c -0.328125,0 -0.75,-0.140625 -0.75,-0.8125 0,-0.46875 0.234375,-1.09375 0.515625,-1.828125 C 2.1875,-2.890625 2.25,-3.046875 2.25,-3.203125 2.25,-3.65625 1.921875,-3.96875 1.484375,-3.96875 c -0.859375,0 -1.21875,1.28125 -1.21875,1.390625 0,0.078125 0.0625,0.109375 0.125,0.109375 0.09375,0 0.109375,-0.0625 0.140625,-0.171875 0.1875,-0.65625 0.546875,-1.09375 0.921875,-1.09375 0.171875,0 0.21875,0.109375 0.21875,0.296875 0,0.140625 -0.046875,0.3125 -0.125,0.515625 -0.4375,1.15625 -0.53125,1.484375 -0.53125,1.859375 0,1.03125 0.875,1.15625 1.328125,1.15625 0.34375,0 0.671875,-0.140625 0.9375,-0.609375 0.265625,0.53125 0.828125,0.609375 1.171875,0.609375 0.625,0 1.015625,-0.46875 1.3125,-1.046875 0.25,-0.53125 0.59375,-1.8125 0.59375,-2.359375 0,-0.625 -0.328125,-0.65625 -0.40625,-0.65625 -0.234375,0 -0.46875,0.234375 -0.46875,0.4375 0,0.140625 0.078125,0.21875 0.140625,0.265625 0.25,0.21875 0.328125,0.515625 0.328125,0.75 0,0.265625 -0.21875,1.09375 -0.484375,1.609375 -0.203125,0.390625 -0.515625,0.78125 -1,0.78125 -0.671875,0 -0.671875,-0.625 -0.671875,-0.796875 0,-0.234375 0.046875,-0.421875 0.125,-0.734375 z m 0,0"
                   style="stroke:none;stroke-width:0"
                   inkscape:connector-curvature="0" />
              </g>
              <g
                 id="g922"
                 style="fill:#000000;fill-opacity:1">
                <path
                   id="path918"
                   transform="translate(186.354,135.761)"
                   d="M 2.078125,-3.734375 C 2.078125,-3.875 1.96875,-3.96875 1.84375,-3.96875 1.671875,-3.96875 1.5,-3.8125 1.5,-3.640625 1.5,-3.5 1.609375,-3.40625 1.734375,-3.40625 c 0.203125,0 0.34375,-0.171875 0.34375,-0.328125 z M 1.71875,-1.640625 C 1.75,-1.703125 1.796875,-1.84375 1.828125,-1.90625 1.84375,-1.953125 1.859375,-2.015625 1.859375,-2.125 c 0,-0.328125 -0.296875,-0.515625 -0.59375,-0.515625 -0.609375,0 -0.90625,0.796875 -0.90625,0.921875 0,0.03125 0.03125,0.078125 0.109375,0.078125 0.09375,0 0.109375,-0.03125 0.125,-0.078125 C 0.765625,-2.296875 1.078125,-2.4375 1.25,-2.4375 c 0.109375,0 0.15625,0.078125 0.15625,0.21875 0,0.109375 -0.03125,0.203125 -0.046875,0.25 l -0.3125,0.765625 c -0.078125,0.171875 -0.078125,0.1875 -0.15625,0.390625 -0.078125,0.171875 -0.09375,0.25 -0.09375,0.359375 0,0.296875 0.265625,0.515625 0.59375,0.515625 0.609375,0 0.90625,-0.796875 0.90625,-0.921875 0,-0.015625 0,-0.09375 -0.109375,-0.09375 -0.09375,0 -0.09375,0.03125 -0.125,0.15625 C 1.96875,-0.5 1.71875,-0.140625 1.40625,-0.140625 1.296875,-0.140625 1.25,-0.203125 1.25,-0.359375 1.25,-0.46875 1.28125,-0.5625 1.359375,-0.75 Z m 0,0"
                   style="stroke:none;stroke-width:0"
                   inkscape:connector-curvature="0" />
                <path
                   id="path920"
                   transform="translate(189.01762,135.761)"
                   d="m 2.78125,-3.734375 c 0,-0.171875 -0.140625,-0.234375 -0.25,-0.234375 -0.1875,0 -0.328125,0.1875 -0.328125,0.328125 0,0.125 0.09375,0.234375 0.234375,0.234375 0.15625,0 0.34375,-0.140625 0.34375,-0.328125 z m -1.28125,4 c -0.109375,0.453125 -0.46875,0.75 -0.8125,0.75 C 0.671875,1.015625 0.5,1.015625 0.5,1 0.5,0.984375 0.515625,0.96875 0.515625,0.96875 0.609375,0.890625 0.65625,0.796875 0.65625,0.71875 c 0,-0.203125 -0.15625,-0.234375 -0.25,-0.234375 -0.15625,0 -0.328125,0.125 -0.328125,0.34375 0,0.328125 0.375,0.390625 0.609375,0.390625 C 1.09375,1.21875 1.8125,1 2,0.28125 l 0.53125,-2.140625 c 0.015625,-0.0625 0.03125,-0.125 0.03125,-0.203125 0,-0.34375 -0.296875,-0.578125 -0.6875,-0.578125 -0.671875,0 -1.09375,0.8125 -1.09375,0.921875 0,0.03125 0.03125,0.078125 0.109375,0.078125 0.078125,0 0.09375,-0.015625 0.125,-0.09375 C 1.203125,-2.125 1.53125,-2.4375 1.859375,-2.4375 c 0.1875,0 0.21875,0.140625 0.21875,0.296875 0,0.078125 0,0.15625 -0.015625,0.171875 z m 0,0"
                   style="stroke:none;stroke-width:0"
                   inkscape:connector-curvature="0" />
              </g>
            </g>
          </g>
          <g
             id="g1231"
             ns1:jacobian_sqrt="6.19171"
             ns1:alignment="middle center"
             ns1:scale="17.5513030858"
             ns1:preamble="C:\\Users\\Alessandro\\AppData\\Roaming\\inkscape\\extensions\\textext\\default_packages.tex"
             ns1:text="\\begin{center}\n\\fontsize{10pt}{1em} \\bf artiglieria\n\n\\bf pesante\n\\end{center}"
             ns1:pdfconverter="pdf2svg"
             ns1:texconverter="pdflatex"
             ns1:version="0.11.0"
             transform="matrix(6.19171,0,0,6.19171,-1704.896,-650.94853)">
            <g
               id="g1229">
              <g
                 id="g1207"
                 style="fill:#000000;fill-opacity:1">
                <path
                   id="path1185"
                   transform="translate(281.254,134.765)"
                   d="m 3.734375,-0.765625 c 0,0.3125 0,0.765625 1.03125,0.765625 H 5.25 C 5.4375,0 5.5625,0 5.5625,-0.234375 5.5625,-0.46875 5.4375,-0.46875 5.296875,-0.46875 4.6875,-0.484375 4.6875,-0.609375 4.6875,-0.84375 v -2.140625 c 0,-0.890625 -0.703125,-1.53125 -2.1875,-1.53125 -0.5625,0 -1.78125,0.046875 -1.78125,0.921875 0,0.4375 0.34375,0.625 0.609375,0.625 0.3125,0 0.640625,-0.21875 0.640625,-0.625 0,-0.296875 -0.1875,-0.46875 -0.21875,-0.5 0.28125,-0.046875 0.59375,-0.0625 0.71875,-0.0625 0.734375,0 1.09375,0.421875 1.09375,1.171875 v 0.34375 c -0.71875,0.03125 -3.25,0.125 -3.25,1.5625 0,0.953125 1.25,1.140625 1.9375,1.140625 0.796875,0 1.265625,-0.40625 1.484375,-0.828125 z M 3.5625,-2.328125 v 0.9375 c 0,0.96875 -0.921875,1.09375 -1.171875,1.09375 -0.5,0 -0.90625,-0.34375 -0.90625,-0.796875 0,-1.0625 1.578125,-1.203125 2.078125,-1.234375 z m 0,0"
                   style="stroke:none;stroke-width:0"
                   inkscape:connector-curvature="0" />
                <path
                   id="path1187"
                   transform="translate(286.82309,134.765)"
                   d="m 2.03125,-3.359375 v -1.125 L 0.375,-4.40625 v 0.46875 c 0.609375,0 0.6875,0 0.6875,0.390625 V -0.46875 H 0.375 V 0 c 0.34375,-0.015625 0.796875,-0.03125 1.25,-0.03125 0.375,0 1.015625,0 1.375,0.03125 V -0.46875 H 2.140625 v -1.75 c 0,-0.6875 0.234375,-1.90625 1.234375,-1.90625 0,0.015625 -0.1875,0.171875 -0.1875,0.453125 0,0.40625 0.328125,0.609375 0.609375,0.609375 0.296875,0 0.609375,-0.203125 0.609375,-0.609375 0,-0.53125 -0.53125,-0.8125 -1.0625,-0.8125 -0.6875,0 -1.09375,0.5 -1.3125,1.125 z m 0,0"
                   style="stroke:none;stroke-width:0"
                   inkscape:connector-curvature="0" />
                <path
                   id="path1189"
                   transform="translate(291.54138,134.765)"
                   d="m 1.03125,-3.953125 v 2.734375 c 0,1.0625 0.859375,1.28125 1.578125,1.28125 0.75,0 1.203125,-0.578125 1.203125,-1.296875 v -0.53125 H 3.34375 V -1.25 c 0,0.671875 -0.328125,0.90625 -0.609375,0.90625 -0.578125,0 -0.578125,-0.640625 -0.578125,-0.859375 v -2.75 H 3.625 v -0.46875 H 2.15625 v -1.90625 H 1.6875 c 0,1 -0.484375,1.984375 -1.484375,2.015625 v 0.359375 z m 0,0"
                   style="stroke:none;stroke-width:0"
                   inkscape:connector-curvature="0" />
                <path
                   id="path1191"
                   transform="translate(295.99665,134.765)"
                   d="M 2.234375,-4.484375 0.5,-4.40625 v 0.46875 c 0.59375,0 0.65625,0 0.65625,0.390625 V -0.46875 H 0.46875 V 0 C 0.78125,-0.015625 1.265625,-0.03125 1.6875,-0.03125 1.984375,-0.03125 2.5,-0.015625 2.84375,0 V -0.46875 H 2.234375 Z m 0.09375,-1.671875 c 0,-0.4375 -0.359375,-0.765625 -0.765625,-0.765625 -0.4375,0 -0.78125,0.34375 -0.78125,0.765625 0,0.4375 0.34375,0.78125 0.78125,0.78125 0.40625,0 0.765625,-0.34375 0.765625,-0.78125 z m 0,0"
                   style="stroke:none;stroke-width:0"
                   inkscape:connector-curvature="0" />
                <path
                   id="path1193"
                   transform="translate(299.17871,134.765)"
                   d="m 2.546875,-1.890625 c -0.875,0 -0.875,-0.671875 -0.875,-1.125 0,-0.4375 0,-1.109375 0.875,-1.109375 0.875,0 0.875,0.671875 0.875,1.109375 0,0.453125 0,1.125 -0.875,1.125 z m -1.21875,0.09375 c 0.453125,0.234375 0.96875,0.265625 1.21875,0.265625 1.4375,0 1.984375,-0.78125 1.984375,-1.484375 0,-0.46875 -0.25,-0.796875 -0.40625,-0.953125 0.296875,-0.15625 0.515625,-0.171875 0.625,-0.1875 -0.03125,0.046875 -0.046875,0.140625 -0.046875,0.203125 0,0.25 0.171875,0.421875 0.4375,0.421875 0.25,0 0.421875,-0.1875 0.421875,-0.421875 0,-0.234375 -0.171875,-0.578125 -0.625,-0.578125 -0.15625,0 -0.625,0.03125 -1.0625,0.375 -0.171875,-0.125 -0.59375,-0.328125 -1.328125,-0.328125 -1.4375,0 -1.984375,0.78125 -1.984375,1.46875 0,0.40625 0.1875,0.828125 0.515625,1.046875 -0.28125,0.359375 -0.34375,0.6875 -0.34375,0.890625 0,0.15625 0.046875,0.640625 0.4375,0.953125 C 1.046875,-0.09375 0.3125,0.125 0.3125,0.75 0.3125,1.25 0.875,2 2.859375,2 4.625,2 5.40625,1.421875 5.40625,0.71875 c 0,-0.296875 -0.078125,-0.921875 -0.75,-1.265625 -0.5625,-0.28125 -1.15625,-0.28125 -2.109375,-0.28125 -0.265625,0 -0.71875,0 -0.765625,-0.015625 -0.453125,-0.0625 -0.5625,-0.4375 -0.5625,-0.625 0,-0.09375 0.046875,-0.25 0.109375,-0.328125 z M 1.9375,0.125 h 1.171875 c 0.3125,0 1.4375,0 1.4375,0.625 0,0.359375 -0.390625,0.890625 -1.6875,0.890625 -1.1875,0 -1.6875,-0.453125 -1.6875,-0.90625 C 1.171875,0.125 1.796875,0.125 1.9375,0.125 Z m 0,0"
                   style="stroke:none;stroke-width:0"
                   inkscape:connector-curvature="0" />
                <path
                   id="path1195"
                   transform="translate(304.9072,134.765)"
                   d="M 2.234375,-6.921875 0.46875,-6.84375 V -6.375 c 0.625,0 0.6875,0 0.6875,0.390625 V -0.46875 H 0.46875 V 0 c 0.3125,-0.015625 0.796875,-0.03125 1.21875,-0.03125 0.4375,0 0.890625,0.015625 1.234375,0.03125 v -0.46875 h -0.6875 z m 0,0"
                   style="stroke:none;stroke-width:0"
                   inkscape:connector-curvature="0" />
                <path
                   id="path1197"
                   transform="translate(308.08926,134.765)"
                   d="M 2.234375,-4.484375 0.5,-4.40625 v 0.46875 c 0.59375,0 0.65625,0 0.65625,0.390625 V -0.46875 H 0.46875 V 0 C 0.78125,-0.015625 1.265625,-0.03125 1.6875,-0.03125 1.984375,-0.03125 2.5,-0.015625 2.84375,0 V -0.46875 H 2.234375 Z m 0.09375,-1.671875 c 0,-0.4375 -0.359375,-0.765625 -0.765625,-0.765625 -0.4375,0 -0.78125,0.34375 -0.78125,0.765625 0,0.4375 0.34375,0.78125 0.78125,0.78125 0.40625,0 0.765625,-0.34375 0.765625,-0.78125 z m 0,0"
                   style="stroke:none;stroke-width:0"
                   inkscape:connector-curvature="0" />
                <path
                   id="path1199"
                   transform="translate(311.27131,134.765)"
                   d="m 4.609375,-2.171875 c 0.21875,0 0.3125,0 0.3125,-0.265625 0,-0.3125 -0.0625,-1.046875 -0.5625,-1.546875 C 4,-4.34375 3.46875,-4.515625 2.78125,-4.515625 c -1.59375,0 -2.46875,1.03125 -2.46875,2.265625 0,1.34375 1,2.3125 2.609375,2.3125 1.578125,0 2,-1.0625 2,-1.234375 0,-0.171875 -0.1875,-0.171875 -0.234375,-0.171875 -0.171875,0 -0.1875,0.046875 -0.25,0.203125 -0.203125,0.484375 -0.78125,0.796875 -1.421875,0.796875 -1.40625,0 -1.421875,-1.328125 -1.421875,-1.828125 z M 1.59375,-2.5 C 1.609375,-2.890625 1.625,-3.3125 1.828125,-3.640625 2.09375,-4.03125 2.5,-4.15625 2.78125,-4.15625 c 1.171875,0 1.1875,1.3125 1.203125,1.65625 z m 0,0"
                   style="stroke:none;stroke-width:0"
                   inkscape:connector-curvature="0" />
                <path
                   id="path1201"
                   transform="translate(316.5226,134.765)"
                   d="m 2.03125,-3.359375 v -1.125 L 0.375,-4.40625 v 0.46875 c 0.609375,0 0.6875,0 0.6875,0.390625 V -0.46875 H 0.375 V 0 c 0.34375,-0.015625 0.796875,-0.03125 1.25,-0.03125 0.375,0 1.015625,0 1.375,0.03125 V -0.46875 H 2.140625 v -1.75 c 0,-0.6875 0.234375,-1.90625 1.234375,-1.90625 0,0.015625 -0.1875,0.171875 -0.1875,0.453125 0,0.40625 0.328125,0.609375 0.609375,0.609375 0.296875,0 0.609375,-0.203125 0.609375,-0.609375 0,-0.53125 -0.53125,-0.8125 -1.0625,-0.8125 -0.6875,0 -1.09375,0.5 -1.3125,1.125 z m 0,0"
                   style="stroke:none;stroke-width:0"
                   inkscape:connector-curvature="0" />
                <path
                   id="path1203"
                   transform="translate(321.24089,134.765)"
                   d="M 2.234375,-4.484375 0.5,-4.40625 v 0.46875 c 0.59375,0 0.65625,0 0.65625,0.390625 V -0.46875 H 0.46875 V 0 C 0.78125,-0.015625 1.265625,-0.03125 1.6875,-0.03125 1.984375,-0.03125 2.5,-0.015625 2.84375,0 V -0.46875 H 2.234375 Z m 0.09375,-1.671875 c 0,-0.4375 -0.359375,-0.765625 -0.765625,-0.765625 -0.4375,0 -0.78125,0.34375 -0.78125,0.765625 0,0.4375 0.34375,0.78125 0.78125,0.78125 0.40625,0 0.765625,-0.34375 0.765625,-0.78125 z m 0,0"
                   style="stroke:none;stroke-width:0"
                   inkscape:connector-curvature="0" />
                <path
                   id="path1205"
                   transform="translate(324.42294,134.765)"
                   d="m 3.734375,-0.765625 c 0,0.3125 0,0.765625 1.03125,0.765625 H 5.25 C 5.4375,0 5.5625,0 5.5625,-0.234375 5.5625,-0.46875 5.4375,-0.46875 5.296875,-0.46875 4.6875,-0.484375 4.6875,-0.609375 4.6875,-0.84375 v -2.140625 c 0,-0.890625 -0.703125,-1.53125 -2.1875,-1.53125 -0.5625,0 -1.78125,0.046875 -1.78125,0.921875 0,0.4375 0.34375,0.625 0.609375,0.625 0.3125,0 0.640625,-0.21875 0.640625,-0.625 0,-0.296875 -0.1875,-0.46875 -0.21875,-0.5 0.28125,-0.046875 0.59375,-0.0625 0.71875,-0.0625 0.734375,0 1.09375,0.421875 1.09375,1.171875 v 0.34375 c -0.71875,0.03125 -3.25,0.125 -3.25,1.5625 0,0.953125 1.25,1.140625 1.9375,1.140625 0.796875,0 1.265625,-0.40625 1.484375,-0.828125 z M 3.5625,-2.328125 v 0.9375 c 0,0.96875 -0.921875,1.09375 -1.171875,1.09375 -0.5,0 -0.90625,-0.34375 -0.90625,-0.796875 0,-1.0625 1.578125,-1.203125 2.078125,-1.234375 z m 0,0"
                   style="stroke:none;stroke-width:0"
                   inkscape:connector-curvature="0" />
              </g>
              <g
                 id="g1211"
                 style="fill:#000000;fill-opacity:1">
                <path
                   id="path1209"
                   transform="translate(286.736,144.727)"
                   d="m 2.1875,-3.28125 c 0,-0.1875 0.015625,-0.203125 0.15625,-0.34375 0.390625,-0.40625 0.921875,-0.46875 1.140625,-0.46875 0.65625,0 1.21875,0.609375 1.21875,1.875 0,1.40625 -0.703125,1.921875 -1.34375,1.921875 -0.140625,0 -0.609375,0 -1.0625,-0.546875 C 2.1875,-0.96875 2.1875,-0.984375 2.1875,-1.171875 Z m 0,2.890625 c 0.4375,0.34375 0.875,0.453125 1.28125,0.453125 1.5,0 2.515625,-0.90625 2.515625,-2.28125 0,-1.328125 -0.90625,-2.265625 -2.34375,-2.265625 -0.75,0 -1.28125,0.3125 -1.5,0.484375 V -4.484375 L 0.375,-4.40625 v 0.46875 c 0.609375,0 0.6875,0 0.6875,0.375 V 1.46875 H 0.375 V 1.9375 C 0.640625,1.921875 1.25,1.90625 1.625,1.90625 c 0.390625,0 0.984375,0.015625 1.25,0.03125 V 1.46875 H 2.1875 Z m 0,0"
                   style="stroke:none;stroke-width:0"
                   inkscape:connector-curvature="0" />
              </g>
              <g
                 id="g1221"
                 style="fill:#000000;fill-opacity:1">
                <path
                   id="path1213"
                   transform="translate(293.41991,144.727)"
                   d="m 4.609375,-2.171875 c 0.21875,0 0.3125,0 0.3125,-0.265625 0,-0.3125 -0.0625,-1.046875 -0.5625,-1.546875 C 4,-4.34375 3.46875,-4.515625 2.78125,-4.515625 c -1.59375,0 -2.46875,1.03125 -2.46875,2.265625 0,1.34375 1,2.3125 2.609375,2.3125 1.578125,0 2,-1.0625 2,-1.234375 0,-0.171875 -0.1875,-0.171875 -0.234375,-0.171875 -0.171875,0 -0.1875,0.046875 -0.25,0.203125 -0.203125,0.484375 -0.78125,0.796875 -1.421875,0.796875 -1.40625,0 -1.421875,-1.328125 -1.421875,-1.828125 z M 1.59375,-2.5 C 1.609375,-2.890625 1.625,-3.3125 1.828125,-3.640625 2.09375,-4.03125 2.5,-4.15625 2.78125,-4.15625 c 1.171875,0 1.1875,1.3125 1.203125,1.65625 z m 0,0"
                   style="stroke:none;stroke-width:0"
                   inkscape:connector-curvature="0" />
                <path
                   id="path1215"
                   transform="translate(298.67119,144.727)"
                   d="M 2.109375,-2.9375 C 1.734375,-3 1.09375,-3.109375 1.09375,-3.578125 c 0,-0.625 0.921875,-0.625 1.109375,-0.625 0.75,0 1.125,0.296875 1.171875,0.84375 0.015625,0.15625 0.03125,0.203125 0.234375,0.203125 0.234375,0 0.234375,-0.046875 0.234375,-0.28125 v -0.796875 c 0,-0.1875 0,-0.28125 -0.171875,-0.28125 -0.046875,0 -0.0625,0 -0.453125,0.1875 -0.265625,-0.125 -0.609375,-0.1875 -1,-0.1875 -0.3125,0 -1.84375,0 -1.84375,1.3125 0,0.390625 0.203125,0.65625 0.40625,0.828125 0.390625,0.34375 0.78125,0.40625 1.546875,0.546875 0.359375,0.0625 1.09375,0.1875 1.09375,0.78125 0,0.75 -0.90625,0.75 -1.125,0.75 -1.0625,0 -1.3125,-0.734375 -1.4375,-1.15625 C 0.8125,-1.59375 0.75,-1.59375 0.625,-1.59375 c -0.25,0 -0.25,0.0625 -0.25,0.28125 v 1.09375 c 0,0.1875 0,0.28125 0.1875,0.28125 0.0625,0 0.078125,0 0.296875,-0.15625 0.015625,0 0.234375,-0.140625 0.25,-0.171875 0.46875,0.328125 0.984375,0.328125 1.1875,0.328125 0.3125,0 1.84375,0 1.84375,-1.453125 0,-0.4375 -0.203125,-0.78125 -0.546875,-1.0625 C 3.203125,-2.734375 2.875,-2.796875 2.109375,-2.9375 Z m 0,0"
                   style="stroke:none;stroke-width:0"
                   inkscape:connector-curvature="0" />
                <path
                   id="path1217"
                   transform="translate(303.19023,144.727)"
                   d="m 3.734375,-0.765625 c 0,0.3125 0,0.765625 1.03125,0.765625 H 5.25 C 5.4375,0 5.5625,0 5.5625,-0.234375 5.5625,-0.46875 5.4375,-0.46875 5.296875,-0.46875 4.6875,-0.484375 4.6875,-0.609375 4.6875,-0.84375 v -2.140625 c 0,-0.890625 -0.703125,-1.53125 -2.1875,-1.53125 -0.5625,0 -1.78125,0.046875 -1.78125,0.921875 0,0.4375 0.34375,0.625 0.609375,0.625 0.3125,0 0.640625,-0.21875 0.640625,-0.625 0,-0.296875 -0.1875,-0.46875 -0.21875,-0.5 0.28125,-0.046875 0.59375,-0.0625 0.71875,-0.0625 0.734375,0 1.09375,0.421875 1.09375,1.171875 v 0.34375 c -0.71875,0.03125 -3.25,0.125 -3.25,1.5625 0,0.953125 1.25,1.140625 1.9375,1.140625 0.796875,0 1.265625,-0.40625 1.484375,-0.828125 z M 3.5625,-2.328125 v 0.9375 c 0,0.96875 -0.921875,1.09375 -1.171875,1.09375 -0.5,0 -0.90625,-0.34375 -0.90625,-0.796875 0,-1.0625 1.578125,-1.203125 2.078125,-1.234375 z m 0,0"
                   style="stroke:none;stroke-width:0"
                   inkscape:connector-curvature="0" />
                <path
                   id="path1219"
                   transform="translate(308.75932,144.727)"
                   d="m 1.140625,-3.546875 v 3.078125 h -0.6875 V 0 c 0.28125,-0.015625 0.875,-0.03125 1.25,-0.03125 0.390625,0 0.984375,0.015625 1.25,0.03125 v -0.46875 h -0.6875 v -2.078125 c 0,-1.09375 0.859375,-1.578125 1.5,-1.578125 0.328125,0 0.546875,0.203125 0.546875,0.96875 v 2.6875 H 3.625 V 0 c 0.265625,-0.015625 0.875,-0.03125 1.25,-0.03125 0.390625,0 0.984375,0.015625 1.25,0.03125 V -0.46875 H 5.4375 v -2.578125 c 0,-1.046875 -0.53125,-1.4375 -1.53125,-1.4375 -0.953125,0 -1.484375,0.5625 -1.75,1.078125 V -4.484375 L 0.453125,-4.40625 v 0.46875 c 0.609375,0 0.6875,0 0.6875,0.390625 z m 0,0"
                   style="stroke:none;stroke-width:0"
                   inkscape:connector-curvature="0" />
              </g>
              <g
                 id="g1227"
                 style="fill:#000000;fill-opacity:1">
                <path
                   id="path1223"
                   transform="translate(314.80563,144.727)"
                   d="m 1.03125,-3.953125 v 2.734375 c 0,1.0625 0.859375,1.28125 1.578125,1.28125 0.75,0 1.203125,-0.578125 1.203125,-1.296875 v -0.53125 H 3.34375 V -1.25 c 0,0.671875 -0.328125,0.90625 -0.609375,0.90625 -0.578125,0 -0.578125,-0.640625 -0.578125,-0.859375 v -2.75 H 3.625 v -0.46875 H 2.15625 v -1.90625 H 1.6875 c 0,1 -0.484375,1.984375 -1.484375,2.015625 v 0.359375 z m 0,0"
                   style="stroke:none;stroke-width:0"
                   inkscape:connector-curvature="0" />
                <path
                   id="path1225"
                   transform="translate(319.2609,144.727)"
                   d="m 4.609375,-2.171875 c 0.21875,0 0.3125,0 0.3125,-0.265625 0,-0.3125 -0.0625,-1.046875 -0.5625,-1.546875 C 4,-4.34375 3.46875,-4.515625 2.78125,-4.515625 c -1.59375,0 -2.46875,1.03125 -2.46875,2.265625 0,1.34375 1,2.3125 2.609375,2.3125 1.578125,0 2,-1.0625 2,-1.234375 0,-0.171875 -0.1875,-0.171875 -0.234375,-0.171875 -0.171875,0 -0.1875,0.046875 -0.25,0.203125 -0.203125,0.484375 -0.78125,0.796875 -1.421875,0.796875 -1.40625,0 -1.421875,-1.328125 -1.421875,-1.828125 z M 1.59375,-2.5 C 1.609375,-2.890625 1.625,-3.3125 1.828125,-3.640625 2.09375,-4.03125 2.5,-4.15625 2.78125,-4.15625 c 1.171875,0 1.1875,1.3125 1.203125,1.65625 z m 0,0"
                   style="stroke:none;stroke-width:0"
                   inkscape:connector-curvature="0" />
              </g>
            </g>
          </g>
        </g>
      </g>
    </g>
  </g>
</svg>
