<?xml version="1.0" encoding="UTF-8" standalone="no"?>
<!-- Created with Inkscape (http://www.inkscape.org/) -->

<svg
   xmlns:dc="http://purl.org/dc/elements/1.1/"
   xmlns:cc="http://creativecommons.org/ns#"
   xmlns:rdf="http://www.w3.org/1999/02/22-rdf-syntax-ns#"
   xmlns:svg="http://www.w3.org/2000/svg"
   xmlns="http://www.w3.org/2000/svg"
   xmlns:sodipodi="http://sodipodi.sourceforge.net/DTD/sodipodi-0.dtd"
   xmlns:inkscape="http://www.inkscape.org/namespaces/inkscape"
   width="71.100555mm"
   height="78.583183mm"
   viewBox="0 0 71.100555 78.583183"
   version="1.1"
   id="svg8"
   inkscape:version="0.92.4 (5da689c313, 2019-01-14)"
   sodipodi:docname="47.svg">
  <defs
     id="defs2" />
  <sodipodi:namedview
     id="base"
     pagecolor="#ffffff"
     bordercolor="#666666"
     borderopacity="1.0"
     inkscape:pageopacity="0.0"
     inkscape:pageshadow="2"
     inkscape:zoom="2.8"
     inkscape:cx="28.480179"
     inkscape:cy="126.80925"
     inkscape:document-units="mm"
     inkscape:current-layer="g825"
     showgrid="false"
     inkscape:window-width="2498"
     inkscape:window-height="1417"
     inkscape:window-x="1974"
     inkscape:window-y="-8"
     inkscape:window-maximized="1"
     fit-margin-top="0"
     fit-margin-left="0"
     fit-margin-right="0"
     fit-margin-bottom="0" />
  <metadata
     id="metadata5">
    <rdf:RDF>
      <cc:Work
         rdf:about="">
        <dc:format>image/svg+xml</dc:format>
        <dc:type
           rdf:resource="http://purl.org/dc/dcmitype/StillImage" />
        <dc:title></dc:title>
      </cc:Work>
    </rdf:RDF>
  </metadata>
  <g
     inkscape:label="Layer 1"
     inkscape:groupmode="layer"
     id="layer1"
     transform="translate(-77.284658,-94.584897)">
    <g
       transform="matrix(0.35277777,0,0,-0.35277777,49.294352,201.10808)"
       inkscape:label="ink_ext_XXXXXX"
       id="g823">
      <g
         transform="scale(0.1)"
         id="g825">
        <path
           inkscape:connector-curvature="0"
           id="path829"
           style="fill:none;stroke:#ff0000;stroke-width:14.17319965;stroke-linecap:square;stroke-linejoin:miter;stroke-miterlimit:3.25;stroke-dasharray:none;stroke-opacity:1"
           d="m 800.797,1112.41 4.547,0.04 9.051,0.1 18.125,0.22 1.117,0.02 h 1.113 l 2.219,0.04 4.457,0.06 8.883,0.12 1.101,0.01 1.11,0.02 2.222,0.03 4.442,0.07 8.89,0.14 1.11,0.02 1.125,0.01 2.203,0.04 4.445,0.08 8.898,0.17 17.762,0.35 1.219,0.03 1.203,0.02 2.406,0.06 4.832,0.09 9.621,0.23 1.207,0.04 1.208,0.02 2.414,0.06 4.816,0.12 9.641,0.27 1.207,0.02 1.214,0.04 2.391,0.06 4.836,0.15 9.637,0.28 19.277,0.65 1.133,0.04 1.113,0.04 2.25,0.08 4.5,0.16 9.008,0.37 1.113,0.04 1.127,0.05 2.25,0.09 4.5,0.19 9,0.39 1.12,0.05 1.12,0.05 2.26,0.11 4.5,0.22 9,0.44 17.98,0.99 1.22,0.07 1.21,0.07 2.45,0.15 4.88,0.29 9.75,0.62 1.22,0.09 1.21,0.08 2.45,0.15 4.87,0.37 9.74,0.69 1.23,0.1 1.22,0.08 2.43,0.18 4.88,0.4 9.75,0.8 19.49,1.78 1.2,0.1 1.21,0.12 2.39,0.26 4.78,0.49 9.58,1 1.18,0.14 1.2,0.13 2.4,0.26 4.78,0.55 9.58,1.17 1.19,0.13 1.21,0.15 2.38,0.32 4.8,0.62 9.55,1.3 19.15,2.85 1.12,0.17 1.11,0.17 2.24,0.37 4.47,0.74 8.93,1.52 17.85,3.34 1.12,0.23 1.11,0.22 2.24,0.43 4.47,0.92 8.92,1.91 17.86,4.12 1.22,0.3 1.21,0.29 2.41,0.6 4.85,1.23 9.68,2.58 19.36,5.55 1.21,0.37 1.22,0.39 2.41,0.73 4.85,1.53 9.68,3.19 19.36,6.91 1.13,0.4 1.13,0.43 2.26,0.88 4.52,1.74 9.04,3.63 18.07,7.78 1.15,0.52 1.11,0.51 2.27,1.03 4.52,2.1 9.03,4.35 18.09,9.27 1.1,0.58 1.12,0.6 2.21,1.21 4.42,2.43 8.87,5.02 17.73,10.65 1.09,0.67 1.12,0.72 2.21,1.39 4.43,2.84 8.86,5.8 17.72,12.29 1.21,0.86 1.2,0.87 2.4,1.74 4.81,3.52 9.62,7.26 19.22,15.26 38.46,33.43 1.13,1.04 1.11,1.02 2.25,2.09 4.49,4.22 8.97,8.55 17.94,17.7 35.88,37.76 77.8,91.18 76.37,99.35 71.22,98.87 77.25,111.69 72.11,106.97 78.14,117.7 76.7,116.66 71.56,109.41 77.6,118.94 72.42,111.19 71.05,109.01 77.03,118.06 71.9,109.87 77.91,118.38 58.22,87.57" />
        <path
           inkscape:connector-curvature="0"
           id="path831"
           style="fill:none;stroke:#00ff00;stroke-width:14.17319965;stroke-linecap:square;stroke-linejoin:miter;stroke-miterlimit:3.25;stroke-dasharray:none;stroke-opacity:1"
           d="m 809.52,954.211 1.117,0.008 1.117,0.019 2.215,0.043 4.449,0.071 8.918,0.168 1.098,0.031 1.113,0.019 2.234,0.039 4.469,0.102 8.887,0.168 17.801,0.41 1.101,0.039 1.098,0.024 2.183,0.046 4.36,0.114 8.73,0.226 1.082,0.032 1.102,0.031 2.176,0.07 4.371,0.117 8.726,0.274 1.086,0.027 1.106,0.02 2.171,0.082 4.368,0.148 8.73,0.27 17.453,0.66 1.188,0.062 1.199,0.028 2.355,0.101 4.739,0.211 9.468,0.418 1.184,0.063 1.188,0.039 2.367,0.097 4.726,0.242 9.481,0.469 1.176,0.051 1.191,0.051 2.363,0.14 4.731,0.25 9.468,0.539 18.955,1.168 1.1,0.082 1.1,0.071 2.22,0.168 4.41,0.293 8.85,0.648 1.08,0.09 1.11,0.059 2.21,0.171 4.42,0.348 8.85,0.723 1.09,0.097 1.11,0.09 2.22,0.192 4.42,0.379 8.84,0.82 17.66,1.781 1.2,0.121 1.2,0.129 2.39,0.262 4.8,0.527 9.58,1.129 1.2,0.141 1.19,0.14 2.39,0.301 4.79,0.61 9.58,1.269 1.19,0.16 1.2,0.172 2.39,0.328 4.79,0.692 9.58,1.418 19.15,3.152 1.18,0.211 1.18,0.207 2.36,0.422 4.69,0.847 9.41,1.793 18.81,3.887 1.17,0.274 1.18,0.277 2.34,0.512 4.72,1.07 9.39,2.238 18.8,4.903 1.1,0.296 1.1,0.301 2.19,0.629 4.39,1.25 8.77,2.594 17.53,5.618 1.11,0.36 1.1,0.37 2.19,0.74 4.38,1.52 8.78,3.17 17.53,6.78 1.21,0.49 1.18,0.49 2.38,0.97 4.75,1.99 9.51,4.16 19.03,8.91 1.18,0.59 1.19,0.59 2.38,1.17 4.76,2.42 9.5,4.99 19.03,10.66 1.11,0.66 1.11,0.65 2.22,1.33 4.44,2.65 8.88,5.51 17.75,11.64 1.13,0.74 1.1,0.76 2.21,1.53 4.44,3.09 8.88,6.34 17.77,13.34 1.08,0.86 1.1,0.85 2.17,1.7 4.34,3.45 8.72,7.07 17.4,14.76 34.82,31.93 1.18,1.13 1.19,1.14 2.36,2.3 4.72,4.65 9.44,9.41 18.88,19.54 37.78,41.57 70.51,85.43 76.42,101.62 75.02,106.09 69.97,102.64 75.88,113.85 70.83,107.78 76.77,117.7 75.34,116.18 70.3,108.68 76.21,117.99 71.16,110.24 69.79,107.99 75.67,117.02 70.63,108.93 76.53,117.54 75.14,114.47 3.87,5.82" />
        <path
           inkscape:connector-curvature="0"
           id="path833"
           style="fill:none;stroke:#0000ff;stroke-width:14.17319965;stroke-linecap:square;stroke-linejoin:miter;stroke-miterlimit:3.25;stroke-dasharray:none;stroke-opacity:1"
           d="m 800.719,809.57 1.082,0.032 1.094,0.019 2.171,0.059 4.368,0.082 8.703,0.207 1.086,0.019 1.093,0.032 2.164,0.039 4.372,0.101 8.711,0.231 1.078,0.039 1.101,0.019 2.156,0.051 4.375,0.121 8.707,0.258 17.415,0.543 1.183,0.047 1.188,0.043 2.355,0.078 4.738,0.172 9.426,0.347 1.188,0.032 1.175,0.058 2.375,0.09 4.715,0.199 9.45,0.41 1.183,0.051 1.18,0.051 2.359,0.102 4.731,0.218 9.449,0.45 18.902,0.992 1.098,0.07 1.094,0.059 2.214,0.129 4.411,0.269 8.824,0.539 1.086,0.094 1.101,0.066 2.211,0.141 4.41,0.293 8.821,0.617 1.097,0.082 1.102,0.07 2.215,0.161 4.398,0.328 8.828,0.699 17.628,1.531 1.2,0.11 1.18,0.101 2.41,0.219 4.77,0.469 9.55,0.961 1.2,0.121 1.2,0.121 2.38,0.25 4.79,0.519 9.55,1.098 1.19,0.133 1.19,0.136 2.39,0.313 4.78,0.57 9.55,1.25 19.11,2.699 1.19,0.168 1.17,0.172 2.35,0.379 4.68,0.742 9.39,1.539 18.76,3.399 1.17,0.211 1.17,0.219 2.34,0.472 4.71,0.93 9.37,1.961 18.76,4.258 1.1,0.269 1.09,0.25 2.2,0.563 4.38,1.07 8.75,2.277 17.5,4.911 1.09,0.32 1.09,0.34 2.19,0.66 4.38,1.34 8.75,2.8 17.49,5.989 1.19,0.441 1.19,0.41 2.36,0.879 4.75,1.77 9.49,3.679 18.98,7.981 1.19,0.492 1.19,0.551 2.36,1.058 4.76,2.149 9.49,4.5 18.97,9.621 1.11,0.602 1.1,0.578 2.22,1.179 4.43,2.442 8.86,4.988 17.72,10.602 1.1,0.699 1.11,0.711 2.22,1.379 4.43,2.851 8.86,5.84 17.72,12.289 1.08,0.801 1.09,0.777 2.17,1.571 4.34,3.222 8.69,6.571 17.37,13.757 34.73,30.09 1.2,1.063 1.16,1.088 2.36,2.17 4.71,4.4 9.43,8.97 18.83,18.67 37.7,40.08 70.34,83.5 76.25,100.81 74.84,106.42 69.81,103.61 75.72,115.51 70.67,109.61 76.58,119.99 75.17,118.5 70.14,110.93 76.06,120.5 70.99,112.62 69.61,110.43 75.5,119.69 70.46,111.56 76.37,120.55 74.99,117.76 69.93,108.92 25.94,39.86" />
        <path
           inkscape:connector-curvature="0"
           id="path835"
           style="fill:#ff0000;fill-opacity:1;fill-rule:evenodd;stroke:none"
           d="m 1637.06,1274.11 c 0,-1.91 -0.24,-3.73 -0.74,-5.49 -0.48,-1.76 -1.15,-3.4 -2.03,-4.92 -0.9,-1.52 -1.96,-2.89 -3.19,-4.12 -1.24,-1.23 -2.61,-2.29 -4.15,-3.17 -1.52,-0.88 -3.16,-1.56 -4.9,-2.05 -1.76,-0.48 -3.59,-0.72 -5.51,-0.72 -2.86,0 -5.54,0.53 -8.02,1.59 -2.48,1.07 -4.64,2.51 -6.49,4.35 -1.85,1.83 -3.3,4 -4.35,6.48 -1.05,2.49 -1.58,5.18 -1.58,8.05 0,2.85 0.54,5.51 1.6,7.99 1.05,2.5 2.51,4.66 4.35,6.5 1.83,1.86 3.99,3.32 6.49,4.37 2.48,1.06 5.16,1.59 8,1.59 2.84,0 5.51,-0.53 8.01,-1.59 2.5,-1.05 4.67,-2.51 6.51,-4.37 1.86,-1.84 3.32,-4 4.38,-6.5 1.07,-2.48 1.62,-5.14 1.62,-7.99 v 0" />
        <path
           inkscape:connector-curvature="0"
           id="path837"
           style="fill:#ff0000;fill-opacity:1;fill-rule:evenodd;stroke:none"
           d="m 1417.29,1353.48 c 0,-1.91 -0.24,-3.74 -0.74,-5.49 -0.48,-1.75 -1.15,-3.39 -2.03,-4.92 -0.9,-1.52 -1.96,-2.9 -3.19,-4.12 -1.24,-1.23 -2.61,-2.28 -4.15,-3.16 -1.52,-0.89 -3.16,-1.57 -4.9,-2.05 -1.75,-0.49 -3.59,-0.73 -5.5,-0.73 -2.87,0 -5.55,0.53 -8.03,1.59 -2.49,1.06 -4.64,2.52 -6.49,4.35 -1.85,1.84 -3.3,4.01 -4.35,6.49 -1.05,2.48 -1.58,5.17 -1.58,8.04 0,2.84 0.54,5.5 1.59,7.99 1.06,2.49 2.51,4.67 4.36,6.5 1.83,1.85 3.99,3.31 6.48,4.38 2.49,1.05 5.17,1.58 8.02,1.58 2.83,0 5.5,-0.53 8,-1.58 2.5,-1.07 4.67,-2.53 6.51,-4.38 1.85,-1.83 3.31,-4.01 4.38,-6.5 1.07,-2.49 1.62,-5.15 1.62,-7.99 v 0" />
        <path
           inkscape:connector-curvature="0"
           id="path839"
           style="fill:#ff0000;fill-opacity:1;fill-rule:evenodd;stroke:none"
           d="m 1334.72,1082.49 c 0,-1.91 -0.25,-3.73 -0.74,-5.49 -0.47,-1.76 -1.15,-3.4 -2.04,-4.92 -0.89,-1.52 -1.94,-2.89 -3.18,-4.11 -1.24,-1.24 -2.62,-2.3 -4.15,-3.18 -1.51,-0.88 -3.15,-1.56 -4.9,-2.05 -1.76,-0.48 -3.6,-0.72 -5.51,-0.72 -2.87,0 -5.55,0.53 -8.02,1.59 -2.48,1.06 -4.65,2.51 -6.5,4.36 -1.84,1.82 -3.29,3.99 -4.34,6.47 -1.05,2.5 -1.58,5.18 -1.58,8.05 0,2.85 0.54,5.5 1.6,7.99 1.06,2.49 2.51,4.66 4.35,6.5 1.82,1.85 4,3.32 6.49,4.37 2.48,1.06 5.15,1.59 8,1.59 2.85,0 5.51,-0.53 8.01,-1.59 2.5,-1.05 4.67,-2.52 6.52,-4.37 1.85,-1.84 3.31,-4.01 4.38,-6.5 1.06,-2.49 1.61,-5.14 1.61,-7.99 v 0" />
        <path
           inkscape:connector-curvature="0"
           id="path841"
           style="fill:#ff0000;fill-opacity:1;fill-rule:evenodd;stroke:none"
           d="m 1171.16,1120.94 c 0,-1.91 -0.25,-3.74 -0.74,-5.48 -0.47,-1.76 -1.15,-3.4 -2.04,-4.93 -0.88,-1.52 -1.94,-2.9 -3.17,-4.12 -1.25,-1.23 -2.63,-2.28 -4.16,-3.16 -1.51,-0.89 -3.15,-1.56 -4.91,-2.05 -1.75,-0.49 -3.59,-0.73 -5.5,-0.73 -2.87,0 -5.55,0.53 -8.02,1.59 -2.48,1.06 -4.65,2.52 -6.5,4.35 -1.84,1.84 -3.29,4.01 -4.34,6.49 -1.06,2.48 -1.57,5.17 -1.57,8.04 0,2.84 0.53,5.5 1.59,7.99 1.06,2.49 2.51,4.67 4.35,6.51 1.82,1.84 4,3.3 6.49,4.36 2.48,1.07 5.15,1.59 8,1.59 2.85,0 5.5,-0.52 8.01,-1.59 2.49,-1.06 4.68,-2.52 6.52,-4.36 1.85,-1.84 3.31,-4.02 4.38,-6.51 1.07,-2.49 1.61,-5.15 1.61,-7.99 v 0" />
        <path
           inkscape:connector-curvature="0"
           id="path843"
           style="fill:#ff0000;fill-opacity:1;fill-rule:evenodd;stroke:none"
           d="m 1181.42,1113.99 c 0,-1.91 -0.24,-3.73 -0.74,-5.49 -0.47,-1.76 -1.15,-3.4 -2.04,-4.92 -0.89,-1.52 -1.95,-2.89 -3.18,-4.12 -1.24,-1.23 -2.61,-2.29 -4.15,-3.16 -1.52,-0.88 -3.16,-1.57 -4.9,-2.06 -1.76,-0.48 -3.6,-0.72 -5.51,-0.72 -2.86,0 -5.54,0.53 -8.02,1.59 -2.48,1.07 -4.65,2.51 -6.49,4.35 -1.85,1.84 -3.3,4 -4.35,6.48 -1.05,2.49 -1.58,5.18 -1.58,8.05 0,2.84 0.54,5.51 1.6,7.99 1.06,2.5 2.51,4.67 4.35,6.5 1.82,1.86 4,3.31 6.49,4.38 2.48,1.05 5.16,1.58 8,1.58 2.85,0 5.51,-0.53 8.01,-1.58 2.5,-1.07 4.67,-2.52 6.51,-4.38 1.86,-1.83 3.32,-4 4.38,-6.5 1.07,-2.48 1.62,-5.15 1.62,-7.99 v 0" />
        <path
           inkscape:connector-curvature="0"
           id="path845"
           style="fill:#ff0000;fill-opacity:1;fill-rule:evenodd;stroke:none"
           d="m 1193.03,1145.89 c 0,-1.92 -0.25,-3.75 -0.74,-5.49 -0.47,-1.76 -1.16,-3.4 -2.04,-4.93 -0.88,-1.52 -1.94,-2.9 -3.17,-4.12 -1.25,-1.23 -2.63,-2.28 -4.16,-3.16 -1.51,-0.89 -3.15,-1.57 -4.91,-2.05 -1.75,-0.49 -3.59,-0.72 -5.5,-0.72 -2.87,0 -5.55,0.52 -8.02,1.58 -2.48,1.06 -4.65,2.52 -6.5,4.35 -1.85,1.84 -3.29,4.01 -4.35,6.49 -1.05,2.48 -1.56,5.17 -1.56,8.05 0,2.83 0.53,5.49 1.59,7.98 1.06,2.49 2.51,4.66 4.35,6.51 1.82,1.84 4,3.3 6.49,4.36 2.48,1.07 5.15,1.59 8,1.59 2.85,0 5.5,-0.52 8.01,-1.59 2.49,-1.06 4.68,-2.52 6.52,-4.36 1.85,-1.85 3.31,-4.02 4.38,-6.51 1.07,-2.49 1.61,-5.15 1.61,-7.98 v 0" />
        <path
           inkscape:connector-curvature="0"
           id="path847"
           style="fill:#ff0000;fill-opacity:1;fill-rule:evenodd;stroke:none"
           d="m 1202.81,1156.33 c 0,-1.91 -0.24,-3.74 -0.73,-5.48 -0.47,-1.76 -1.16,-3.4 -2.04,-4.93 -0.88,-1.52 -1.94,-2.9 -3.17,-4.12 -1.24,-1.23 -2.63,-2.28 -4.16,-3.16 -1.51,-0.89 -3.15,-1.56 -4.91,-2.05 -1.75,-0.49 -3.59,-0.72 -5.5,-0.72 -2.87,0 -5.55,0.52 -8.02,1.58 -2.48,1.06 -4.65,2.52 -6.5,4.35 -1.84,1.84 -3.29,4.01 -4.34,6.49 -1.06,2.48 -1.57,5.17 -1.57,8.04 0,2.84 0.52,5.5 1.59,7.99 1.06,2.49 2.51,4.67 4.34,6.51 1.83,1.84 4.01,3.3 6.5,4.36 2.48,1.07 5.15,1.59 8,1.59 2.85,0 5.5,-0.52 8,-1.59 2.5,-1.06 4.69,-2.52 6.53,-4.36 1.85,-1.84 3.31,-4.02 4.38,-6.51 1.07,-2.49 1.6,-5.15 1.6,-7.99 v 0" />
        <path
           inkscape:connector-curvature="0"
           id="path849"
           style="fill:#ff0000;fill-opacity:1;fill-rule:evenodd;stroke:none"
           d="m 1211.97,1164.95 c 0,-1.92 -0.24,-3.75 -0.72,-5.49 -0.48,-1.77 -1.17,-3.41 -2.05,-4.92 -0.88,-1.53 -1.94,-2.91 -3.17,-4.12 -1.24,-1.23 -2.63,-2.3 -4.15,-3.18 -1.52,-0.89 -3.16,-1.56 -4.92,-2.05 -1.75,-0.48 -3.59,-0.71 -5.5,-0.71 -2.87,0 -5.55,0.53 -8.03,1.58 -2.47,1.06 -4.64,2.51 -6.49,4.36 -1.85,1.82 -3.3,4 -4.35,6.47 -1.05,2.49 -1.56,5.19 -1.56,8.06 0,2.83 0.52,5.49 1.59,7.99 1.06,2.48 2.51,4.65 4.34,6.5 1.83,1.84 4.01,3.3 6.5,4.36 2.48,1.07 5.15,1.6 8,1.6 2.85,0 5.5,-0.53 8,-1.6 2.5,-1.06 4.69,-2.52 6.53,-4.36 1.85,-1.85 3.31,-4.02 4.38,-6.5 1.07,-2.5 1.6,-5.16 1.6,-7.99 v 0" />
        <path
           inkscape:connector-curvature="0"
           id="path851"
           style="fill:#ff0000;fill-opacity:1;fill-rule:evenodd;stroke:none"
           d="m 1220.58,1158.21 c 0,-1.91 -0.24,-3.75 -0.74,-5.5 -0.47,-1.76 -1.15,-3.4 -2.04,-4.91 -0.89,-1.52 -1.95,-2.91 -3.18,-4.12 -1.24,-1.23 -2.61,-2.3 -4.15,-3.18 -1.51,-0.88 -3.16,-1.57 -4.9,-2.05 -1.76,-0.48 -3.6,-0.72 -5.51,-0.72 -2.86,0 -5.54,0.54 -8.02,1.59 -2.48,1.06 -4.65,2.51 -6.49,4.36 -1.85,1.82 -3.3,3.99 -4.35,6.47 -1.05,2.49 -1.58,5.19 -1.58,8.06 0,2.83 0.54,5.49 1.6,7.99 1.06,2.48 2.51,4.65 4.35,6.49 1.82,1.85 4,3.31 6.49,4.37 2.48,1.06 5.16,1.6 8,1.6 2.85,0 5.51,-0.54 8.01,-1.6 2.5,-1.06 4.67,-2.52 6.51,-4.37 1.86,-1.84 3.32,-4.01 4.38,-6.49 1.07,-2.5 1.62,-5.16 1.62,-7.99 v 0" />
        <path
           inkscape:connector-curvature="0"
           id="path853"
           style="fill:#ff0000;fill-opacity:1;fill-rule:evenodd;stroke:none"
           d="m 1228.69,1198 c 0,-1.9 -0.24,-3.74 -0.74,-5.49 -0.47,-1.76 -1.15,-3.4 -2.04,-4.92 -0.89,-1.52 -1.95,-2.9 -3.18,-4.12 -1.24,-1.23 -2.61,-2.29 -4.15,-3.17 -1.51,-0.88 -3.16,-1.56 -4.9,-2.05 -1.76,-0.47 -3.6,-0.72 -5.51,-0.72 -2.87,0 -5.54,0.53 -8.02,1.6 -2.48,1.05 -4.65,2.5 -6.49,4.34 -1.85,1.83 -3.3,4 -4.35,6.48 -1.05,2.5 -1.58,5.18 -1.58,8.05 0,2.85 0.54,5.5 1.6,7.99 1.06,2.49 2.51,4.66 4.35,6.5 1.82,1.85 4,3.32 6.49,4.37 2.48,1.06 5.16,1.59 8,1.59 2.85,0 5.51,-0.53 8.01,-1.59 2.5,-1.05 4.67,-2.52 6.52,-4.37 1.85,-1.84 3.31,-4.01 4.38,-6.5 1.06,-2.49 1.61,-5.14 1.61,-7.99 v 0" />
        <path
           inkscape:connector-curvature="0"
           id="path855"
           style="fill:#ff0000;fill-opacity:1;fill-rule:evenodd;stroke:none"
           d="m 1236.35,1221.22 c 0,-1.91 -0.24,-3.73 -0.72,-5.49 -0.48,-1.76 -1.17,-3.4 -2.05,-4.92 -0.88,-1.52 -1.94,-2.89 -3.17,-4.12 -1.24,-1.23 -2.63,-2.29 -4.16,-3.17 -1.51,-0.88 -3.15,-1.56 -4.91,-2.05 -1.75,-0.48 -3.59,-0.72 -5.5,-0.72 -2.87,0 -5.55,0.53 -8.03,1.59 -2.47,1.06 -4.64,2.51 -6.49,4.35 -1.85,1.83 -3.3,4 -4.35,6.48 -1.05,2.49 -1.56,5.18 -1.56,8.05 0,2.85 0.52,5.5 1.59,7.99 1.06,2.5 2.51,4.66 4.34,6.5 1.83,1.85 4.01,3.32 6.5,4.37 2.47,1.06 5.15,1.59 8,1.59 2.85,0 5.5,-0.53 8,-1.59 2.5,-1.05 4.69,-2.52 6.53,-4.37 1.85,-1.84 3.31,-4 4.38,-6.5 1.07,-2.49 1.6,-5.14 1.6,-7.99 v 0" />
        <path
           inkscape:connector-curvature="0"
           id="path857"
           style="fill:#ff0000;fill-opacity:1;fill-rule:evenodd;stroke:none"
           d="m 1243.63,1216.92 c 0,-1.91 -0.24,-3.75 -0.72,-5.5 -0.48,-1.76 -1.17,-3.4 -2.05,-4.91 -0.88,-1.52 -1.94,-2.91 -3.17,-4.12 -1.24,-1.23 -2.63,-2.3 -4.15,-3.18 -1.52,-0.88 -3.16,-1.57 -4.92,-2.05 -1.74,-0.47 -3.59,-0.72 -5.49,-0.72 -2.88,0 -5.56,0.54 -8.04,1.59 -2.47,1.06 -4.64,2.51 -6.49,4.36 -1.85,1.83 -3.3,3.99 -4.35,6.47 -1.05,2.49 -1.56,5.19 -1.56,8.06 0,2.83 0.52,5.49 1.59,7.99 1.06,2.48 2.51,4.65 4.34,6.49 1.83,1.85 4.01,3.31 6.5,4.37 2.47,1.06 5.15,1.6 8.01,1.6 2.84,0 5.49,-0.54 7.99,-1.6 2.5,-1.06 4.69,-2.52 6.53,-4.37 1.85,-1.84 3.31,-4.01 4.38,-6.49 1.07,-2.5 1.6,-5.16 1.6,-7.99 v 0" />
        <path
           inkscape:connector-curvature="0"
           id="path859"
           style="fill:#ff0000;fill-opacity:1;fill-rule:evenodd;stroke:none"
           d="m 1269.51,1188.01 c 0,-1.91 -0.25,-3.74 -0.74,-5.48 -0.47,-1.76 -1.15,-3.4 -2.04,-4.93 -0.89,-1.52 -1.94,-2.9 -3.18,-4.12 -1.24,-1.23 -2.61,-2.28 -4.15,-3.16 -1.51,-0.89 -3.15,-1.56 -4.9,-2.05 -1.76,-0.49 -3.6,-0.72 -5.51,-0.72 -2.87,0 -5.54,0.52 -8.02,1.58 -2.48,1.06 -4.65,2.52 -6.5,4.35 -1.84,1.84 -3.29,4.01 -4.34,6.49 -1.05,2.48 -1.58,5.17 -1.58,8.04 0,2.84 0.54,5.5 1.6,7.99 1.06,2.49 2.51,4.67 4.35,6.51 1.82,1.84 4,3.3 6.49,4.36 2.48,1.07 5.15,1.59 8,1.59 2.85,0 5.51,-0.52 8.01,-1.59 2.5,-1.06 4.67,-2.52 6.52,-4.36 1.85,-1.84 3.31,-4.02 4.38,-6.51 1.06,-2.49 1.61,-5.15 1.61,-7.99 v 0" />
        <path
           inkscape:connector-curvature="0"
           id="path861"
           style="fill:#ff0000;fill-opacity:1;fill-rule:evenodd;stroke:none"
           d="m 1291.39,1129.44 c 0,-1.91 -0.25,-3.75 -0.74,-5.5 -0.47,-1.76 -1.15,-3.4 -2.04,-4.91 -0.89,-1.52 -1.94,-2.91 -3.18,-4.12 -1.24,-1.23 -2.62,-2.3 -4.15,-3.18 -1.51,-0.88 -3.15,-1.57 -4.9,-2.05 -1.76,-0.47 -3.6,-0.72 -5.51,-0.72 -2.87,0 -5.54,0.54 -8.02,1.59 -2.48,1.06 -4.65,2.51 -6.5,4.36 -1.84,1.82 -3.29,3.99 -4.34,6.47 -1.05,2.49 -1.58,5.19 -1.58,8.06 0,2.83 0.54,5.49 1.6,7.99 1.06,2.48 2.51,4.65 4.35,6.49 1.82,1.85 4,3.31 6.49,4.37 2.48,1.06 5.16,1.6 8,1.6 2.85,0 5.51,-0.54 8.01,-1.6 2.5,-1.06 4.67,-2.52 6.52,-4.37 1.85,-1.84 3.31,-4.01 4.38,-6.49 1.06,-2.5 1.61,-5.16 1.61,-7.99 v 0" />
        <path
           inkscape:connector-curvature="0"
           id="path863"
           style="fill:#ff0000;fill-opacity:1;fill-rule:evenodd;stroke:none"
           d="m 1310.33,1142.41 c 0,-1.92 -0.25,-3.75 -0.74,-5.49 -0.47,-1.77 -1.16,-3.41 -2.04,-4.92 -0.88,-1.53 -1.94,-2.91 -3.17,-4.12 -1.25,-1.23 -2.63,-2.3 -4.16,-3.18 -1.51,-0.89 -3.15,-1.56 -4.91,-2.05 -1.75,-0.48 -3.59,-0.71 -5.5,-0.71 -2.87,0 -5.55,0.53 -8.02,1.58 -2.48,1.06 -4.65,2.51 -6.5,4.36 -1.84,1.82 -3.29,3.99 -4.34,6.47 -1.06,2.49 -1.57,5.19 -1.57,8.06 0,2.83 0.52,5.49 1.59,7.99 1.06,2.48 2.51,4.65 4.34,6.49 1.83,1.85 4.01,3.31 6.5,4.37 2.48,1.07 5.15,1.6 8,1.6 2.85,0 5.5,-0.53 8,-1.6 2.5,-1.06 4.69,-2.52 6.53,-4.37 1.85,-1.84 3.31,-4.01 4.38,-6.49 1.07,-2.5 1.61,-5.16 1.61,-7.99 v 0" />
        <path
           inkscape:connector-curvature="0"
           id="path865"
           style="fill:#ff0000;fill-opacity:1;fill-rule:evenodd;stroke:none"
           d="m 1327.05,1098.81 c 0,-1.91 -0.24,-3.74 -0.74,-5.48 -0.48,-1.76 -1.15,-3.4 -2.03,-4.93 -0.9,-1.52 -1.96,-2.9 -3.19,-4.12 -1.24,-1.23 -2.61,-2.28 -4.15,-3.16 -1.52,-0.89 -3.16,-1.57 -4.9,-2.05 -1.76,-0.49 -3.59,-0.72 -5.51,-0.72 -2.86,0 -5.54,0.52 -8.02,1.58 -2.48,1.06 -4.64,2.52 -6.49,4.35 -1.85,1.84 -3.3,4.01 -4.35,6.49 -1.05,2.48 -1.58,5.17 -1.58,8.04 0,2.84 0.54,5.5 1.6,7.99 1.06,2.49 2.51,4.66 4.35,6.51 1.83,1.84 4,3.3 6.49,4.36 2.48,1.07 5.16,1.59 8,1.59 2.85,0 5.51,-0.52 8.01,-1.59 2.5,-1.06 4.67,-2.52 6.51,-4.36 1.86,-1.85 3.32,-4.02 4.38,-6.51 1.07,-2.49 1.62,-5.15 1.62,-7.99 v 0" />
        <path
           inkscape:connector-curvature="0"
           id="path867"
           style="fill:#ff0000;fill-opacity:1;fill-rule:evenodd;stroke:none"
           d="m 1342,1090.87 c 0,-1.92 -0.25,-3.74 -0.74,-5.49 -0.47,-1.76 -1.15,-3.4 -2.04,-4.92 -0.89,-1.53 -1.94,-2.91 -3.18,-4.13 -1.24,-1.23 -2.62,-2.28 -4.15,-3.16 -1.51,-0.89 -3.15,-1.57 -4.9,-2.05 -1.76,-0.49 -3.6,-0.72 -5.51,-0.72 -2.87,0 -5.55,0.52 -8.02,1.58 -2.48,1.06 -4.65,2.52 -6.5,4.35 -1.84,1.84 -3.29,4.01 -4.34,6.49 -1.06,2.48 -1.58,5.17 -1.58,8.05 0,2.83 0.54,5.49 1.6,7.98 1.06,2.49 2.51,4.66 4.35,6.51 1.82,1.84 4,3.3 6.49,4.36 2.48,1.07 5.15,1.59 8,1.59 2.85,0 5.51,-0.52 8.01,-1.59 2.49,-1.06 4.68,-2.52 6.52,-4.36 1.85,-1.85 3.31,-4.02 4.38,-6.51 1.07,-2.49 1.61,-5.15 1.61,-7.98 v 0" />
        <path
           inkscape:connector-curvature="0"
           id="path869"
           style="fill:#ff0000;fill-opacity:1;fill-rule:evenodd;stroke:none"
           d="m 1355.51,1116.61 c 0,-1.91 -0.24,-3.73 -0.72,-5.49 -0.48,-1.76 -1.17,-3.4 -2.05,-4.92 -0.88,-1.52 -1.94,-2.89 -3.17,-4.12 -1.24,-1.23 -2.63,-2.29 -4.15,-3.17 -1.52,-0.88 -3.16,-1.56 -4.92,-2.05 -1.75,-0.48 -3.59,-0.72 -5.5,-0.72 -2.87,0 -5.55,0.53 -8.03,1.59 -2.47,1.07 -4.64,2.51 -6.49,4.35 -1.85,1.83 -3.3,4 -4.35,6.48 -1.05,2.49 -1.56,5.18 -1.56,8.05 0,2.85 0.52,5.51 1.59,7.99 1.06,2.5 2.51,4.66 4.34,6.5 1.83,1.86 4.01,3.32 6.5,4.37 2.47,1.06 5.15,1.59 8,1.59 2.85,0 5.5,-0.53 8,-1.59 2.5,-1.05 4.69,-2.51 6.53,-4.37 1.85,-1.84 3.31,-4 4.38,-6.5 1.07,-2.48 1.6,-5.14 1.6,-7.99 v 0" />
        <path
           inkscape:connector-curvature="0"
           id="path871"
           style="fill:#ff0000;fill-opacity:1;fill-rule:evenodd;stroke:none"
           d="m 1367.87,1116.49 c 0,-1.91 -0.24,-3.73 -0.74,-5.49 -0.47,-1.76 -1.15,-3.4 -2.04,-4.92 -0.89,-1.52 -1.95,-2.89 -3.18,-4.12 -1.24,-1.23 -2.61,-2.29 -4.15,-3.16 -1.51,-0.88 -3.16,-1.57 -4.9,-2.06 -1.76,-0.48 -3.6,-0.72 -5.51,-0.72 -2.87,0 -5.54,0.53 -8.02,1.59 -2.48,1.07 -4.65,2.51 -6.49,4.35 -1.85,1.84 -3.3,4 -4.35,6.48 -1.05,2.49 -1.58,5.18 -1.58,8.05 0,2.84 0.54,5.51 1.6,7.99 1.06,2.5 2.51,4.67 4.35,6.5 1.82,1.86 4,3.31 6.49,4.38 2.48,1.05 5.16,1.58 8,1.58 2.85,0 5.51,-0.53 8.01,-1.58 2.5,-1.07 4.67,-2.52 6.52,-4.38 1.85,-1.83 3.31,-4 4.37,-6.5 1.07,-2.48 1.62,-5.15 1.62,-7.99 v 0" />
        <path
           inkscape:connector-curvature="0"
           id="path873"
           style="fill:#ff0000;fill-opacity:1;fill-rule:evenodd;stroke:none"
           d="m 1394.72,1210.83 c 0,-1.91 -0.25,-3.73 -0.74,-5.49 -0.47,-1.76 -1.15,-3.4 -2.04,-4.92 -0.89,-1.52 -1.94,-2.89 -3.18,-4.12 -1.24,-1.23 -2.62,-2.29 -4.15,-3.17 -1.51,-0.88 -3.15,-1.56 -4.9,-2.05 -1.76,-0.48 -3.6,-0.72 -5.51,-0.72 -2.87,0 -5.55,0.53 -8.02,1.6 -2.48,1.05 -4.65,2.5 -6.5,4.34 -1.84,1.83 -3.29,4 -4.34,6.48 -1.05,2.5 -1.58,5.19 -1.58,8.05 0,2.85 0.54,5.5 1.6,7.99 1.06,2.49 2.51,4.66 4.35,6.5 1.82,1.85 4,3.32 6.49,4.37 2.48,1.06 5.15,1.59 8,1.59 2.85,0 5.51,-0.53 8.01,-1.59 2.5,-1.05 4.67,-2.52 6.52,-4.37 1.85,-1.84 3.31,-4.01 4.38,-6.5 1.06,-2.49 1.61,-5.14 1.61,-7.99 v 0" />
        <path
           inkscape:connector-curvature="0"
           id="path875"
           style="fill:#ff0000;fill-opacity:1;fill-rule:evenodd;stroke:none"
           d="m 1404.17,1230.18 c 0,-1.91 -0.23,-3.74 -0.72,-5.49 -0.49,-1.75 -1.16,-3.39 -2.04,-4.92 -0.9,-1.52 -1.96,-2.9 -3.19,-4.12 -1.24,-1.23 -2.61,-2.28 -4.14,-3.16 -1.53,-0.88 -3.17,-1.57 -4.91,-2.05 -1.75,-0.49 -3.59,-0.73 -5.5,-0.73 -2.87,0 -5.55,0.53 -8.04,1.59 -2.48,1.06 -4.63,2.51 -6.48,4.35 -1.86,1.84 -3.31,4 -4.36,6.49 -1.04,2.48 -1.57,5.17 -1.57,8.04 0,2.84 0.53,5.51 1.59,7.99 1.06,2.49 2.51,4.67 4.36,6.5 1.83,1.86 3.99,3.31 6.48,4.38 2.48,1.05 5.17,1.58 8.02,1.58 2.83,0 5.5,-0.53 8,-1.58 2.5,-1.07 4.67,-2.52 6.51,-4.38 1.85,-1.83 3.31,-4.01 4.38,-6.5 1.07,-2.48 1.61,-5.15 1.61,-7.99 v 0" />
        <path
           inkscape:connector-curvature="0"
           id="path877"
           style="fill:#ff0000;fill-opacity:1;fill-rule:evenodd;stroke:none"
           d="m 1421.4,1209.46 c 0,-1.91 -0.24,-3.75 -0.74,-5.5 -0.47,-1.76 -1.15,-3.4 -2.04,-4.91 -0.89,-1.52 -1.95,-2.91 -3.18,-4.12 -1.24,-1.23 -2.61,-2.3 -4.15,-3.18 -1.51,-0.88 -3.16,-1.57 -4.9,-2.05 -1.76,-0.48 -3.6,-0.72 -5.51,-0.72 -2.87,0 -5.54,0.54 -8.02,1.59 -2.48,1.06 -4.65,2.51 -6.49,4.36 -1.85,1.82 -3.3,3.99 -4.35,6.47 -1.05,2.49 -1.58,5.19 -1.58,8.06 0,2.83 0.54,5.49 1.6,7.99 1.06,2.48 2.51,4.65 4.35,6.49 1.82,1.85 4,3.31 6.49,4.37 2.48,1.06 5.16,1.6 8,1.6 2.85,0 5.51,-0.54 8.01,-1.6 2.5,-1.06 4.67,-2.52 6.52,-4.37 1.85,-1.84 3.31,-4.01 4.38,-6.49 1.06,-2.5 1.61,-5.16 1.61,-7.99 v 0" />
        <path
           inkscape:connector-curvature="0"
           id="path879"
           style="fill:#ff0000;fill-opacity:1;fill-rule:evenodd;stroke:none"
           d="m 1440.35,1225.09 c 0,-1.9 -0.24,-3.74 -0.74,-5.49 -0.47,-1.76 -1.15,-3.4 -2.04,-4.92 -0.89,-1.51 -1.94,-2.9 -3.18,-4.12 -1.24,-1.23 -2.61,-2.29 -4.15,-3.17 -1.51,-0.88 -3.16,-1.56 -4.9,-2.05 -1.76,-0.47 -3.6,-0.71 -5.51,-0.71 -2.87,0 -5.54,0.52 -8.02,1.59 -2.48,1.05 -4.65,2.5 -6.5,4.34 -1.84,1.83 -3.29,4 -4.34,6.48 -1.05,2.5 -1.58,5.18 -1.58,8.05 0,2.85 0.54,5.5 1.6,7.99 1.06,2.49 2.51,4.66 4.35,6.5 1.82,1.85 4,3.32 6.49,4.37 2.48,1.06 5.15,1.59 8,1.59 2.85,0 5.51,-0.53 8.01,-1.59 2.5,-1.05 4.67,-2.52 6.52,-4.37 1.85,-1.84 3.31,-4.01 4.38,-6.5 1.06,-2.49 1.61,-5.14 1.61,-7.99 v 0" />
        <path
           inkscape:connector-curvature="0"
           id="path881"
           style="fill:#ff0000;fill-opacity:1;fill-rule:evenodd;stroke:none"
           d="m 1457.07,1242.12 c 0,-1.92 -0.24,-3.74 -0.74,-5.49 -0.48,-1.76 -1.15,-3.4 -2.03,-4.92 -0.9,-1.53 -1.96,-2.91 -3.19,-4.13 -1.24,-1.23 -2.61,-2.28 -4.15,-3.16 -1.52,-0.89 -3.16,-1.57 -4.9,-2.05 -1.76,-0.49 -3.59,-0.72 -5.51,-0.72 -2.86,0 -5.54,0.52 -8.02,1.58 -2.49,1.06 -4.64,2.52 -6.49,4.35 -1.85,1.84 -3.3,4.01 -4.35,6.49 -1.05,2.48 -1.58,5.17 -1.58,8.05 0,2.83 0.54,5.49 1.6,7.98 1.05,2.49 2.5,4.66 4.35,6.51 1.83,1.84 3.99,3.3 6.48,4.36 2.49,1.07 5.17,1.59 8.01,1.59 2.84,0 5.51,-0.52 8.01,-1.59 2.5,-1.06 4.67,-2.52 6.51,-4.36 1.85,-1.85 3.31,-4.02 4.38,-6.51 1.07,-2.49 1.62,-5.15 1.62,-7.98 v 0" />
        <path
           inkscape:connector-curvature="0"
           id="path883"
           style="fill:#ff0000;fill-opacity:1;fill-rule:evenodd;stroke:none"
           d="m 1472.02,1261.08 c 0,-1.91 -0.24,-3.73 -0.74,-5.49 -0.47,-1.76 -1.15,-3.4 -2.04,-4.92 -0.89,-1.52 -1.95,-2.89 -3.18,-4.12 -1.24,-1.23 -2.61,-2.29 -4.15,-3.16 -1.51,-0.88 -3.16,-1.57 -4.9,-2.06 -1.76,-0.48 -3.6,-0.72 -5.51,-0.72 -2.87,0 -5.54,0.53 -8.02,1.59 -2.48,1.07 -4.65,2.51 -6.49,4.35 -1.85,1.84 -3.3,4 -4.35,6.48 -1.05,2.49 -1.58,5.18 -1.58,8.05 0,2.84 0.54,5.51 1.6,7.99 1.06,2.5 2.51,4.67 4.35,6.5 1.82,1.86 4,3.31 6.49,4.38 2.48,1.05 5.16,1.58 8,1.58 2.85,0 5.51,-0.53 8.01,-1.58 2.5,-1.07 4.67,-2.52 6.52,-4.38 1.85,-1.83 3.31,-4 4.38,-6.5 1.06,-2.48 1.61,-5.15 1.61,-7.99 v 0" />
        <path
           inkscape:connector-curvature="0"
           id="path885"
           style="fill:#ff0000;fill-opacity:1;fill-rule:evenodd;stroke:none"
           d="m 1485.54,1263.03 c 0,-1.91 -0.25,-3.74 -0.74,-5.48 -0.47,-1.76 -1.16,-3.4 -2.04,-4.93 -0.88,-1.52 -1.94,-2.9 -3.18,-4.12 -1.24,-1.23 -2.62,-2.28 -4.15,-3.16 -1.51,-0.89 -3.15,-1.56 -4.9,-2.05 -1.76,-0.49 -3.6,-0.73 -5.51,-0.73 -2.87,0 -5.55,0.53 -8.02,1.59 -2.48,1.06 -4.65,2.52 -6.5,4.35 -1.84,1.84 -3.29,4.01 -4.34,6.49 -1.06,2.48 -1.58,5.17 -1.58,8.04 0,2.84 0.54,5.5 1.6,7.99 1.06,2.49 2.51,4.67 4.35,6.51 1.82,1.84 4,3.3 6.49,4.36 2.48,1.07 5.15,1.59 8,1.59 2.85,0 5.51,-0.52 8.01,-1.59 2.5,-1.06 4.68,-2.52 6.52,-4.36 1.85,-1.84 3.31,-4.02 4.38,-6.51 1.07,-2.49 1.61,-5.15 1.61,-7.99 v 0" />
        <path
           inkscape:connector-curvature="0"
           id="path887"
           style="fill:#ff0000;fill-opacity:1;fill-rule:evenodd;stroke:none"
           d="m 1497.89,1239.72 c 0,-1.9 -0.24,-3.74 -0.74,-5.49 -0.48,-1.76 -1.15,-3.4 -2.03,-4.92 -0.9,-1.51 -1.96,-2.9 -3.19,-4.12 -1.24,-1.23 -2.61,-2.29 -4.15,-3.17 -1.52,-0.88 -3.16,-1.56 -4.9,-2.05 -1.76,-0.47 -3.59,-0.72 -5.51,-0.72 -2.86,0 -5.54,0.53 -8.02,1.6 -2.48,1.05 -4.64,2.5 -6.49,4.34 -1.85,1.83 -3.3,4 -4.35,6.48 -1.05,2.5 -1.58,5.18 -1.58,8.05 0,2.84 0.54,5.5 1.6,7.99 1.05,2.49 2.51,4.66 4.35,6.51 1.83,1.84 4,3.31 6.49,4.36 2.48,1.06 5.16,1.59 8,1.59 2.84,0 5.51,-0.53 8.01,-1.59 2.5,-1.05 4.67,-2.52 6.51,-4.36 1.86,-1.85 3.32,-4.02 4.38,-6.51 1.07,-2.49 1.62,-5.15 1.62,-7.99 v 0" />
        <path
           inkscape:connector-curvature="0"
           id="path889"
           style="fill:#ff0000;fill-opacity:1;fill-rule:evenodd;stroke:none"
           d="m 1509.23,1253.01 c 0,-1.91 -0.24,-3.74 -0.72,-5.48 -0.48,-1.76 -1.17,-3.4 -2.05,-4.93 -0.88,-1.52 -1.94,-2.9 -3.17,-4.12 -1.24,-1.23 -2.63,-2.28 -4.15,-3.16 -1.52,-0.89 -3.16,-1.56 -4.92,-2.05 -1.74,-0.49 -3.59,-0.72 -5.49,-0.72 -2.88,0 -5.56,0.52 -8.04,1.58 -2.48,1.06 -4.64,2.52 -6.49,4.35 -1.85,1.84 -3.3,4.01 -4.35,6.49 -1.05,2.48 -1.56,5.17 -1.56,8.04 0,2.84 0.52,5.5 1.58,7.99 1.07,2.49 2.51,4.67 4.35,6.51 1.83,1.84 4,3.3 6.49,4.36 2.48,1.07 5.16,1.59 8.02,1.59 2.84,0 5.49,-0.52 7.99,-1.59 2.5,-1.06 4.69,-2.52 6.53,-4.36 1.84,-1.84 3.3,-4.02 4.38,-6.51 1.07,-2.49 1.6,-5.15 1.6,-7.99 v 0" />
        <path
           inkscape:connector-curvature="0"
           id="path891"
           style="fill:#ff0000;fill-opacity:1;fill-rule:evenodd;stroke:none"
           d="m 1519.76,1262.62 c 0,-1.91 -0.24,-3.74 -0.74,-5.48 -0.48,-1.76 -1.15,-3.4 -2.03,-4.93 -0.9,-1.52 -1.96,-2.9 -3.19,-4.12 -1.24,-1.23 -2.61,-2.28 -4.15,-3.16 -1.52,-0.89 -3.16,-1.56 -4.9,-2.05 -1.76,-0.49 -3.59,-0.73 -5.51,-0.73 -2.86,0 -5.54,0.53 -8.02,1.59 -2.48,1.06 -4.64,2.52 -6.49,4.35 -1.85,1.84 -3.3,4.01 -4.35,6.49 -1.05,2.48 -1.58,5.17 -1.58,8.04 0,2.85 0.54,5.5 1.6,7.99 1.06,2.49 2.51,4.67 4.35,6.51 1.83,1.84 4,3.3 6.49,4.37 2.48,1.06 5.16,1.58 8,1.58 2.84,0 5.51,-0.52 8.01,-1.58 2.5,-1.07 4.67,-2.53 6.51,-4.37 1.86,-1.84 3.32,-4.02 4.38,-6.51 1.07,-2.49 1.62,-5.14 1.62,-7.99 v 0" />
        <path
           inkscape:connector-curvature="0"
           id="path893"
           style="fill:#ff0000;fill-opacity:1;fill-rule:evenodd;stroke:none"
           d="m 1538.71,1285.4 c 0,-1.91 -0.24,-3.73 -0.74,-5.49 -0.47,-1.76 -1.15,-3.4 -2.04,-4.92 -0.89,-1.52 -1.95,-2.89 -3.18,-4.12 -1.24,-1.23 -2.61,-2.29 -4.15,-3.17 -1.52,-0.88 -3.16,-1.56 -4.9,-2.05 -1.76,-0.48 -3.6,-0.72 -5.51,-0.72 -2.86,0 -5.54,0.54 -8.02,1.59 -2.48,1.06 -4.64,2.51 -6.49,4.35 -1.85,1.83 -3.3,4 -4.35,6.48 -1.05,2.5 -1.58,5.18 -1.58,8.05 0,2.85 0.54,5.5 1.6,7.99 1.06,2.5 2.51,4.66 4.35,6.5 1.83,1.85 4,3.32 6.49,4.37 2.48,1.06 5.16,1.59 8,1.59 2.85,0 5.51,-0.53 8.01,-1.59 2.5,-1.05 4.67,-2.52 6.51,-4.37 1.86,-1.84 3.32,-4 4.38,-6.5 1.07,-2.49 1.62,-5.14 1.62,-7.99 v 0" />
        <path
           inkscape:connector-curvature="0"
           id="path895"
           style="fill:#ff0000;fill-opacity:1;fill-rule:evenodd;stroke:none"
           d="m 1555.42,1280.93 c 0,-1.9 -0.24,-3.74 -0.73,-5.49 -0.49,-1.76 -1.16,-3.4 -2.04,-4.92 -0.9,-1.51 -1.96,-2.9 -3.19,-4.12 -1.24,-1.23 -2.61,-2.29 -4.15,-3.17 -1.52,-0.88 -3.16,-1.56 -4.9,-2.05 -1.75,-0.47 -3.59,-0.71 -5.5,-0.71 -2.87,0 -5.55,0.52 -8.03,1.59 -2.49,1.05 -4.64,2.5 -6.49,4.34 -1.85,1.83 -3.31,4 -4.35,6.48 -1.05,2.5 -1.58,5.18 -1.58,8.05 0,2.85 0.54,5.5 1.59,7.99 1.06,2.49 2.51,4.66 4.36,6.5 1.83,1.85 3.99,3.32 6.48,4.37 2.49,1.06 5.17,1.59 8.02,1.59 2.83,0 5.5,-0.53 8,-1.59 2.5,-1.05 4.67,-2.52 6.51,-4.37 1.85,-1.84 3.31,-4.01 4.38,-6.5 1.07,-2.49 1.62,-5.14 1.62,-7.99 v 0" />
        <path
           inkscape:connector-curvature="0"
           id="path897"
           style="fill:#ff0000;fill-opacity:1;fill-rule:evenodd;stroke:none"
           d="m 1570.37,1327.12 c 0,-1.92 -0.24,-3.74 -0.74,-5.49 -0.47,-1.76 -1.15,-3.4 -2.04,-4.92 -0.89,-1.53 -1.95,-2.91 -3.18,-4.13 -1.24,-1.23 -2.61,-2.28 -4.15,-3.16 -1.51,-0.89 -3.16,-1.57 -4.9,-2.05 -1.76,-0.49 -3.6,-0.72 -5.51,-0.72 -2.87,0 -5.54,0.52 -8.02,1.58 -2.48,1.06 -4.65,2.52 -6.49,4.35 -1.85,1.84 -3.3,4.01 -4.35,6.49 -1.05,2.48 -1.58,5.17 -1.58,8.05 0,2.83 0.54,5.49 1.6,7.98 1.06,2.49 2.51,4.66 4.35,6.51 1.82,1.84 4,3.3 6.49,4.36 2.48,1.07 5.16,1.59 8,1.59 2.85,0 5.51,-0.52 8.01,-1.59 2.5,-1.06 4.67,-2.52 6.52,-4.36 1.85,-1.85 3.31,-4.02 4.37,-6.51 1.07,-2.49 1.62,-5.15 1.62,-7.98 v 0" />
        <path
           inkscape:connector-curvature="0"
           id="path899"
           style="fill:#ff0000;fill-opacity:1;fill-rule:evenodd;stroke:none"
           d="m 1596.24,1377.53 c 0,-1.91 -0.24,-3.73 -0.74,-5.49 -0.48,-1.76 -1.15,-3.4 -2.03,-4.91 -0.9,-1.53 -1.96,-2.91 -3.19,-4.13 -1.24,-1.23 -2.61,-2.29 -4.15,-3.17 -1.52,-0.88 -3.16,-1.56 -4.9,-2.05 -1.76,-0.48 -3.59,-0.72 -5.51,-0.72 -2.86,0 -5.54,0.53 -8.02,1.6 -2.49,1.05 -4.64,2.5 -6.49,4.34 -1.85,1.83 -3.3,4 -4.35,6.48 -1.05,2.5 -1.58,5.18 -1.58,8.05 0,2.85 0.54,5.5 1.6,7.99 1.05,2.49 2.5,4.66 4.35,6.5 1.83,1.85 3.99,3.32 6.48,4.37 2.49,1.06 5.17,1.59 8.01,1.59 2.84,0 5.51,-0.53 8.01,-1.59 2.5,-1.05 4.67,-2.52 6.51,-4.37 1.85,-1.84 3.31,-4.01 4.38,-6.5 1.07,-2.49 1.62,-5.14 1.62,-7.99 v 0" />
        <path
           inkscape:connector-curvature="0"
           id="path901"
           style="fill:#ff0000;fill-opacity:1;fill-rule:evenodd;stroke:none"
           d="m 1627.9,1375.73 c 0,-1.92 -0.24,-3.75 -0.74,-5.5 -0.48,-1.76 -1.15,-3.4 -2.03,-4.91 -0.9,-1.52 -1.96,-2.91 -3.19,-4.12 -1.24,-1.23 -2.61,-2.3 -4.15,-3.18 -1.52,-0.88 -3.16,-1.56 -4.9,-2.05 -1.76,-0.48 -3.59,-0.71 -5.51,-0.71 -2.86,0 -5.54,0.53 -8.02,1.58 -2.48,1.06 -4.64,2.51 -6.49,4.36 -1.85,1.82 -3.3,3.99 -4.35,6.47 -1.05,2.49 -1.58,5.19 -1.58,8.06 0,2.83 0.54,5.49 1.6,7.99 1.05,2.48 2.5,4.66 4.35,6.49 1.83,1.85 3.99,3.31 6.49,4.37 2.48,1.06 5.16,1.6 8,1.6 2.84,0 5.51,-0.54 8.01,-1.6 2.5,-1.06 4.67,-2.52 6.51,-4.37 1.85,-1.83 3.31,-4.01 4.38,-6.49 1.07,-2.5 1.62,-5.16 1.62,-7.99 v 0" />
        <path
           inkscape:connector-curvature="0"
           id="path903"
           style="fill:#ff0000;fill-opacity:1;fill-rule:evenodd;stroke:none"
           d="m 1653.76,1375.28 c 0,-1.91 -0.23,-3.73 -0.72,-5.49 -0.49,-1.76 -1.16,-3.4 -2.04,-4.92 -0.89,-1.52 -1.96,-2.89 -3.19,-4.12 -1.23,-1.23 -2.61,-2.29 -4.14,-3.17 -1.53,-0.87 -3.17,-1.56 -4.92,-2.05 -1.74,-0.48 -3.58,-0.72 -5.49,-0.72 -2.87,0 -5.55,0.53 -8.04,1.59 -2.48,1.07 -4.63,2.51 -6.48,4.35 -1.86,1.83 -3.31,4 -4.36,6.48 -1.05,2.49 -1.57,5.18 -1.57,8.05 0,2.84 0.53,5.51 1.59,7.99 1.06,2.5 2.51,4.67 4.35,6.5 1.84,1.86 4,3.31 6.49,4.38 2.48,1.05 5.17,1.58 8.02,1.58 2.83,0 5.49,-0.53 7.99,-1.58 2.5,-1.07 4.68,-2.52 6.52,-4.38 1.85,-1.83 3.31,-4 4.38,-6.5 1.07,-2.48 1.61,-5.15 1.61,-7.99 v 0" />
        <path
           inkscape:connector-curvature="0"
           id="path905"
           style="fill:#ff0000;fill-opacity:1;fill-rule:evenodd;stroke:none"
           d="m 1668.72,1425.26 c 0,-1.91 -0.24,-3.73 -0.74,-5.49 -0.48,-1.76 -1.15,-3.4 -2.03,-4.92 -0.9,-1.52 -1.96,-2.89 -3.19,-4.12 -1.24,-1.23 -2.61,-2.29 -4.15,-3.17 -1.52,-0.87 -3.16,-1.56 -4.9,-2.05 -1.76,-0.48 -3.59,-0.72 -5.51,-0.72 -2.86,0 -5.54,0.53 -8.02,1.59 -2.48,1.07 -4.64,2.51 -6.49,4.35 -1.85,1.83 -3.3,4 -4.35,6.48 -1.05,2.49 -1.58,5.18 -1.58,8.05 0,2.84 0.54,5.51 1.6,7.99 1.06,2.5 2.51,4.67 4.35,6.5 1.83,1.86 4,3.31 6.49,4.38 2.48,1.05 5.16,1.58 8,1.58 2.84,0 5.51,-0.53 8.01,-1.58 2.5,-1.07 4.67,-2.52 6.51,-4.38 1.86,-1.83 3.32,-4 4.38,-6.5 1.07,-2.48 1.62,-5.15 1.62,-7.99 v 0" />
        <path
           inkscape:connector-curvature="0"
           id="path907"
           style="fill:#ff0000;fill-opacity:1;fill-rule:evenodd;stroke:none"
           d="m 1694.59,1422.45 c 0,-1.91 -0.23,-3.73 -0.72,-5.49 -0.49,-1.76 -1.16,-3.4 -2.04,-4.92 -0.9,-1.52 -1.96,-2.89 -3.19,-4.12 -1.23,-1.23 -2.61,-2.29 -4.14,-3.17 -1.53,-0.88 -3.17,-1.56 -4.92,-2.05 -1.74,-0.48 -3.58,-0.72 -5.49,-0.72 -2.87,0 -5.55,0.53 -8.04,1.59 -2.48,1.07 -4.63,2.51 -6.48,4.35 -1.86,1.83 -3.31,4 -4.36,6.48 -1.04,2.49 -1.57,5.18 -1.57,8.05 0,2.85 0.53,5.51 1.59,7.99 1.06,2.5 2.51,4.66 4.35,6.5 1.84,1.86 4,3.32 6.49,4.37 2.48,1.06 5.17,1.59 8.02,1.59 2.83,0 5.49,-0.53 7.99,-1.59 2.5,-1.05 4.68,-2.51 6.52,-4.37 1.85,-1.84 3.31,-4 4.38,-6.5 1.07,-2.48 1.61,-5.14 1.61,-7.99 v 0" />
        <path
           inkscape:connector-curvature="0"
           id="path909"
           style="fill:#ff0000;fill-opacity:1;fill-rule:evenodd;stroke:none"
           d="m 1726.25,1438.04 c 0,-1.9 -0.23,-3.74 -0.72,-5.49 -0.49,-1.76 -1.16,-3.4 -2.04,-4.92 -0.9,-1.51 -1.96,-2.9 -3.19,-4.12 -1.23,-1.23 -2.61,-2.29 -4.14,-3.17 -1.53,-0.88 -3.17,-1.56 -4.91,-2.05 -1.75,-0.47 -3.59,-0.72 -5.5,-0.72 -2.87,0 -5.55,0.53 -8.04,1.6 -2.48,1.05 -4.63,2.5 -6.48,4.34 -1.85,1.83 -3.31,4 -4.35,6.48 -1.05,2.5 -1.58,5.18 -1.58,8.05 0,2.85 0.53,5.5 1.59,7.99 1.06,2.49 2.51,4.66 4.36,6.5 1.83,1.85 3.99,3.32 6.48,4.37 2.48,1.06 5.17,1.59 8.02,1.59 2.83,0 5.5,-0.53 8,-1.59 2.5,-1.05 4.67,-2.52 6.51,-4.37 1.85,-1.84 3.31,-4.01 4.38,-6.5 1.07,-2.49 1.61,-5.14 1.61,-7.99 v 0" />
        <path
           inkscape:connector-curvature="0"
           id="path911"
           style="fill:#ff0000;fill-opacity:1;fill-rule:evenodd;stroke:none"
           d="m 1767.08,1504.75 c 0,-1.91 -0.24,-3.74 -0.74,-5.49 -0.48,-1.75 -1.15,-3.39 -2.03,-4.92 -0.9,-1.52 -1.96,-2.9 -3.19,-4.12 -1.24,-1.23 -2.61,-2.28 -4.15,-3.16 -1.52,-0.88 -3.16,-1.57 -4.9,-2.05 -1.76,-0.49 -3.59,-0.73 -5.51,-0.73 -2.86,0 -5.54,0.53 -8.02,1.59 -2.49,1.06 -4.64,2.52 -6.49,4.35 -1.85,1.84 -3.3,4 -4.35,6.49 -1.05,2.48 -1.58,5.17 -1.58,8.04 0,2.84 0.54,5.51 1.59,7.99 1.06,2.49 2.51,4.67 4.36,6.5 1.83,1.86 3.99,3.31 6.48,4.38 2.49,1.05 5.17,1.58 8.01,1.58 2.84,0 5.51,-0.53 8.01,-1.58 2.5,-1.07 4.67,-2.52 6.51,-4.38 1.85,-1.83 3.31,-4.01 4.38,-6.5 1.07,-2.48 1.62,-5.15 1.62,-7.99 v 0" />
        <path
           inkscape:connector-curvature="0"
           id="path913"
           style="fill:#ff0000;fill-opacity:1;fill-rule:evenodd;stroke:none"
           d="m 1798.74,1584.01 c 0,-1.91 -0.24,-3.73 -0.74,-5.49 -0.48,-1.76 -1.15,-3.4 -2.03,-4.92 -0.9,-1.52 -1.96,-2.89 -3.19,-4.12 -1.24,-1.23 -2.61,-2.29 -4.15,-3.17 -1.52,-0.87 -3.16,-1.56 -4.9,-2.05 -1.76,-0.48 -3.59,-0.72 -5.51,-0.72 -2.86,0 -5.54,0.53 -8.02,1.59 -2.49,1.07 -4.64,2.51 -6.49,4.35 -1.85,1.83 -3.3,4 -4.35,6.48 -1.05,2.49 -1.58,5.18 -1.58,8.05 0,2.84 0.54,5.51 1.6,7.99 1.05,2.5 2.5,4.67 4.35,6.5 1.83,1.86 3.99,3.31 6.48,4.38 2.49,1.05 5.17,1.58 8.01,1.58 2.84,0 5.51,-0.53 8.01,-1.58 2.5,-1.07 4.67,-2.52 6.51,-4.38 1.85,-1.83 3.31,-4 4.38,-6.5 1.07,-2.48 1.62,-5.15 1.62,-7.99 v 0" />
        <path
           inkscape:connector-curvature="0"
           id="path915"
           style="fill:#ff0000;fill-opacity:1;fill-rule:evenodd;stroke:none"
           d="m 1824.6,1633.72 c 0,-1.91 -0.23,-3.73 -0.72,-5.49 -0.49,-1.76 -1.17,-3.4 -2.04,-4.92 -0.89,-1.52 -1.96,-2.89 -3.19,-4.12 -1.23,-1.22 -2.61,-2.29 -4.14,-3.17 -1.53,-0.88 -3.17,-1.56 -4.92,-2.05 -1.74,-0.48 -3.58,-0.72 -5.49,-0.72 -2.87,0 -5.56,0.53 -8.04,1.59 -2.48,1.06 -4.63,2.51 -6.48,4.35 -1.86,1.83 -3.31,4 -4.36,6.48 -1.05,2.5 -1.57,5.18 -1.57,8.05 0,2.85 0.53,5.5 1.59,8 1.06,2.49 2.51,4.65 4.35,6.49 1.84,1.85 4,3.32 6.49,4.37 2.48,1.06 5.17,1.59 8.02,1.59 2.83,0 5.49,-0.53 7.99,-1.59 2.5,-1.05 4.69,-2.52 6.52,-4.37 1.85,-1.84 3.31,-4 4.38,-6.49 1.07,-2.5 1.61,-5.15 1.61,-8 v 0" />
        <path
           inkscape:connector-curvature="0"
           id="path917"
           style="fill:#ff0000;fill-opacity:1;fill-rule:evenodd;stroke:none"
           d="m 1846.48,1605.07 c 0,-1.9 -0.23,-3.74 -0.72,-5.49 -0.49,-1.76 -1.17,-3.4 -2.04,-4.92 -0.9,-1.52 -1.96,-2.9 -3.18,-4.12 -1.24,-1.23 -2.62,-2.29 -4.15,-3.17 -1.53,-0.88 -3.17,-1.56 -4.92,-2.05 -1.74,-0.47 -3.58,-0.72 -5.49,-0.72 -2.87,0 -5.56,0.53 -8.04,1.6 -2.48,1.05 -4.63,2.5 -6.48,4.34 -1.86,1.83 -3.31,4 -4.36,6.48 -1.05,2.5 -1.56,5.18 -1.56,8.05 0,2.85 0.52,5.5 1.58,7.99 1.06,2.49 2.51,4.66 4.35,6.5 1.84,1.85 4,3.32 6.49,4.37 2.48,1.06 5.17,1.59 8.02,1.59 2.83,0 5.49,-0.53 7.99,-1.59 2.5,-1.05 4.68,-2.52 6.52,-4.37 1.85,-1.84 3.31,-4.01 4.38,-6.5 1.08,-2.49 1.61,-5.14 1.61,-7.99 v 0" />
        <path
           inkscape:connector-curvature="0"
           id="path919"
           style="fill:#ff0000;fill-opacity:1;fill-rule:evenodd;stroke:none"
           d="m 1889.81,1669.56 c 0,-1.92 -0.23,-3.75 -0.72,-5.49 -0.49,-1.77 -1.17,-3.4 -2.04,-4.92 -0.89,-1.53 -1.96,-2.91 -3.18,-4.12 -1.25,-1.23 -2.62,-2.3 -4.16,-3.18 -1.52,-0.88 -3.16,-1.56 -4.9,-2.05 -1.76,-0.48 -3.59,-0.71 -5.51,-0.71 -2.86,0 -5.55,0.53 -8.03,1.58 -2.48,1.05 -4.63,2.52 -6.48,4.36 -1.86,1.82 -3.31,4 -4.36,6.48 -1.05,2.48 -1.56,5.18 -1.56,8.05 0,2.83 0.52,5.49 1.58,7.99 1.06,2.48 2.51,4.65 4.35,6.5 1.84,1.84 4,3.3 6.49,4.36 2.48,1.07 5.17,1.6 8.01,1.6 2.84,0 5.51,-0.53 8.01,-1.6 2.5,-1.06 4.67,-2.52 6.51,-4.36 1.85,-1.85 3.31,-4.02 4.39,-6.5 1.07,-2.5 1.6,-5.16 1.6,-7.99 v 0" />
        <path
           inkscape:connector-curvature="0"
           id="path921"
           style="fill:#ff0000;fill-opacity:1;fill-rule:evenodd;stroke:none"
           d="m 1897.09,1687.43 c 0,-1.91 -0.23,-3.73 -0.72,-5.49 -0.49,-1.76 -1.17,-3.4 -2.05,-4.92 -0.88,-1.52 -1.95,-2.89 -3.18,-4.12 -1.23,-1.23 -2.62,-2.29 -4.14,-3.17 -1.53,-0.88 -3.17,-1.56 -4.92,-2.05 -1.74,-0.48 -3.58,-0.72 -5.49,-0.72 -2.87,0 -5.55,0.53 -8.03,1.59 -2.49,1.07 -4.64,2.51 -6.49,4.35 -1.86,1.83 -3.31,4 -4.36,6.48 -1.04,2.49 -1.57,5.18 -1.57,8.05 0,2.85 0.53,5.51 1.59,7.99 1.06,2.5 2.51,4.66 4.35,6.5 1.84,1.86 4,3.31 6.5,4.38 2.48,1.05 5.16,1.58 8.01,1.58 2.83,0 5.49,-0.53 7.99,-1.58 2.5,-1.07 4.68,-2.52 6.52,-4.38 1.85,-1.84 3.32,-4 4.38,-6.5 1.07,-2.48 1.61,-5.14 1.61,-7.99 v 0" />
        <path
           inkscape:connector-curvature="0"
           id="path923"
           style="fill:#ff0000;fill-opacity:1;fill-rule:evenodd;stroke:none"
           d="m 1922.96,1688.54 c 0,-1.91 -0.24,-3.74 -0.73,-5.49 -0.48,-1.75 -1.15,-3.4 -2.03,-4.92 -0.9,-1.52 -1.95,-2.9 -3.18,-4.12 -1.24,-1.23 -2.62,-2.29 -4.15,-3.16 -1.52,-0.88 -3.16,-1.57 -4.92,-2.05 -1.74,-0.49 -3.59,-0.73 -5.49,-0.73 -2.88,0 -5.56,0.53 -8.04,1.58 -2.48,1.08 -4.63,2.52 -6.49,4.36 -1.85,1.84 -3.3,4 -4.35,6.48 -1.05,2.49 -1.56,5.18 -1.56,8.05 0,2.84 0.52,5.51 1.58,7.99 1.06,2.5 2.52,4.67 4.35,6.5 1.84,1.86 4.01,3.31 6.49,4.38 2.48,1.05 5.16,1.58 8.02,1.58 2.84,0 5.49,-0.53 7.99,-1.58 2.5,-1.07 4.69,-2.52 6.53,-4.38 1.84,-1.83 3.3,-4 4.37,-6.5 1.08,-2.48 1.61,-5.15 1.61,-7.99 v 0" />
        <path
           inkscape:connector-curvature="0"
           id="path925"
           style="fill:#ff0000;fill-opacity:1;fill-rule:evenodd;stroke:none"
           d="m 2005.71,1816.59 c 0,-1.92 -0.25,-3.75 -0.73,-5.49 -0.48,-1.77 -1.17,-3.41 -2.05,-4.92 -0.88,-1.53 -1.95,-2.91 -3.18,-4.12 -1.23,-1.23 -2.62,-2.3 -4.14,-3.18 -1.52,-0.89 -3.16,-1.56 -4.92,-2.05 -1.74,-0.48 -3.59,-0.71 -5.49,-0.71 -2.87,0 -5.56,0.53 -8.04,1.58 -2.48,1.06 -4.64,2.51 -6.49,4.36 -1.85,1.82 -3.3,3.99 -4.35,6.47 -1.04,2.49 -1.57,5.19 -1.57,8.06 0,2.83 0.53,5.49 1.59,7.99 1.07,2.48 2.51,4.65 4.35,6.5 1.83,1.84 4,3.3 6.49,4.36 2.48,1.07 5.17,1.6 8.02,1.6 2.83,0 5.49,-0.53 7.99,-1.6 2.5,-1.06 4.69,-2.52 6.52,-4.36 1.86,-1.85 3.32,-4.02 4.39,-6.5 1.06,-2.5 1.61,-5.16 1.61,-7.99 v 0" />
        <path
           inkscape:connector-curvature="0"
           id="path927"
           style="fill:#ff0000;fill-opacity:1;fill-rule:evenodd;stroke:none"
           d="m 2491.59,2684.52 c 0,-1.91 -0.24,-3.73 -0.73,-5.49 -0.48,-1.76 -1.17,-3.4 -2.05,-4.92 -0.89,-1.52 -1.95,-2.89 -3.18,-4.12 -1.23,-1.23 -2.62,-2.29 -4.14,-3.17 -1.52,-0.87 -3.16,-1.56 -4.92,-2.05 -1.74,-0.48 -3.58,-0.72 -5.49,-0.72 -2.87,0 -5.55,0.52 -8.03,1.59 -2.48,1.07 -4.65,2.51 -6.5,4.35 -1.84,1.83 -3.3,4 -4.34,6.48 -1.05,2.49 -1.58,5.18 -1.58,8.05 0,2.85 0.53,5.51 1.6,7.99 1.06,2.5 2.5,4.67 4.34,6.5 1.83,1.86 4,3.32 6.5,4.38 2.48,1.05 5.16,1.58 8.01,1.58 2.83,0 5.49,-0.53 7.99,-1.58 2.5,-1.06 4.68,-2.52 6.52,-4.38 1.86,-1.83 3.32,-4 4.38,-6.5 1.07,-2.48 1.62,-5.14 1.62,-7.99 v 0" />
        <path
           inkscape:connector-curvature="0"
           id="path929"
           style="fill:#ff0000;fill-opacity:1;fill-rule:evenodd;stroke:none"
           d="m 2460.45,2555.89 c 0,-1.91 -0.23,-3.73 -0.72,-5.49 -0.49,-1.76 -1.17,-3.4 -2.05,-4.92 -0.88,-1.52 -1.95,-2.89 -3.18,-4.12 -1.23,-1.23 -2.62,-2.29 -4.14,-3.17 -1.53,-0.88 -3.17,-1.56 -4.91,-2.05 -1.75,-0.47 -3.59,-0.72 -5.5,-0.72 -2.87,0 -5.55,0.53 -8.03,1.6 -2.48,1.05 -4.65,2.5 -6.5,4.34 -1.84,1.83 -3.29,4 -4.34,6.48 -1.06,2.5 -1.58,5.18 -1.58,8.05 0,2.85 0.54,5.5 1.6,7.99 1.05,2.5 2.5,4.66 4.35,6.5 1.82,1.85 3.99,3.32 6.49,4.37 2.48,1.06 5.15,1.59 8.01,1.59 2.83,0 5.5,-0.53 8,-1.59 2.5,-1.05 4.67,-2.52 6.51,-4.37 1.85,-1.84 3.32,-4 4.39,-6.5 1.06,-2.49 1.6,-5.14 1.6,-7.99 v 0" />
        <path
           inkscape:connector-curvature="0"
           id="path931"
           style="fill:#ff0000;fill-opacity:1;fill-rule:evenodd;stroke:none"
           d="m 2425.75,2513.76 c 0,-1.91 -0.24,-3.73 -0.73,-5.49 -0.48,-1.76 -1.15,-3.4 -2.03,-4.92 -0.9,-1.52 -1.95,-2.89 -3.18,-4.12 -1.25,-1.23 -2.62,-2.29 -4.16,-3.17 -1.52,-0.88 -3.16,-1.56 -4.9,-2.05 -1.76,-0.48 -3.6,-0.72 -5.51,-0.72 -2.87,0 -5.55,0.53 -8.03,1.6 -2.48,1.06 -4.63,2.5 -6.48,4.34 -1.86,1.83 -3.3,4 -4.36,6.48 -1.05,2.5 -1.56,5.18 -1.56,8.05 0,2.85 0.53,5.51 1.58,7.99 1.06,2.49 2.52,4.66 4.36,6.5 1.83,1.86 4,3.32 6.48,4.38 2.48,1.05 5.16,1.58 8.01,1.58 2.85,0 5.51,-0.53 8.01,-1.58 2.5,-1.06 4.67,-2.52 6.52,-4.38 1.84,-1.84 3.3,-4.01 4.38,-6.5 1.07,-2.48 1.6,-5.14 1.6,-7.99 v 0" />
        <path
           inkscape:connector-curvature="0"
           id="path933"
           style="fill:#ff0000;fill-opacity:1;fill-rule:evenodd;stroke:none"
           d="m 2382.06,2357.64 c 0,-1.91 -0.24,-3.74 -0.73,-5.48 -0.49,-1.76 -1.17,-3.4 -2.05,-4.93 -0.88,-1.52 -1.95,-2.9 -3.18,-4.12 -1.23,-1.23 -2.62,-2.29 -4.14,-3.16 -1.53,-0.89 -3.17,-1.56 -4.92,-2.05 -1.74,-0.49 -3.58,-0.72 -5.49,-0.72 -2.87,0 -5.55,0.52 -8.03,1.58 -2.48,1.06 -4.65,2.52 -6.5,4.35 -1.84,1.84 -3.3,4.01 -4.34,6.49 -1.05,2.47 -1.58,5.17 -1.58,8.04 0,2.84 0.53,5.5 1.6,7.99 1.05,2.49 2.5,4.67 4.34,6.51 1.83,1.84 4,3.3 6.5,4.37 2.48,1.06 5.16,1.58 8.01,1.58 2.83,0 5.49,-0.52 7.99,-1.58 2.5,-1.07 4.68,-2.53 6.52,-4.37 1.86,-1.84 3.32,-4.02 4.39,-6.51 1.06,-2.49 1.61,-5.15 1.61,-7.99 v 0" />
        <path
           inkscape:connector-curvature="0"
           id="path935"
           style="fill:#ff0000;fill-opacity:1;fill-rule:evenodd;stroke:none"
           d="m 2342,2328.6 c 0,-1.91 -0.24,-3.73 -0.73,-5.49 -0.48,-1.75 -1.15,-3.4 -2.03,-4.92 -0.9,-1.52 -1.95,-2.89 -3.18,-4.12 -1.25,-1.23 -2.62,-2.29 -4.16,-3.16 -1.52,-0.88 -3.16,-1.57 -4.9,-2.05 -1.76,-0.49 -3.6,-0.73 -5.51,-0.73 -2.87,0 -5.55,0.53 -8.03,1.59 -2.48,1.07 -4.63,2.51 -6.48,4.35 -1.86,1.84 -3.3,4 -4.36,6.48 -1.05,2.49 -1.56,5.18 -1.56,8.05 0,2.84 0.53,5.51 1.58,7.99 1.06,2.5 2.52,4.67 4.36,6.5 1.83,1.86 4,3.31 6.48,4.38 2.48,1.05 5.16,1.58 8.01,1.58 2.85,0 5.51,-0.53 8.01,-1.58 2.5,-1.07 4.67,-2.52 6.52,-4.38 1.84,-1.83 3.3,-4 4.38,-6.5 1.07,-2.48 1.6,-5.15 1.6,-7.99 v 0" />
        <path
           inkscape:connector-curvature="0"
           id="path937"
           style="fill:#ff0000;fill-opacity:1;fill-rule:evenodd;stroke:none"
           d="m 2322.17,2251.44 c 0,-1.9 -0.23,-3.74 -0.72,-5.49 -0.49,-1.76 -1.17,-3.4 -2.05,-4.92 -0.88,-1.51 -1.95,-2.9 -3.18,-4.11 -1.23,-1.23 -2.62,-2.3 -4.14,-3.18 -1.53,-0.88 -3.17,-1.56 -4.91,-2.05 -1.75,-0.47 -3.59,-0.72 -5.5,-0.72 -2.88,0 -5.55,0.54 -8.03,1.6 -2.48,1.05 -4.65,2.5 -6.49,4.35 -1.85,1.82 -3.3,3.99 -4.35,6.47 -1.06,2.5 -1.58,5.19 -1.58,8.05 0,2.84 0.54,5.5 1.6,8 1.05,2.48 2.5,4.65 4.35,6.49 1.82,1.85 3.99,3.32 6.49,4.37 2.48,1.06 5.15,1.59 8.01,1.59 2.83,0 5.5,-0.53 8,-1.59 2.5,-1.05 4.67,-2.52 6.51,-4.37 1.85,-1.84 3.32,-4.01 4.39,-6.49 1.06,-2.5 1.6,-5.16 1.6,-8 v 0" />
        <path
           inkscape:connector-curvature="0"
           id="path939"
           style="fill:#ff0000;fill-opacity:1;fill-rule:evenodd;stroke:none"
           d="m 2299.11,2340.85 c 0,-1.92 -0.24,-3.75 -0.73,-5.49 -0.48,-1.76 -1.15,-3.4 -2.03,-4.92 -0.9,-1.53 -1.95,-2.91 -3.18,-4.12 -1.25,-1.23 -2.62,-2.29 -4.16,-3.18 -1.52,-0.88 -3.15,-1.56 -4.9,-2.04 -1.76,-0.49 -3.6,-0.72 -5.51,-0.72 -2.87,0 -5.55,0.53 -8.03,1.58 -2.48,1.06 -4.63,2.52 -6.48,4.36 -1.86,1.82 -3.3,4 -4.36,6.48 -1.05,2.48 -1.56,5.18 -1.56,8.05 0,2.83 0.53,5.49 1.58,7.99 1.06,2.48 2.52,4.65 4.36,6.5 1.83,1.84 4,3.3 6.48,4.36 2.48,1.07 5.16,1.6 8.01,1.6 2.85,0 5.51,-0.53 8.01,-1.6 2.5,-1.06 4.68,-2.52 6.52,-4.36 1.84,-1.85 3.3,-4.02 4.37,-6.5 1.08,-2.5 1.61,-5.16 1.61,-7.99 v 0" />
        <path
           inkscape:connector-curvature="0"
           id="path941"
           style="fill:#ff0000;fill-opacity:1;fill-rule:evenodd;stroke:none"
           d="m 2261.04,2306.3 c 0,-1.92 -0.23,-3.75 -0.72,-5.49 -0.49,-1.76 -1.17,-3.4 -2.05,-4.92 -0.88,-1.53 -1.94,-2.91 -3.17,-4.12 -1.25,-1.24 -2.63,-2.29 -4.16,-3.17 -1.52,-0.89 -3.16,-1.57 -4.9,-2.05 -1.76,-0.49 -3.59,-0.73 -5.51,-0.73 -2.87,0 -5.54,0.54 -8.03,1.59 -2.48,1.06 -4.64,2.52 -6.48,4.36 -1.85,1.83 -3.3,4 -4.35,6.48 -1.06,2.48 -1.57,5.18 -1.57,8.05 0,2.83 0.53,5.49 1.58,7.98 1.06,2.49 2.52,4.66 4.36,6.51 1.82,1.84 4,3.3 6.48,4.36 2.48,1.07 5.16,1.6 8.01,1.6 2.85,0 5.51,-0.53 8.01,-1.6 2.5,-1.06 4.67,-2.52 6.52,-4.36 1.84,-1.85 3.3,-4.02 4.38,-6.51 1.07,-2.49 1.6,-5.15 1.6,-7.98 v 0" />
        <path
           inkscape:connector-curvature="0"
           id="path943"
           style="fill:#ff0000;fill-opacity:1;fill-rule:evenodd;stroke:none"
           d="m 2230.75,2173.68 c 0,-1.91 -0.24,-3.75 -0.73,-5.49 -0.48,-1.77 -1.17,-3.41 -2.05,-4.92 -0.89,-1.52 -1.95,-2.91 -3.18,-4.12 -1.23,-1.23 -2.62,-2.3 -4.14,-3.18 -1.52,-0.88 -3.16,-1.56 -4.92,-2.05 -1.74,-0.47 -3.58,-0.71 -5.49,-0.71 -2.87,0 -5.55,0.53 -8.03,1.58 -2.48,1.06 -4.65,2.51 -6.5,4.36 -1.84,1.82 -3.3,3.99 -4.34,6.47 -1.05,2.49 -1.58,5.19 -1.58,8.06 0,2.83 0.53,5.49 1.6,7.99 1.06,2.48 2.5,4.65 4.34,6.5 1.83,1.84 4,3.3 6.5,4.36 2.48,1.07 5.16,1.6 8.01,1.6 2.83,0 5.49,-0.53 7.99,-1.6 2.5,-1.06 4.69,-2.52 6.52,-4.36 1.86,-1.85 3.32,-4.02 4.38,-6.5 1.07,-2.5 1.62,-5.16 1.62,-7.99 v 0" />
        <path
           inkscape:connector-curvature="0"
           id="path945"
           style="fill:#ff0000;fill-opacity:1;fill-rule:evenodd;stroke:none"
           d="m 2208.87,2113.25 c 0,-1.91 -0.25,-3.75 -0.74,-5.49 -0.47,-1.77 -1.15,-3.41 -2.03,-4.92 -0.9,-1.53 -1.95,-2.91 -3.18,-4.12 -1.25,-1.23 -2.62,-2.3 -4.15,-3.18 -1.52,-0.89 -3.16,-1.56 -4.92,-2.05 -1.74,-0.48 -3.59,-0.71 -5.49,-0.71 -2.87,0 -5.56,0.53 -8.04,1.58 -2.48,1.06 -4.63,2.51 -6.49,4.36 -1.85,1.82 -3.3,3.99 -4.35,6.47 -1.05,2.49 -1.56,5.19 -1.56,8.06 0,2.83 0.52,5.49 1.59,7.99 1.06,2.48 2.51,4.65 4.34,6.49 1.84,1.84 4.01,3.31 6.49,4.37 2.48,1.07 5.17,1.6 8.02,1.6 2.84,0 5.49,-0.53 7.99,-1.6 2.5,-1.06 4.69,-2.53 6.53,-4.37 1.85,-1.84 3.3,-4.01 4.37,-6.49 1.08,-2.5 1.62,-5.16 1.62,-7.99 v 0" />
        <path
           inkscape:connector-curvature="0"
           id="path947"
           style="fill:#ff0000;fill-opacity:1;fill-rule:evenodd;stroke:none"
           d="m 2189.48,2089.58 c 0,-1.91 -0.24,-3.73 -0.74,-5.49 -0.47,-1.76 -1.16,-3.4 -2.04,-4.92 -0.89,-1.52 -1.95,-2.89 -3.18,-4.12 -1.23,-1.23 -2.62,-2.29 -4.14,-3.17 -1.52,-0.88 -3.16,-1.56 -4.92,-2.05 -1.74,-0.48 -3.58,-0.72 -5.49,-0.72 -2.87,0 -5.56,0.53 -8.03,1.6 -2.48,1.05 -4.65,2.5 -6.5,4.34 -1.84,1.83 -3.3,4 -4.35,6.48 -1.04,2.5 -1.57,5.18 -1.57,8.05 0,2.85 0.53,5.5 1.6,7.99 1.06,2.49 2.5,4.66 4.34,6.5 1.83,1.86 4,3.32 6.5,4.38 2.48,1.05 5.16,1.58 8.01,1.58 2.83,0 5.49,-0.53 7.99,-1.58 2.5,-1.06 4.69,-2.52 6.52,-4.38 1.86,-1.84 3.32,-4.01 4.38,-6.5 1.07,-2.49 1.62,-5.14 1.62,-7.99 v 0" />
        <path
           inkscape:connector-curvature="0"
           id="path949"
           style="fill:#ff0000;fill-opacity:1;fill-rule:evenodd;stroke:none"
           d="m 2167,2017.43 c 0,-1.92 -0.25,-3.75 -0.74,-5.49 -0.47,-1.77 -1.16,-3.41 -2.04,-4.92 -0.89,-1.53 -1.95,-2.91 -3.18,-4.12 -1.23,-1.23 -2.62,-2.3 -4.14,-3.18 -1.52,-0.89 -3.16,-1.56 -4.92,-2.05 -1.74,-0.48 -3.59,-0.71 -5.49,-0.71 -2.87,0 -5.55,0.53 -8.03,1.58 -2.48,1.06 -4.65,2.51 -6.5,4.36 -1.84,1.82 -3.29,3.99 -4.34,6.47 -1.05,2.49 -1.58,5.19 -1.58,8.06 0,2.83 0.54,5.49 1.6,7.99 1.06,2.48 2.5,4.65 4.34,6.5 1.83,1.84 4,3.3 6.5,4.36 2.48,1.07 5.16,1.6 8.01,1.6 2.83,0 5.49,-0.53 7.99,-1.6 2.5,-1.06 4.69,-2.52 6.52,-4.36 1.86,-1.85 3.32,-4.02 4.39,-6.5 1.06,-2.5 1.61,-5.16 1.61,-7.99 v 0" />
        <path
           inkscape:connector-curvature="0"
           id="path951"
           style="fill:#ff0000;fill-opacity:1;fill-rule:evenodd;stroke:none"
           d="m 2138.99,1993.81 c 0,-1.91 -0.24,-3.74 -0.73,-5.48 -0.48,-1.76 -1.17,-3.4 -2.04,-4.93 -0.9,-1.52 -1.96,-2.9 -3.19,-4.12 -1.23,-1.23 -2.61,-2.28 -4.14,-3.16 -1.52,-0.89 -3.16,-1.57 -4.92,-2.05 -1.74,-0.49 -3.58,-0.72 -5.49,-0.72 -2.87,0 -5.56,0.52 -8.04,1.58 -2.48,1.06 -4.63,2.52 -6.49,4.35 -1.85,1.84 -3.3,4.01 -4.35,6.49 -1.04,2.48 -1.57,5.17 -1.57,8.04 0,2.84 0.53,5.5 1.59,7.99 1.07,2.49 2.51,4.66 4.35,6.51 1.84,1.84 4,3.3 6.49,4.36 2.48,1.07 5.17,1.59 8.02,1.59 2.83,0 5.49,-0.52 7.99,-1.59 2.5,-1.06 4.69,-2.52 6.52,-4.36 1.86,-1.85 3.31,-4.02 4.38,-6.51 1.07,-2.49 1.62,-5.15 1.62,-7.99 v 0" />
        <path
           inkscape:connector-curvature="0"
           id="path953"
           style="fill:#ff0000;fill-opacity:1;fill-rule:evenodd;stroke:none"
           d="m 2093.8,1918.29 c 0,-1.92 -0.24,-3.75 -0.73,-5.49 -0.48,-1.77 -1.15,-3.41 -2.03,-4.92 -0.9,-1.53 -1.95,-2.91 -3.18,-4.12 -1.24,-1.23 -2.62,-2.3 -4.15,-3.18 -1.52,-0.89 -3.16,-1.56 -4.92,-2.05 -1.74,-0.48 -3.59,-0.71 -5.49,-0.71 -2.88,0 -5.56,0.53 -8.04,1.58 -2.48,1.06 -4.63,2.52 -6.49,4.36 -1.85,1.82 -3.3,4 -4.35,6.47 -1.05,2.49 -1.56,5.19 -1.56,8.06 0,2.83 0.52,5.49 1.58,7.99 1.06,2.48 2.52,4.65 4.35,6.5 1.84,1.84 4.01,3.3 6.49,4.36 2.48,1.07 5.16,1.6 8.02,1.6 2.84,0 5.49,-0.53 7.99,-1.6 2.5,-1.06 4.69,-2.52 6.53,-4.36 1.84,-1.85 3.3,-4.02 4.37,-6.5 1.08,-2.5 1.61,-5.16 1.61,-7.99 v 0" />
        <path
           inkscape:connector-curvature="0"
           id="path955"
           style="fill:#ff0000;fill-opacity:1;fill-rule:evenodd;stroke:none"
           d="m 2052.98,1867.7 c 0,-1.91 -0.24,-3.74 -0.73,-5.49 -0.47,-1.75 -1.15,-3.4 -2.03,-4.92 -0.9,-1.52 -1.95,-2.9 -3.18,-4.12 -1.24,-1.23 -2.62,-2.28 -4.15,-3.16 -1.52,-0.88 -3.16,-1.57 -4.92,-2.05 -1.74,-0.49 -3.59,-0.73 -5.49,-0.73 -2.88,0 -5.56,0.53 -8.04,1.58 -2.48,1.08 -4.63,2.52 -6.49,4.36 -1.85,1.84 -3.3,4 -4.35,6.48 -1.05,2.49 -1.56,5.18 -1.56,8.05 0,2.84 0.52,5.51 1.58,7.99 1.07,2.5 2.52,4.67 4.35,6.5 1.84,1.86 4.01,3.31 6.49,4.38 2.48,1.05 5.16,1.58 8.02,1.58 2.84,0 5.49,-0.53 7.99,-1.58 2.5,-1.07 4.69,-2.52 6.53,-4.38 1.84,-1.83 3.3,-4 4.37,-6.5 1.08,-2.48 1.61,-5.15 1.61,-7.99 v 0" />
        <path
           inkscape:connector-curvature="0"
           id="path957"
           style="fill:#ff0000;fill-opacity:1;fill-rule:evenodd;stroke:none"
           d="m 2027.1,1874.44 c 0,-1.91 -0.24,-3.73 -0.73,-5.49 -0.48,-1.76 -1.15,-3.4 -2.03,-4.92 -0.9,-1.52 -1.95,-2.89 -3.18,-4.12 -1.24,-1.23 -2.62,-2.29 -4.15,-3.17 -1.53,-0.87 -3.17,-1.56 -4.92,-2.05 -1.74,-0.48 -3.59,-0.72 -5.49,-0.72 -2.87,0 -5.56,0.53 -8.04,1.59 -2.48,1.07 -4.63,2.51 -6.48,4.35 -1.86,1.83 -3.31,4 -4.36,6.48 -1.05,2.49 -1.56,5.18 -1.56,8.05 0,2.84 0.52,5.51 1.58,7.99 1.06,2.5 2.52,4.67 4.35,6.5 1.84,1.86 4.01,3.31 6.49,4.38 2.48,1.05 5.17,1.58 8.02,1.58 2.84,0 5.49,-0.53 7.99,-1.58 2.5,-1.07 4.69,-2.52 6.53,-4.38 1.84,-1.83 3.3,-4 4.37,-6.5 1.08,-2.48 1.61,-5.15 1.61,-7.99 v 0" />
        <path
           inkscape:connector-curvature="0"
           id="path959"
           style="fill:#ff0000;fill-opacity:1;fill-rule:evenodd;stroke:none"
           d="m 1980.49,1759.56 c 0,-1.92 -0.23,-3.75 -0.72,-5.49 -0.49,-1.77 -1.17,-3.4 -2.05,-4.92 -0.88,-1.53 -1.94,-2.91 -3.17,-4.12 -1.24,-1.23 -2.63,-2.3 -4.15,-3.18 -1.53,-0.88 -3.17,-1.56 -4.92,-2.05 -1.74,-0.48 -3.58,-0.71 -5.49,-0.71 -2.88,0 -5.55,0.53 -8.03,1.58 -2.48,1.05 -4.65,2.52 -6.5,4.36 -1.84,1.82 -3.3,4 -4.34,6.48 -1.06,2.48 -1.57,5.18 -1.57,8.05 0,2.83 0.52,5.49 1.59,7.99 1.05,2.48 2.5,4.65 4.34,6.5 1.83,1.84 4,3.3 6.5,4.36 2.48,1.07 5.15,1.6 8.01,1.6 2.84,0 5.49,-0.53 7.99,-1.6 2.5,-1.06 4.68,-2.52 6.53,-4.36 1.84,-1.85 3.31,-4.02 4.38,-6.5 1.07,-2.5 1.6,-5.16 1.6,-7.99 v 0" />
        <path
           inkscape:connector-curvature="0"
           id="path961"
           style="fill:#ff0000;fill-opacity:1;fill-rule:evenodd;stroke:none"
           d="m 1949.81,1745.83 c 0,-1.92 -0.23,-3.75 -0.72,-5.49 -0.49,-1.77 -1.17,-3.4 -2.04,-4.92 -0.89,-1.53 -1.96,-2.91 -3.18,-4.12 -1.25,-1.24 -2.62,-2.29 -4.16,-3.18 -1.52,-0.88 -3.16,-1.56 -4.9,-2.04 -1.76,-0.49 -3.59,-0.72 -5.51,-0.72 -2.87,0 -5.55,0.53 -8.03,1.58 -2.48,1.05 -4.63,2.52 -6.48,4.36 -1.86,1.82 -3.3,4 -4.36,6.48 -1.05,2.48 -1.56,5.18 -1.56,8.05 0,2.83 0.53,5.49 1.58,7.98 1.06,2.49 2.51,4.66 4.36,6.51 1.83,1.84 3.99,3.3 6.48,4.36 2.48,1.07 5.16,1.6 8.01,1.6 2.84,0 5.51,-0.53 8.01,-1.6 2.5,-1.06 4.67,-2.52 6.51,-4.36 1.85,-1.85 3.31,-4.02 4.39,-6.51 1.07,-2.49 1.6,-5.15 1.6,-7.98 v 0" />
        <path
           inkscape:connector-curvature="0"
           id="path963"
           style="fill:#ff0000;fill-opacity:1;fill-rule:evenodd;stroke:none"
           d="m 1910.61,1681.59 c 0,-1.92 -0.23,-3.75 -0.72,-5.49 -0.49,-1.77 -1.16,-3.41 -2.04,-4.92 -0.89,-1.53 -1.96,-2.91 -3.19,-4.12 -1.24,-1.23 -2.61,-2.3 -4.15,-3.18 -1.52,-0.89 -3.16,-1.56 -4.9,-2.05 -1.76,-0.48 -3.59,-0.71 -5.51,-0.71 -2.87,0 -5.54,0.53 -8.02,1.58 -2.49,1.06 -4.64,2.51 -6.49,4.36 -1.85,1.82 -3.3,3.99 -4.35,6.47 -1.06,2.49 -1.58,5.19 -1.58,8.06 0,2.83 0.54,5.49 1.59,7.99 1.06,2.48 2.51,4.65 4.36,6.5 1.83,1.84 3.99,3.3 6.48,4.36 2.49,1.07 5.16,1.6 8.01,1.6 2.84,0 5.51,-0.53 8.01,-1.6 2.5,-1.06 4.67,-2.52 6.51,-4.36 1.85,-1.85 3.31,-4.02 4.39,-6.5 1.06,-2.5 1.6,-5.16 1.6,-7.99 v 0" />
        <path
           inkscape:connector-curvature="0"
           id="path965"
           style="fill:#ff0000;fill-opacity:1;fill-rule:evenodd;stroke:none"
           d="m 1157.51,1172.67 c 0,-1.9 -0.23,-3.74 -0.72,-5.49 -0.49,-1.76 -1.16,-3.4 -2.04,-4.92 -0.89,-1.51 -1.96,-2.9 -3.19,-4.12 -1.23,-1.22 -2.61,-2.29 -4.14,-3.17 -1.53,-0.88 -3.17,-1.57 -4.92,-2.05 -1.74,-0.47 -3.58,-0.72 -5.49,-0.72 -2.87,0 -5.55,0.53 -8.04,1.6 -2.48,1.05 -4.63,2.5 -6.48,4.34 -1.86,1.83 -3.31,4 -4.36,6.48 -1.05,2.5 -1.57,5.18 -1.57,8.05 0,2.84 0.53,5.5 1.59,8 1.06,2.48 2.51,4.65 4.35,6.49 1.84,1.85 4,3.31 6.49,4.37 2.48,1.06 5.17,1.59 8.02,1.59 2.83,0 5.49,-0.53 7.99,-1.59 2.5,-1.06 4.68,-2.52 6.52,-4.37 1.85,-1.84 3.31,-4.01 4.38,-6.49 1.07,-2.5 1.61,-5.16 1.61,-8 v 0" />
        <path
           inkscape:connector-curvature="0"
           id="path967"
           style="fill:#ff0000;fill-opacity:1;fill-rule:evenodd;stroke:none"
           d="m 1135.6,1112.22 c 0,-1.9 -0.24,-3.74 -0.74,-5.49 -0.48,-1.76 -1.15,-3.4 -2.03,-4.92 -0.9,-1.51 -1.96,-2.9 -3.19,-4.12 -1.24,-1.23 -2.61,-2.29 -4.15,-3.17 -1.52,-0.88 -3.16,-1.56 -4.9,-2.05 -1.76,-0.47 -3.59,-0.72 -5.51,-0.72 -2.86,0 -5.54,0.53 -8.02,1.6 -2.48,1.05 -4.64,2.5 -6.49,4.34 -1.85,1.83 -3.3,4 -4.35,6.48 -1.05,2.5 -1.58,5.18 -1.58,8.05 0,2.84 0.54,5.5 1.6,7.99 1.05,2.49 2.51,4.66 4.35,6.51 1.83,1.84 3.99,3.31 6.49,4.36 2.48,1.06 5.16,1.59 8,1.59 2.84,0 5.51,-0.53 8.01,-1.59 2.5,-1.05 4.67,-2.52 6.51,-4.36 1.86,-1.85 3.32,-4.02 4.38,-6.51 1.07,-2.49 1.62,-5.15 1.62,-7.99 v 0" />
        <path
           inkscape:connector-curvature="0"
           id="path969"
           style="fill:#ff0000;fill-opacity:1;fill-rule:evenodd;stroke:none"
           d="m 1015.26,979.852 c 0,-1.911 -0.24,-3.731 -0.72,-5.493 -0.49,-1.757 -1.17,-3.398 -2.04,-4.918 -0.89,-1.519 -1.95,-2.89 -3.18,-4.121 -1.24,-1.23 -2.63,-2.289 -4.15,-3.172 -1.53,-0.867 -3.16,-1.558 -4.92,-2.046 -1.742,-0.481 -3.586,-0.723 -5.492,-0.723 -2.871,0 -5.555,0.531 -8.035,1.59 -2.481,1.07 -4.637,2.511 -6.489,4.351 -1.851,1.828 -3.3,4 -4.351,6.481 -1.047,2.488 -1.567,5.179 -1.567,8.051 0,2.839 0.528,5.507 1.586,7.988 1.063,2.5 2.512,4.672 4.352,6.5 1.832,1.859 4,3.308 6.488,4.379 2.481,1.051 5.16,1.581 8.016,1.581 2.836,0 5.492,-0.53 7.992,-1.581 2.5,-1.071 4.69,-2.52 6.53,-4.379 1.84,-1.828 3.3,-4 4.38,-6.5 1.07,-2.481 1.6,-5.149 1.6,-7.988 v 0" />
        <path
           inkscape:connector-curvature="0"
           id="path971"
           style="fill:#00ff00;fill-opacity:1;fill-rule:evenodd;stroke:none"
           d="m 1598.84,1274.34 h 35.5117 v 35.2813 H 1598.84 Z" />
        <path
           inkscape:connector-curvature="0"
           id="path973"
           style="fill:#00ff00;fill-opacity:1;fill-rule:evenodd;stroke:none"
           d="m 1379.08,1358.38 h 35.4961 v 35.2813 H 1379.08 Z" />
        <path
           inkscape:connector-curvature="0"
           id="path975"
           style="fill:#00ff00;fill-opacity:1;fill-rule:evenodd;stroke:none"
           d="m 1296.5,1002.37 h 35.5117 v 35.2773 H 1296.5 Z" />
        <path
           inkscape:connector-curvature="0"
           id="path977"
           style="fill:#00ff00;fill-opacity:1;fill-rule:evenodd;stroke:none"
           d="m 1132.94,1049.89 h 35.5078 v 35.2813 H 1132.94 Z" />
        <path
           inkscape:connector-curvature="0"
           id="path979"
           style="fill:#00ff00;fill-opacity:1;fill-rule:evenodd;stroke:none"
           d="m 1143.2,945.648 h 35.5117 v 35.2813 H 1143.2 Z" />
        <path
           inkscape:connector-curvature="0"
           id="path981"
           style="fill:#00ff00;fill-opacity:1;fill-rule:evenodd;stroke:none"
           d="m 1154.82,921.879 h 35.5078 v 35.2813 H 1154.82 Z" />
        <path
           inkscape:connector-curvature="0"
           id="path983"
           style="fill:#00ff00;fill-opacity:1;fill-rule:evenodd;stroke:none"
           d="m 1164.61,927.289 h 35.5117 v 35.2813 H 1164.61 Z" />
        <path
           inkscape:connector-curvature="0"
           id="path985"
           style="fill:#00ff00;fill-opacity:1;fill-rule:evenodd;stroke:none"
           d="m 1173.76,932.059 h 35.5 v 35.293 h -35.5 z" />
        <path
           inkscape:connector-curvature="0"
           id="path987"
           style="fill:#00ff00;fill-opacity:1;fill-rule:evenodd;stroke:none"
           d="m 1182.37,942.738 h 35.5078 v 35.2813 H 1182.37 Z" />
        <path
           inkscape:connector-curvature="0"
           id="path989"
           style="fill:#00ff00;fill-opacity:1;fill-rule:evenodd;stroke:none"
           d="m 1190.48,938.531 h 35.5078 v 35.2773 H 1190.48 Z" />
        <path
           inkscape:connector-curvature="0"
           id="path991"
           style="fill:#00ff00;fill-opacity:1;fill-rule:evenodd;stroke:none"
           d="m 1198.15,927.141 h 35.5117 v 35.2695 H 1198.15 Z" />
        <path
           inkscape:connector-curvature="0"
           id="path993"
           style="fill:#00ff00;fill-opacity:1;fill-rule:evenodd;stroke:none"
           d="m 1205.43,883.148 h 35.5117 v 35.2813 H 1205.43 Z" />
        <path
           inkscape:connector-curvature="0"
           id="path995"
           style="fill:#00ff00;fill-opacity:1;fill-rule:evenodd;stroke:none"
           d="m 1231.3,933.07 h 35.5078 v 35.2813 H 1231.3 Z" />
        <path
           inkscape:connector-curvature="0"
           id="path997"
           style="fill:#00ff00;fill-opacity:1;fill-rule:evenodd;stroke:none"
           d="m 1253.17,964.359 h 35.5078 v 35.2813 H 1253.17 Z" />
        <path
           inkscape:connector-curvature="0"
           id="path999"
           style="fill:#00ff00;fill-opacity:1;fill-rule:evenodd;stroke:none"
           d="m 1272.12,994.641 h 35.5078 v 35.2695 H 1272.12 Z" />
        <path
           inkscape:connector-curvature="0"
           id="path1001"
           style="fill:#00ff00;fill-opacity:1;fill-rule:evenodd;stroke:none"
           d="m 1288.83,1000.81 h 35.5117 v 35.2734 H 1288.83 Z" />
        <path
           inkscape:connector-curvature="0"
           id="path1003"
           style="fill:#00ff00;fill-opacity:1;fill-rule:evenodd;stroke:none"
           d="m 1303.78,1052.14 h 35.5078 v 35.2891 H 1303.78 Z" />
        <path
           inkscape:connector-curvature="0"
           id="path1005"
           style="fill:#00ff00;fill-opacity:1;fill-rule:evenodd;stroke:none"
           d="m 1317.3,1108.17 h 35.5 v 35.2773 h -35.5 z" />
        <path
           inkscape:connector-curvature="0"
           id="path1007"
           style="fill:#00ff00;fill-opacity:1;fill-rule:evenodd;stroke:none"
           d="m 1329.65,1120.16 h 35.5117 v 35.2813 H 1329.65 Z" />
        <path
           inkscape:connector-curvature="0"
           id="path1009"
           style="fill:#00ff00;fill-opacity:1;fill-rule:evenodd;stroke:none"
           d="m 1356.5,1169.22 h 35.5117 v 35.2813 H 1356.5 Z" />
        <path
           inkscape:connector-curvature="0"
           id="path1011"
           style="fill:#00ff00;fill-opacity:1;fill-rule:evenodd;stroke:none"
           d="m 1365.98,1150.91 h 35.4883 v 35.2891 H 1365.98 Z" />
        <path
           inkscape:connector-curvature="0"
           id="path1013"
           style="fill:#00ff00;fill-opacity:1;fill-rule:evenodd;stroke:none"
           d="m 1383.19,1130.81 h 35.5078 v 35.2734 H 1383.19 Z" />
        <path
           inkscape:connector-curvature="0"
           id="path1015"
           style="fill:#00ff00;fill-opacity:1;fill-rule:evenodd;stroke:none"
           d="m 1402.14,1119.73 h 35.5078 v 35.2813 H 1402.14 Z" />
        <path
           inkscape:connector-curvature="0"
           id="path1017"
           style="fill:#00ff00;fill-opacity:1;fill-rule:evenodd;stroke:none"
           d="m 1418.86,1106.43 h 35.5 v 35.2891 h -35.5 z" />
        <path
           inkscape:connector-curvature="0"
           id="path1019"
           style="fill:#00ff00;fill-opacity:1;fill-rule:evenodd;stroke:none"
           d="m 1433.8,1075.59 h 35.5078 v 35.2891 H 1433.8 Z" />
        <path
           inkscape:connector-curvature="0"
           id="path1021"
           style="fill:#00ff00;fill-opacity:1;fill-rule:evenodd;stroke:none"
           d="m 1447.32,1047.92 h 35.5117 v 35.2695 H 1447.32 Z" />
        <path
           inkscape:connector-curvature="0"
           id="path1023"
           style="fill:#00ff00;fill-opacity:1;fill-rule:evenodd;stroke:none"
           d="m 1459.67,1077.39 h 35.5078 v 35.2813 H 1459.67 Z" />
        <path
           inkscape:connector-curvature="0"
           id="path1025"
           style="fill:#00ff00;fill-opacity:1;fill-rule:evenodd;stroke:none"
           d="m 1471.04,1075.73 h 35.4922 v 35.2695 H 1471.04 Z" />
        <path
           inkscape:connector-curvature="0"
           id="path1027"
           style="fill:#00ff00;fill-opacity:1;fill-rule:evenodd;stroke:none"
           d="m 1481.54,1073.82 h 35.5117 v 35.2891 H 1481.54 Z" />
        <path
           inkscape:connector-curvature="0"
           id="path1029"
           style="fill:#00ff00;fill-opacity:1;fill-rule:evenodd;stroke:none"
           d="m 1500.49,1086.98 h 35.5117 v 35.2813 H 1500.49 Z" />
        <path
           inkscape:connector-curvature="0"
           id="path1031"
           style="fill:#00ff00;fill-opacity:1;fill-rule:evenodd;stroke:none"
           d="m 1517.21,1104.13 h 35.5 v 35.2695 h -35.5 z" />
        <path
           inkscape:connector-curvature="0"
           id="path1033"
           style="fill:#00ff00;fill-opacity:1;fill-rule:evenodd;stroke:none"
           d="m 1532.15,1118.93 h 35.5117 v 35.2891 H 1532.15 Z" />
        <path
           inkscape:connector-curvature="0"
           id="path1035"
           style="fill:#00ff00;fill-opacity:1;fill-rule:evenodd;stroke:none"
           d="m 1558.03,1150.59 h 35.5 v 35.2891 h -35.5 z" />
        <path
           inkscape:connector-curvature="0"
           id="path1037"
           style="fill:#00ff00;fill-opacity:1;fill-rule:evenodd;stroke:none"
           d="m 1589.7,1219.58 h 35.5 v 35.2734 h -35.5 z" />
        <path
           inkscape:connector-curvature="0"
           id="path1039"
           style="fill:#00ff00;fill-opacity:1;fill-rule:evenodd;stroke:none"
           d="m 1615.57,1316.34 h 35.4883 v 35.2891 H 1615.57 Z" />
        <path
           inkscape:connector-curvature="0"
           id="path1041"
           style="fill:#00ff00;fill-opacity:1;fill-rule:evenodd;stroke:none"
           d="m 1630.51,1333.92 h 35.5078 v 35.2891 H 1630.51 Z" />
        <path
           inkscape:connector-curvature="0"
           id="path1043"
           style="fill:#00ff00;fill-opacity:1;fill-rule:evenodd;stroke:none"
           d="m 1656.39,1332.78 h 35.4883 v 35.2773 H 1656.39 Z" />
        <path
           inkscape:connector-curvature="0"
           id="path1045"
           style="fill:#00ff00;fill-opacity:1;fill-rule:evenodd;stroke:none"
           d="m 1688.05,1340.99 h 35.4883 v 35.293 H 1688.05 Z" />
        <path
           inkscape:connector-curvature="0"
           id="path1047"
           style="fill:#00ff00;fill-opacity:1;fill-rule:evenodd;stroke:none"
           d="m 1728.87,1422.73 h 35.5 v 35.2813 h -35.5 z" />
        <path
           inkscape:connector-curvature="0"
           id="path1049"
           style="fill:#00ff00;fill-opacity:1;fill-rule:evenodd;stroke:none"
           d="m 1760.54,1444.77 h 35.5 v 35.2813 h -35.5 z" />
        <path
           inkscape:connector-curvature="0"
           id="path1051"
           style="fill:#00ff00;fill-opacity:1;fill-rule:evenodd;stroke:none"
           d="m 1786.41,1543.15 h 35.4883 v 35.2813 H 1786.41 Z" />
        <path
           inkscape:connector-curvature="0"
           id="path1053"
           style="fill:#00ff00;fill-opacity:1;fill-rule:evenodd;stroke:none"
           d="m 1808.28,1568.49 h 35.4883 v 35.293 H 1808.28 Z" />
        <path
           inkscape:connector-curvature="0"
           id="path1055"
           style="fill:#00ff00;fill-opacity:1;fill-rule:evenodd;stroke:none"
           d="m 1851.61,1676.12 h 35.4922 v 35.2695 H 1851.61 Z" />
        <path
           inkscape:connector-curvature="0"
           id="path1057"
           style="fill:#00ff00;fill-opacity:1;fill-rule:evenodd;stroke:none"
           d="m 1858.89,1691.28 h 35.4883 v 35.2891 H 1858.89 Z" />
        <path
           inkscape:connector-curvature="0"
           id="path1059"
           style="fill:#00ff00;fill-opacity:1;fill-rule:evenodd;stroke:none"
           d="m 1884.75,1730.81 h 35.5117 v 35.2734 H 1884.75 Z" />
        <path
           inkscape:connector-curvature="0"
           id="path1061"
           style="fill:#00ff00;fill-opacity:1;fill-rule:evenodd;stroke:none"
           d="m 1967.5,1869.01 h 35.5 v 35.2695 h -35.5 z" />
        <path
           inkscape:connector-curvature="0"
           id="path1063"
           style="fill:#00ff00;fill-opacity:1;fill-rule:evenodd;stroke:none"
           d="m 2453.38,2632.71 h 35.4922 v 35.2813 H 2453.38 Z" />
        <path
           inkscape:connector-curvature="0"
           id="path1065"
           style="fill:#00ff00;fill-opacity:1;fill-rule:evenodd;stroke:none"
           d="m 2422.25,2545.4 h 35.5117 v 35.293 H 2422.25 Z" />
        <path
           inkscape:connector-curvature="0"
           id="path1067"
           style="fill:#00ff00;fill-opacity:1;fill-rule:evenodd;stroke:none"
           d="m 2387.54,2491.87 h 35.5117 v 35.2852 H 2387.54 Z" />
        <path
           inkscape:connector-curvature="0"
           id="path1069"
           style="fill:#00ff00;fill-opacity:1;fill-rule:evenodd;stroke:none"
           d="m 2343.85,2373.14 h 35.4883 v 35.2852 H 2343.85 Z" />
        <path
           inkscape:connector-curvature="0"
           id="path1071"
           style="fill:#00ff00;fill-opacity:1;fill-rule:evenodd;stroke:none"
           d="m 2303.79,2317.33 h 35.5117 v 35.2813 H 2303.79 Z" />
        <path
           inkscape:connector-curvature="0"
           id="path1073"
           style="fill:#00ff00;fill-opacity:1;fill-rule:evenodd;stroke:none"
           d="m 2283.97,2319.23 h 35.4922 v 35.2852 H 2283.97 Z" />
        <path
           inkscape:connector-curvature="0"
           id="path1075"
           style="fill:#00ff00;fill-opacity:1;fill-rule:evenodd;stroke:none"
           d="m 2260.9,2257.39 h 35.5117 v 35.2813 H 2260.9 Z" />
        <path
           inkscape:connector-curvature="0"
           id="path1077"
           style="fill:#00ff00;fill-opacity:1;fill-rule:evenodd;stroke:none"
           d="m 2222.84,2199.91 h 35.5 v 35.2773 h -35.5 z" />
        <path
           inkscape:connector-curvature="0"
           id="path1079"
           style="fill:#00ff00;fill-opacity:1;fill-rule:evenodd;stroke:none"
           d="m 2192.54,2225.79 h 35.4922 v 35.2734 H 2192.54 Z" />
        <path
           inkscape:connector-curvature="0"
           id="path1081"
           style="fill:#00ff00;fill-opacity:1;fill-rule:evenodd;stroke:none"
           d="m 2170.67,2201.05 h 35.4883 v 35.2852 H 2170.67 Z" />
        <path
           inkscape:connector-curvature="0"
           id="path1083"
           style="fill:#00ff00;fill-opacity:1;fill-rule:evenodd;stroke:none"
           d="m 2151.26,2149.97 h 35.5 v 35.293 h -35.5 z" />
        <path
           inkscape:connector-curvature="0"
           id="path1085"
           style="fill:#00ff00;fill-opacity:1;fill-rule:evenodd;stroke:none"
           d="m 2128.78,2126.51 h 35.5 v 35.2813 h -35.5 z" />
        <path
           inkscape:connector-curvature="0"
           id="path1087"
           style="fill:#00ff00;fill-opacity:1;fill-rule:evenodd;stroke:none"
           d="m 2100.79,2028.66 h 35.4922 v 35.2813 H 2100.79 Z" />
        <path
           inkscape:connector-curvature="0"
           id="path1089"
           style="fill:#00ff00;fill-opacity:1;fill-rule:evenodd;stroke:none"
           d="m 2055.59,1991.82 h 35.5117 v 35.2813 H 2055.59 Z" />
        <path
           inkscape:connector-curvature="0"
           id="path1091"
           style="fill:#00ff00;fill-opacity:1;fill-rule:evenodd;stroke:none"
           d="m 2014.77,1919.65 h 35.5117 v 35.2813 H 2014.77 Z" />
        <path
           inkscape:connector-curvature="0"
           id="path1093"
           style="fill:#00ff00;fill-opacity:1;fill-rule:evenodd;stroke:none"
           d="m 1988.91,1849.7 h 35.4883 v 35.2891 H 1988.91 Z" />
        <path
           inkscape:connector-curvature="0"
           id="path1095"
           style="fill:#00ff00;fill-opacity:1;fill-rule:evenodd;stroke:none"
           d="m 1942.29,1777.92 h 35.4922 v 35.2695 H 1942.29 Z" />
        <path
           inkscape:connector-curvature="0"
           id="path1097"
           style="fill:#00ff00;fill-opacity:1;fill-rule:evenodd;stroke:none"
           d="m 1911.61,1702.27 h 35.4922 v 35.2813 H 1911.61 Z" />
        <path
           inkscape:connector-curvature="0"
           id="path1099"
           style="fill:#00ff00;fill-opacity:1;fill-rule:evenodd;stroke:none"
           d="m 1872.41,1644.17 h 35.5 v 35.2891 h -35.5 z" />
        <path
           inkscape:connector-curvature="0"
           id="path1101"
           style="fill:#00ff00;fill-opacity:1;fill-rule:evenodd;stroke:none"
           d="m 1119.31,877.98 h 35.4922 v 35.2891 H 1119.31 Z" />
        <path
           inkscape:connector-curvature="0"
           id="path1103"
           style="fill:#00ff00;fill-opacity:1;fill-rule:evenodd;stroke:none"
           d="m 1097.38,918.859 h 35.5117 v 35.2891 H 1097.38 Z" />
        <path
           inkscape:connector-curvature="0"
           id="path1105"
           style="fill:#00ff00;fill-opacity:1;fill-rule:evenodd;stroke:none"
           d="m 977.055,904.68 h 35.4961 v 35.2891 H 977.055 Z" />
        <path
           inkscape:connector-curvature="0"
           id="path1107"
           style="fill:#0000ff;fill-opacity:1;fill-rule:evenodd;stroke:none"
           d="m 1340.26,908.809 -26.01,-23.02 -26,23.02 26,22.953 26.01,-22.953" />
        <path
           inkscape:connector-curvature="0"
           id="path1109"
           style="fill:#0000ff;fill-opacity:1;fill-rule:evenodd;stroke:none"
           d="m 1176.7,828.23 -26.01,-23.031 -26,23.031 26,22.95 26.01,-22.95" />
        <path
           inkscape:connector-curvature="0"
           id="path1111"
           style="fill:#0000ff;fill-opacity:1;fill-rule:evenodd;stroke:none"
           d="m 1186.96,815.031 -26,-23.031 -26.01,23.031 26.01,22.949 26,-22.949" />
        <path
           inkscape:connector-curvature="0"
           id="path1113"
           style="fill:#0000ff;fill-opacity:1;fill-rule:evenodd;stroke:none"
           d="m 1198.58,815.75 -26.01,-23.031 -26.01,23.031 26.01,22.949 26.01,-22.949" />
        <path
           inkscape:connector-curvature="0"
           id="path1115"
           style="fill:#0000ff;fill-opacity:1;fill-rule:evenodd;stroke:none"
           d="m 1208.37,823.949 -26.01,-23.027 -26,23.027 26,22.949 26.01,-22.949" />
        <path
           inkscape:connector-curvature="0"
           id="path1117"
           style="fill:#0000ff;fill-opacity:1;fill-rule:evenodd;stroke:none"
           d="m 1217.52,823.969 -26.01,-23.028 -26.01,23.028 26.01,22.953 26.01,-22.953" />
        <path
           inkscape:connector-curvature="0"
           id="path1119"
           style="fill:#0000ff;fill-opacity:1;fill-rule:evenodd;stroke:none"
           d="m 1226.13,822.352 -26,-23.043 -26.01,23.043 26.01,22.949 26,-22.949" />
        <path
           inkscape:connector-curvature="0"
           id="path1121"
           style="fill:#0000ff;fill-opacity:1;fill-rule:evenodd;stroke:none"
           d="m 1234.24,840.18 -26.01,-23.032 -26,23.032 26,22.949 26.01,-22.949" />
        <path
           inkscape:connector-curvature="0"
           id="path1123"
           style="fill:#0000ff;fill-opacity:1;fill-rule:evenodd;stroke:none"
           d="m 1241.91,851.43 -26.01,-23.032 -26.01,23.032 26.01,22.949 26.01,-22.949" />
        <path
           inkscape:connector-curvature="0"
           id="path1125"
           style="fill:#0000ff;fill-opacity:1;fill-rule:evenodd;stroke:none"
           d="m 1249.19,854.391 -26.01,-23.032 -26.01,23.032 26.01,22.961 26.01,-22.961" />
        <path
           inkscape:connector-curvature="0"
           id="path1127"
           style="fill:#0000ff;fill-opacity:1;fill-rule:evenodd;stroke:none"
           d="m 1275.06,865.98 -26.01,-23.019 -26,23.019 26,22.95 26.01,-22.95" />
        <path
           inkscape:connector-curvature="0"
           id="path1129"
           style="fill:#0000ff;fill-opacity:1;fill-rule:evenodd;stroke:none"
           d="m 1296.93,860.121 -26.01,-23.019 -26,23.019 26,22.949 26.01,-22.949" />
        <path
           inkscape:connector-curvature="0"
           id="path1131"
           style="fill:#0000ff;fill-opacity:1;fill-rule:evenodd;stroke:none"
           d="m 1315.88,872.371 -26.01,-23.039 -26,23.039 26,22.949 26.01,-22.949" />
        <path
           inkscape:connector-curvature="0"
           id="path1133"
           style="fill:#0000ff;fill-opacity:1;fill-rule:evenodd;stroke:none"
           d="m 1332.59,906.719 -26,-23.02 -26.01,23.02 26.01,22.953 26,-22.953" />
        <path
           inkscape:connector-curvature="0"
           id="path1135"
           style="fill:#0000ff;fill-opacity:1;fill-rule:evenodd;stroke:none"
           d="m 1347.54,921.102 -26.01,-23.043 -26,23.043 26,22.949 26.01,-22.949" />
        <path
           inkscape:connector-curvature="0"
           id="path1137"
           style="fill:#0000ff;fill-opacity:1;fill-rule:evenodd;stroke:none"
           d="m 1361.06,932.879 -26.01,-23.027 -26.01,23.027 26.01,22.949 26.01,-22.949" />
        <path
           inkscape:connector-curvature="0"
           id="path1139"
           style="fill:#0000ff;fill-opacity:1;fill-rule:evenodd;stroke:none"
           d="m 1373.41,944.172 -26,-23.031 -26.01,23.031 26.01,22.949 26,-22.949" />
        <path
           inkscape:connector-curvature="0"
           id="path1141"
           style="fill:#0000ff;fill-opacity:1;fill-rule:evenodd;stroke:none"
           d="m 1400.26,974.129 -26.01,-23.027 -26,23.027 26,22.949 26.01,-22.949" />
        <path
           inkscape:connector-curvature="0"
           id="path1143"
           style="fill:#0000ff;fill-opacity:1;fill-rule:evenodd;stroke:none"
           d="m 1409.74,979.148 -26.01,-23.027 -26.02,23.027 26.02,22.952 26.01,-22.952" />
        <path
           inkscape:connector-curvature="0"
           id="path1145"
           style="fill:#0000ff;fill-opacity:1;fill-rule:evenodd;stroke:none"
           d="m 1426.95,985.18 -26,-23.032 -26.01,23.032 26.01,22.95 26,-22.95" />
        <path
           inkscape:connector-curvature="0"
           id="path1147"
           style="fill:#0000ff;fill-opacity:1;fill-rule:evenodd;stroke:none"
           d="m 1445.9,996.762 -26.01,-23.024 -26,23.024 26,22.948 26.01,-22.948" />
        <path
           inkscape:connector-curvature="0"
           id="path1149"
           style="fill:#0000ff;fill-opacity:1;fill-rule:evenodd;stroke:none"
           d="m 1462.62,994.289 -26.01,-23.027 -26.01,23.027 26.01,22.951 26.01,-22.951" />
        <path
           inkscape:connector-curvature="0"
           id="path1151"
           style="fill:#0000ff;fill-opacity:1;fill-rule:evenodd;stroke:none"
           d="m 1477.56,1008.57 -26.01,-23.031 -26,23.031 26,22.96 26.01,-22.96" />
        <path
           inkscape:connector-curvature="0"
           id="path1153"
           style="fill:#0000ff;fill-opacity:1;fill-rule:evenodd;stroke:none"
           d="m 1491.08,1002.92 -26.01,-23.029 -26.01,23.029 26.01,22.95 26.01,-22.95" />
        <path
           inkscape:connector-curvature="0"
           id="path1155"
           style="fill:#0000ff;fill-opacity:1;fill-rule:evenodd;stroke:none"
           d="m 1503.43,1013.81 -26,-23.021 -26.01,23.021 26.01,22.95 26,-22.95" />
        <path
           inkscape:connector-curvature="0"
           id="path1157"
           style="fill:#0000ff;fill-opacity:1;fill-rule:evenodd;stroke:none"
           d="m 1514.79,1017.37 -26.01,-23.038 -26.01,23.038 26.01,22.95 26.01,-22.95" />
        <path
           inkscape:connector-curvature="0"
           id="path1159"
           style="fill:#0000ff;fill-opacity:1;fill-rule:evenodd;stroke:none"
           d="m 1525.3,1028.53 -26,-23.03 -26.01,23.03 26.01,22.95 26,-22.95" />
        <path
           inkscape:connector-curvature="0"
           id="path1161"
           style="fill:#0000ff;fill-opacity:1;fill-rule:evenodd;stroke:none"
           d="m 1544.25,1051.51 -26,-23.03 -26.01,23.03 26.01,22.95 26,-22.95" />
        <path
           inkscape:connector-curvature="0"
           id="path1163"
           style="fill:#0000ff;fill-opacity:1;fill-rule:evenodd;stroke:none"
           d="m 1560.97,1082.8 -26.01,-23.04 -26.01,23.04 26.01,22.95 26.01,-22.95" />
        <path
           inkscape:connector-curvature="0"
           id="path1165"
           style="fill:#0000ff;fill-opacity:1;fill-rule:evenodd;stroke:none"
           d="m 1575.91,1108.78 -26,-23.03 -26.01,23.03 26.01,22.95 26,-22.95" />
        <path
           inkscape:connector-curvature="0"
           id="path1167"
           style="fill:#0000ff;fill-opacity:1;fill-rule:evenodd;stroke:none"
           d="m 1601.79,1136.65 -26.01,-23.03 -26.01,23.03 26.01,22.95 26.01,-22.95" />
        <path
           inkscape:connector-curvature="0"
           id="path1169"
           style="fill:#0000ff;fill-opacity:1;fill-rule:evenodd;stroke:none"
           d="m 1633.46,1188.41 -26.01,-23.03 -26.01,23.03 26.01,22.95 26.01,-22.95" />
        <path
           inkscape:connector-curvature="0"
           id="path1171"
           style="fill:#0000ff;fill-opacity:1;fill-rule:evenodd;stroke:none"
           d="m 1659.33,1243.68 -26.01,-23.04 -26.02,23.04 26.02,22.95 26.01,-22.95" />
        <path
           inkscape:connector-curvature="0"
           id="path1173"
           style="fill:#0000ff;fill-opacity:1;fill-rule:evenodd;stroke:none"
           d="m 1674.28,1257.49 -26.01,-23.03 -26.01,23.03 26.01,22.95 26.01,-22.95" />
        <path
           inkscape:connector-curvature="0"
           id="path1175"
           style="fill:#0000ff;fill-opacity:1;fill-rule:evenodd;stroke:none"
           d="m 1700.15,1270.46 -26.01,-23.03 -26.01,23.03 26.01,22.95 26.01,-22.95" />
        <path
           inkscape:connector-curvature="0"
           id="path1177"
           style="fill:#0000ff;fill-opacity:1;fill-rule:evenodd;stroke:none"
           d="m 1731.81,1308.92 -26.01,-23.03 -26.01,23.03 26.01,22.95 26.01,-22.95" />
        <path
           inkscape:connector-curvature="0"
           id="path1179"
           style="fill:#0000ff;fill-opacity:1;fill-rule:evenodd;stroke:none"
           d="m 1772.63,1374.31 -26.01,-23.03 -26.01,23.03 26.01,22.95 26.01,-22.95" />
        <path
           inkscape:connector-curvature="0"
           id="path1181"
           style="fill:#0000ff;fill-opacity:1;fill-rule:evenodd;stroke:none"
           d="m 1804.3,1400.73 -26.01,-23.04 -26.01,23.04 26.01,22.95 26.01,-22.95" />
        <path
           inkscape:connector-curvature="0"
           id="path1183"
           style="fill:#0000ff;fill-opacity:1;fill-rule:evenodd;stroke:none"
           d="m 1830.17,1440.67 -26.01,-23.03 -26.02,23.03 26.02,22.95 26.01,-22.95" />
        <path
           inkscape:connector-curvature="0"
           id="path1185"
           style="fill:#0000ff;fill-opacity:1;fill-rule:evenodd;stroke:none"
           d="m 1852.04,1453.7 -26.01,-23.03 -26.02,23.03 26.02,22.95 26.01,-22.95" />
        <path
           inkscape:connector-curvature="0"
           id="path1187"
           style="fill:#0000ff;fill-opacity:1;fill-rule:evenodd;stroke:none"
           d="m 1895.37,1541.26 -26.01,-23.03 -26.02,23.03 26.02,22.95 26.01,-22.95" />
        <path
           inkscape:connector-curvature="0"
           id="path1189"
           style="fill:#0000ff;fill-opacity:1;fill-rule:evenodd;stroke:none"
           d="m 1902.64,1566.12 -26,-23.04 -26.01,23.04 26.01,22.95 26,-22.95" />
        <path
           inkscape:connector-curvature="0"
           id="path1191"
           style="fill:#0000ff;fill-opacity:1;fill-rule:evenodd;stroke:none"
           d="m 1928.52,1592.41 -26.02,-23.04 -26.01,23.04 26.01,22.95 26.02,-22.95" />
        <path
           inkscape:connector-curvature="0"
           id="path1193"
           style="fill:#0000ff;fill-opacity:1;fill-rule:evenodd;stroke:none"
           d="m 2011.26,1704.87 -26,-23.04 -26.02,23.04 26.02,22.95 26,-22.95" />
        <path
           inkscape:connector-curvature="0"
           id="path1195"
           style="fill:#0000ff;fill-opacity:1;fill-rule:evenodd;stroke:none"
           d="m 2497.13,2515.81 -26.01,-23.03 -26,23.03 26,22.95 26.01,-22.95" />
        <path
           inkscape:connector-curvature="0"
           id="path1197"
           style="fill:#0000ff;fill-opacity:1;fill-rule:evenodd;stroke:none"
           d="m 2466.02,2439.81 -26.02,-23.03 -26.01,23.03 26.01,22.95 26.02,-22.95" />
        <path
           inkscape:connector-curvature="0"
           id="path1199"
           style="fill:#0000ff;fill-opacity:1;fill-rule:evenodd;stroke:none"
           d="m 2431.31,2386.73 -26.01,-23.03 -26.02,23.03 26.02,22.95 26.01,-22.95" />
        <path
           inkscape:connector-curvature="0"
           id="path1201"
           style="fill:#0000ff;fill-opacity:1;fill-rule:evenodd;stroke:none"
           d="m 2387.6,2258.47 -26.01,-23.03 -26,23.03 26,22.95 26.01,-22.95" />
        <path
           inkscape:connector-curvature="0"
           id="path1203"
           style="fill:#0000ff;fill-opacity:1;fill-rule:evenodd;stroke:none"
           d="m 2347.56,2193.1 -26.01,-23.03 -26.02,23.03 26.02,22.95 26.01,-22.95" />
        <path
           inkscape:connector-curvature="0"
           id="path1205"
           style="fill:#0000ff;fill-opacity:1;fill-rule:evenodd;stroke:none"
           d="m 2327.72,2185.34 -26,-23.04 -26.01,23.04 26.01,22.95 26,-22.95" />
        <path
           inkscape:connector-curvature="0"
           id="path1207"
           style="fill:#0000ff;fill-opacity:1;fill-rule:evenodd;stroke:none"
           d="m 2304.67,2141.16 -26.01,-23.04 -26.02,23.04 26.02,22.95 26.01,-22.95" />
        <path
           inkscape:connector-curvature="0"
           id="path1209"
           style="fill:#0000ff;fill-opacity:1;fill-rule:evenodd;stroke:none"
           d="m 2266.61,2081.48 -26.02,-23.03 -26.01,23.03 26.01,22.96 26.02,-22.96" />
        <path
           inkscape:connector-curvature="0"
           id="path1211"
           style="fill:#0000ff;fill-opacity:1;fill-rule:evenodd;stroke:none"
           d="m 2236.29,2039.58 -26.01,-23.03 -26,23.03 26,22.95 26.01,-22.95" />
        <path
           inkscape:connector-curvature="0"
           id="path1213"
           style="fill:#0000ff;fill-opacity:1;fill-rule:evenodd;stroke:none"
           d="m 2214.42,2013.31 -26,-23.03 -26.01,23.03 26.01,22.95 26,-22.95" />
        <path
           inkscape:connector-curvature="0"
           id="path1215"
           style="fill:#0000ff;fill-opacity:1;fill-rule:evenodd;stroke:none"
           d="m 2195.02,1987.23 -26.01,-23.02 -26.01,23.02 26.01,22.95 26.01,-22.95" />
        <path
           inkscape:connector-curvature="0"
           id="path1217"
           style="fill:#0000ff;fill-opacity:1;fill-rule:evenodd;stroke:none"
           d="m 2172.54,1929.03 -26.01,-23.03 -26,23.03 26,22.95 26.01,-22.95" />
        <path
           inkscape:connector-curvature="0"
           id="path1219"
           style="fill:#0000ff;fill-opacity:1;fill-rule:evenodd;stroke:none"
           d="m 2144.55,1901.72 -26.01,-23.02 -26.02,23.02 26.02,22.95 26.01,-22.95" />
        <path
           inkscape:connector-curvature="0"
           id="path1221"
           style="fill:#0000ff;fill-opacity:1;fill-rule:evenodd;stroke:none"
           d="m 2099.36,1827.08 -26.02,-23.03 -26.01,23.03 26.01,22.95 26.02,-22.95" />
        <path
           inkscape:connector-curvature="0"
           id="path1223"
           style="fill:#0000ff;fill-opacity:1;fill-rule:evenodd;stroke:none"
           d="m 2058.54,1769.89 -26.02,-23.04 -26.01,23.04 26.01,22.95 26.02,-22.95" />
        <path
           inkscape:connector-curvature="0"
           id="path1225"
           style="fill:#0000ff;fill-opacity:1;fill-rule:evenodd;stroke:none"
           d="m 2032.66,1739.68 -26,-23.03 -26.01,23.03 26.01,22.95 26,-22.95" />
        <path
           inkscape:connector-curvature="0"
           id="path1227"
           style="fill:#0000ff;fill-opacity:1;fill-rule:evenodd;stroke:none"
           d="m 1986.04,1675.91 -26.01,-23.03 -26,23.03 26,22.95 26.01,-22.95" />
        <path
           inkscape:connector-curvature="0"
           id="path1229"
           style="fill:#0000ff;fill-opacity:1;fill-rule:evenodd;stroke:none"
           d="m 1955.37,1634.42 -26.01,-23.03 -26.02,23.03 26.02,22.95 26.01,-22.95" />
        <path
           inkscape:connector-curvature="0"
           id="path1231"
           style="fill:#0000ff;fill-opacity:1;fill-rule:evenodd;stroke:none"
           d="m 1916.17,1575.89 -26.01,-23.03 -26.01,23.03 26.01,22.94 26.01,-22.94" />
        <path
           inkscape:connector-curvature="0"
           id="path1233"
           style="fill:#0000ff;fill-opacity:1;fill-rule:evenodd;stroke:none"
           d="m 1163.07,908.031 -26.01,-23.019 -26.02,23.019 26.02,22.949 26.01,-22.949" />
        <path
           inkscape:connector-curvature="0"
           id="path1235"
           style="fill:#0000ff;fill-opacity:1;fill-rule:evenodd;stroke:none"
           d="m 1141.14,836.301 -26,-23.031 -26.01,23.031 26.01,22.937 26,-22.937" />
        <path
           inkscape:connector-curvature="0"
           id="path1237"
           style="fill:#0000ff;fill-opacity:1;fill-rule:evenodd;stroke:none"
           d="m 1020.82,831.43 -26.015,-23.032 -26.012,23.032 26.012,22.949 26.015,-22.949" />
        <path
           inkscape:connector-curvature="0"
           id="path1513"
           style="fill:#ff0000;fill-opacity:1;fill-rule:evenodd;stroke:none"
           d="m 2249.72,988.512 c 0,-2.871 -0.35,-5.602 -1.08,-8.242 -0.73,-2.641 -1.75,-5.098 -3.06,-7.379 -1.34,-2.289 -2.92,-4.34 -4.76,-6.172 -1.88,-1.86 -3.95,-3.438 -6.24,-4.75 -2.29,-1.328 -4.74,-2.34 -7.36,-3.09 -2.64,-0.719 -5.39,-1.07 -8.26,-1.07 -4.31,0 -8.32,0.781 -12.04,2.382 -3.72,1.598 -6.96,3.77 -9.73,6.528 -2.78,2.75 -4.95,5.992 -6.53,9.722 -1.58,3.731 -2.34,7.758 -2.34,12.071 0,4.258 0.79,8.258 2.37,11.968 1.58,3.75 3.76,7.02 6.53,9.77 2.74,2.77 6,4.96 9.73,6.56 3.72,1.58 7.73,2.37 12.01,2.37 4.26,0 8.26,-0.79 12.01,-2.37 3.75,-1.6 7.01,-3.79 9.79,-6.56 2.75,-2.75 4.95,-6.02 6.56,-9.77 1.61,-3.71 2.4,-7.71 2.4,-11.968 v 0" />
        <path
           inkscape:connector-curvature="0"
           id="path1515"
           style="fill:#00ff00;fill-opacity:1;fill-rule:evenodd;stroke:none"
           d="m 2192.4,1325.09 h 53.2422 v 52.9219 H 2192.4 Z" />
        <path
           inkscape:connector-curvature="0"
           id="path1517"
           style="fill:#0000ff;fill-opacity:1;fill-rule:evenodd;stroke:none"
           d="m 2258.04,1171.73 -39.02,-34.54 -39.02,34.54 39.02,34.43 39.02,-34.43" />
      </g>
    </g>
  </g>
</svg>
