<?xml version="1.0" encoding="UTF-8" standalone="no"?>
<!-- Created with Inkscape (http://www.inkscape.org/) -->

<svg
   xmlns:dc="http://purl.org/dc/elements/1.1/"
   xmlns:cc="http://creativecommons.org/ns#"
   xmlns:rdf="http://www.w3.org/1999/02/22-rdf-syntax-ns#"
   xmlns:svg="http://www.w3.org/2000/svg"
   xmlns="http://www.w3.org/2000/svg"
   xmlns:sodipodi="http://sodipodi.sourceforge.net/DTD/sodipodi-0.dtd"
   xmlns:inkscape="http://www.inkscape.org/namespaces/inkscape"
   version="1.1"
   id="svg2"
   xml:space="preserve"
   width="391.89334"
   height="413.89334"
   viewBox="0 0 391.89334 413.89334"
   sodipodi:docname="Tcm3_bis.svg"
   inkscape:version="0.92.4 (5da689c313, 2019-01-14)"><metadata
     id="metadata8"><rdf:RDF><cc:Work
         rdf:about=""><dc:format>image/svg+xml</dc:format><dc:type
           rdf:resource="http://purl.org/dc/dcmitype/StillImage" /></cc:Work></rdf:RDF></metadata><defs
     id="defs6" /><sodipodi:namedview
     pagecolor="#ffffff"
     bordercolor="#666666"
     borderopacity="1"
     objecttolerance="10"
     gridtolerance="10"
     guidetolerance="10"
     inkscape:pageopacity="0"
     inkscape:pageshadow="2"
     inkscape:window-width="2498"
     inkscape:window-height="1417"
     id="namedview4"
     showgrid="false"
     showguides="true"
     inkscape:guide-bbox="true"
     inkscape:zoom="2.8284271"
     inkscape:cx="-24.932547"
     inkscape:cy="106.4361"
     inkscape:window-x="1974"
     inkscape:window-y="-8"
     inkscape:window-maximized="1"
     inkscape:current-layer="g12"><sodipodi:guide
       position="9.1796875,-0.0078125"
       orientation="0,1"
       id="guide1553"
       inkscape:locked="false" /><sodipodi:guide
       position="12.4375,89.25"
       orientation="1,0"
       id="guide1557"
       inkscape:locked="false" /></sodipodi:namedview><g
     id="g10"
     inkscape:groupmode="layer"
     inkscape:label="ink_ext_XXXXXX"
     transform="matrix(1.3333333,0,0,-1.3333333,0,413.89333)"><g
       id="g12"
       transform="matrix(0.1,0,0,0.1,-90.136266,-43.894191)"><path
         d="m 1739.17,1339.28 -575,-897.499"
         style="fill:none;stroke:#000000;stroke-width:2.83465004;stroke-linecap:square;stroke-linejoin:miter;stroke-miterlimit:3.25;stroke-dasharray:56.6929, 56.6929;stroke-dashoffset:0;stroke-opacity:1"
         id="path14"
         inkscape:connector-curvature="0" /><path
         d="m 1637.06,1274.11 c 0,-1.91 -0.24,-3.73 -0.74,-5.49 -0.48,-1.76 -1.15,-3.4 -2.03,-4.92 -0.9,-1.52 -1.96,-2.89 -3.19,-4.12 -1.24,-1.23 -2.61,-2.29 -4.15,-3.17 -1.52,-0.88 -3.16,-1.56 -4.9,-2.05 -1.76,-0.48 -3.59,-0.72 -5.51,-0.72 -2.86,0 -5.54,0.53 -8.02,1.59 -2.48,1.07 -4.64,2.51 -6.49,4.35 -1.85,1.83 -3.3,4 -4.35,6.48 -1.05,2.49 -1.58,5.18 -1.58,8.05 0,2.85 0.54,5.51 1.6,7.99 1.05,2.5 2.51,4.66 4.35,6.5 1.83,1.86 3.99,3.32 6.49,4.37 2.48,1.06 5.16,1.59 8,1.59 2.84,0 5.51,-0.53 8.01,-1.59 2.5,-1.05 4.67,-2.51 6.51,-4.37 1.86,-1.84 3.32,-4 4.38,-6.5 1.07,-2.48 1.62,-5.14 1.62,-7.99 v 0"
         style="fill:#ff0000;fill-opacity:1;fill-rule:evenodd;stroke:none"
         id="path22"
         inkscape:connector-curvature="0" /><path
         d="m 1417.29,1353.48 c 0,-1.91 -0.24,-3.74 -0.74,-5.49 -0.48,-1.75 -1.15,-3.39 -2.03,-4.92 -0.9,-1.52 -1.96,-2.9 -3.19,-4.12 -1.24,-1.23 -2.61,-2.28 -4.15,-3.16 -1.52,-0.89 -3.16,-1.57 -4.9,-2.05 -1.75,-0.49 -3.59,-0.73 -5.5,-0.73 -2.87,0 -5.55,0.53 -8.03,1.59 -2.49,1.06 -4.64,2.52 -6.49,4.35 -1.85,1.84 -3.3,4.01 -4.35,6.49 -1.05,2.48 -1.58,5.17 -1.58,8.04 0,2.84 0.54,5.5 1.59,7.99 1.06,2.49 2.51,4.67 4.36,6.5 1.83,1.85 3.99,3.31 6.48,4.38 2.49,1.05 5.17,1.58 8.02,1.58 2.83,0 5.5,-0.53 8,-1.58 2.5,-1.07 4.67,-2.53 6.51,-4.38 1.85,-1.83 3.31,-4.01 4.38,-6.5 1.07,-2.49 1.62,-5.15 1.62,-7.99 v 0"
         style="fill:#ff0000;fill-opacity:1;fill-rule:evenodd;stroke:none"
         id="path24"
         inkscape:connector-curvature="0" /><path
         d="m 1334.72,1082.49 c 0,-1.91 -0.25,-3.73 -0.74,-5.49 -0.47,-1.76 -1.15,-3.4 -2.04,-4.92 -0.89,-1.52 -1.94,-2.89 -3.18,-4.11 -1.24,-1.24 -2.62,-2.3 -4.15,-3.18 -1.51,-0.88 -3.15,-1.56 -4.9,-2.05 -1.76,-0.48 -3.6,-0.72 -5.51,-0.72 -2.87,0 -5.55,0.53 -8.02,1.59 -2.48,1.06 -4.65,2.51 -6.5,4.36 -1.84,1.82 -3.29,3.99 -4.34,6.47 -1.05,2.5 -1.58,5.18 -1.58,8.05 0,2.85 0.54,5.5 1.6,7.99 1.06,2.49 2.51,4.66 4.35,6.5 1.82,1.85 4,3.32 6.49,4.37 2.48,1.06 5.15,1.59 8,1.59 2.85,0 5.51,-0.53 8.01,-1.59 2.5,-1.05 4.67,-2.52 6.52,-4.37 1.85,-1.84 3.31,-4.01 4.38,-6.5 1.06,-2.49 1.61,-5.14 1.61,-7.99 v 0"
         style="fill:#ff0000;fill-opacity:1;fill-rule:evenodd;stroke:none"
         id="path26"
         inkscape:connector-curvature="0" /><path
         d="m 1171.16,1120.94 c 0,-1.91 -0.25,-3.74 -0.74,-5.48 -0.47,-1.76 -1.15,-3.4 -2.04,-4.93 -0.88,-1.52 -1.94,-2.9 -3.17,-4.12 -1.25,-1.23 -2.63,-2.28 -4.16,-3.16 -1.51,-0.89 -3.15,-1.56 -4.91,-2.05 -1.75,-0.49 -3.59,-0.73 -5.5,-0.73 -2.87,0 -5.55,0.53 -8.02,1.59 -2.48,1.06 -4.65,2.52 -6.5,4.35 -1.84,1.84 -3.29,4.01 -4.34,6.49 -1.06,2.48 -1.57,5.17 -1.57,8.04 0,2.84 0.53,5.5 1.59,7.99 1.06,2.49 2.51,4.67 4.35,6.51 1.82,1.84 4,3.3 6.49,4.36 2.48,1.07 5.15,1.59 8,1.59 2.85,0 5.5,-0.52 8.01,-1.59 2.49,-1.06 4.68,-2.52 6.52,-4.36 1.85,-1.84 3.31,-4.02 4.38,-6.51 1.07,-2.49 1.61,-5.15 1.61,-7.99 v 0"
         style="fill:#ff0000;fill-opacity:1;fill-rule:evenodd;stroke:none"
         id="path28"
         inkscape:connector-curvature="0" /><path
         d="m 1181.42,1113.99 c 0,-1.91 -0.24,-3.73 -0.74,-5.49 -0.47,-1.76 -1.15,-3.4 -2.04,-4.92 -0.89,-1.52 -1.95,-2.89 -3.18,-4.12 -1.24,-1.23 -2.61,-2.29 -4.15,-3.16 -1.52,-0.88 -3.16,-1.57 -4.9,-2.06 -1.76,-0.48 -3.6,-0.72 -5.51,-0.72 -2.86,0 -5.54,0.53 -8.02,1.59 -2.48,1.07 -4.65,2.51 -6.49,4.35 -1.85,1.84 -3.3,4 -4.35,6.48 -1.05,2.49 -1.58,5.18 -1.58,8.05 0,2.84 0.54,5.51 1.6,7.99 1.06,2.5 2.51,4.67 4.35,6.5 1.82,1.86 4,3.31 6.49,4.38 2.48,1.05 5.16,1.58 8,1.58 2.85,0 5.51,-0.53 8.01,-1.58 2.5,-1.07 4.67,-2.52 6.51,-4.38 1.86,-1.83 3.32,-4 4.38,-6.5 1.07,-2.48 1.62,-5.15 1.62,-7.99 v 0"
         style="fill:#ff0000;fill-opacity:1;fill-rule:evenodd;stroke:none"
         id="path30"
         inkscape:connector-curvature="0" /><path
         d="m 1193.03,1145.89 c 0,-1.92 -0.25,-3.75 -0.74,-5.49 -0.47,-1.76 -1.16,-3.4 -2.04,-4.93 -0.88,-1.52 -1.94,-2.9 -3.17,-4.12 -1.25,-1.23 -2.63,-2.28 -4.16,-3.16 -1.51,-0.89 -3.15,-1.57 -4.91,-2.05 -1.75,-0.49 -3.59,-0.72 -5.5,-0.72 -2.87,0 -5.55,0.52 -8.02,1.58 -2.48,1.06 -4.65,2.52 -6.5,4.35 -1.85,1.84 -3.29,4.01 -4.35,6.49 -1.05,2.48 -1.56,5.17 -1.56,8.05 0,2.83 0.53,5.49 1.59,7.98 1.06,2.49 2.51,4.66 4.35,6.51 1.82,1.84 4,3.3 6.49,4.36 2.48,1.07 5.15,1.59 8,1.59 2.85,0 5.5,-0.52 8.01,-1.59 2.49,-1.06 4.68,-2.52 6.52,-4.36 1.85,-1.85 3.31,-4.02 4.38,-6.51 1.07,-2.49 1.61,-5.15 1.61,-7.98 v 0"
         style="fill:#ff0000;fill-opacity:1;fill-rule:evenodd;stroke:none"
         id="path32"
         inkscape:connector-curvature="0" /><path
         d="m 1202.81,1156.33 c 0,-1.91 -0.24,-3.74 -0.73,-5.48 -0.47,-1.76 -1.16,-3.4 -2.04,-4.93 -0.88,-1.52 -1.94,-2.9 -3.17,-4.12 -1.24,-1.23 -2.63,-2.28 -4.16,-3.16 -1.51,-0.89 -3.15,-1.56 -4.91,-2.05 -1.75,-0.49 -3.59,-0.72 -5.5,-0.72 -2.87,0 -5.55,0.52 -8.02,1.58 -2.48,1.06 -4.65,2.52 -6.5,4.35 -1.84,1.84 -3.29,4.01 -4.34,6.49 -1.06,2.48 -1.57,5.17 -1.57,8.04 0,2.84 0.52,5.5 1.59,7.99 1.06,2.49 2.51,4.67 4.34,6.51 1.83,1.84 4.01,3.3 6.5,4.36 2.48,1.07 5.15,1.59 8,1.59 2.85,0 5.5,-0.52 8,-1.59 2.5,-1.06 4.69,-2.52 6.53,-4.36 1.85,-1.84 3.31,-4.02 4.38,-6.51 1.07,-2.49 1.6,-5.15 1.6,-7.99 v 0"
         style="fill:#ff0000;fill-opacity:1;fill-rule:evenodd;stroke:none"
         id="path34"
         inkscape:connector-curvature="0" /><path
         d="m 1211.97,1164.95 c 0,-1.92 -0.24,-3.75 -0.72,-5.49 -0.48,-1.77 -1.17,-3.41 -2.05,-4.92 -0.88,-1.53 -1.94,-2.91 -3.17,-4.12 -1.24,-1.23 -2.63,-2.3 -4.15,-3.18 -1.52,-0.89 -3.16,-1.56 -4.92,-2.05 -1.75,-0.48 -3.59,-0.71 -5.5,-0.71 -2.87,0 -5.55,0.53 -8.03,1.58 -2.47,1.06 -4.64,2.51 -6.49,4.36 -1.85,1.82 -3.3,4 -4.35,6.47 -1.05,2.49 -1.56,5.19 -1.56,8.06 0,2.83 0.52,5.49 1.59,7.99 1.06,2.48 2.51,4.65 4.34,6.5 1.83,1.84 4.01,3.3 6.5,4.36 2.48,1.07 5.15,1.6 8,1.6 2.85,0 5.5,-0.53 8,-1.6 2.5,-1.06 4.69,-2.52 6.53,-4.36 1.85,-1.85 3.31,-4.02 4.38,-6.5 1.07,-2.5 1.6,-5.16 1.6,-7.99 v 0"
         style="fill:#ff0000;fill-opacity:1;fill-rule:evenodd;stroke:none"
         id="path36"
         inkscape:connector-curvature="0" /><path
         d="m 1220.58,1158.21 c 0,-1.91 -0.24,-3.75 -0.74,-5.5 -0.47,-1.76 -1.15,-3.4 -2.04,-4.91 -0.89,-1.52 -1.95,-2.91 -3.18,-4.12 -1.24,-1.23 -2.61,-2.3 -4.15,-3.18 -1.51,-0.88 -3.16,-1.57 -4.9,-2.05 -1.76,-0.48 -3.6,-0.72 -5.51,-0.72 -2.86,0 -5.54,0.54 -8.02,1.59 -2.48,1.06 -4.65,2.51 -6.49,4.36 -1.85,1.82 -3.3,3.99 -4.35,6.47 -1.05,2.49 -1.58,5.19 -1.58,8.06 0,2.83 0.54,5.49 1.6,7.99 1.06,2.48 2.51,4.65 4.35,6.49 1.82,1.85 4,3.31 6.49,4.37 2.48,1.06 5.16,1.6 8,1.6 2.85,0 5.51,-0.54 8.01,-1.6 2.5,-1.06 4.67,-2.52 6.51,-4.37 1.86,-1.84 3.32,-4.01 4.38,-6.49 1.07,-2.5 1.62,-5.16 1.62,-7.99 v 0"
         style="fill:#ff0000;fill-opacity:1;fill-rule:evenodd;stroke:none"
         id="path38"
         inkscape:connector-curvature="0" /><path
         d="m 1228.69,1198 c 0,-1.9 -0.24,-3.74 -0.74,-5.49 -0.47,-1.76 -1.15,-3.4 -2.04,-4.92 -0.89,-1.52 -1.95,-2.9 -3.18,-4.12 -1.24,-1.23 -2.61,-2.29 -4.15,-3.17 -1.51,-0.88 -3.16,-1.56 -4.9,-2.05 -1.76,-0.47 -3.6,-0.72 -5.51,-0.72 -2.87,0 -5.54,0.53 -8.02,1.6 -2.48,1.05 -4.65,2.5 -6.49,4.34 -1.85,1.83 -3.3,4 -4.35,6.48 -1.05,2.5 -1.58,5.18 -1.58,8.05 0,2.85 0.54,5.5 1.6,7.99 1.06,2.49 2.51,4.66 4.35,6.5 1.82,1.85 4,3.32 6.49,4.37 2.48,1.06 5.16,1.59 8,1.59 2.85,0 5.51,-0.53 8.01,-1.59 2.5,-1.05 4.67,-2.52 6.52,-4.37 1.85,-1.84 3.31,-4.01 4.38,-6.5 1.06,-2.49 1.61,-5.14 1.61,-7.99 v 0"
         style="fill:#ff0000;fill-opacity:1;fill-rule:evenodd;stroke:none"
         id="path40"
         inkscape:connector-curvature="0" /><path
         d="m 1236.35,1221.22 c 0,-1.91 -0.24,-3.73 -0.72,-5.49 -0.48,-1.76 -1.17,-3.4 -2.05,-4.92 -0.88,-1.52 -1.94,-2.89 -3.17,-4.12 -1.24,-1.23 -2.63,-2.29 -4.16,-3.17 -1.51,-0.88 -3.15,-1.56 -4.91,-2.05 -1.75,-0.48 -3.59,-0.72 -5.5,-0.72 -2.87,0 -5.55,0.53 -8.03,1.59 -2.47,1.06 -4.64,2.51 -6.49,4.35 -1.85,1.83 -3.3,4 -4.35,6.48 -1.05,2.49 -1.56,5.18 -1.56,8.05 0,2.85 0.52,5.5 1.59,7.99 1.06,2.5 2.51,4.66 4.34,6.5 1.83,1.85 4.01,3.32 6.5,4.37 2.47,1.06 5.15,1.59 8,1.59 2.85,0 5.5,-0.53 8,-1.59 2.5,-1.05 4.69,-2.52 6.53,-4.37 1.85,-1.84 3.31,-4 4.38,-6.5 1.07,-2.49 1.6,-5.14 1.6,-7.99 v 0"
         style="fill:#ff0000;fill-opacity:1;fill-rule:evenodd;stroke:none"
         id="path42"
         inkscape:connector-curvature="0" /><path
         d="m 1243.63,1216.92 c 0,-1.91 -0.24,-3.75 -0.72,-5.5 -0.48,-1.76 -1.17,-3.4 -2.05,-4.91 -0.88,-1.52 -1.94,-2.91 -3.17,-4.12 -1.24,-1.23 -2.63,-2.3 -4.15,-3.18 -1.52,-0.88 -3.16,-1.57 -4.92,-2.05 -1.74,-0.47 -3.59,-0.72 -5.49,-0.72 -2.88,0 -5.56,0.54 -8.04,1.59 -2.47,1.06 -4.64,2.51 -6.49,4.36 -1.85,1.83 -3.3,3.99 -4.35,6.47 -1.05,2.49 -1.56,5.19 -1.56,8.06 0,2.83 0.52,5.49 1.59,7.99 1.06,2.48 2.51,4.65 4.34,6.49 1.83,1.85 4.01,3.31 6.5,4.37 2.47,1.06 5.15,1.6 8.01,1.6 2.84,0 5.49,-0.54 7.99,-1.6 2.5,-1.06 4.69,-2.52 6.53,-4.37 1.85,-1.84 3.31,-4.01 4.38,-6.49 1.07,-2.5 1.6,-5.16 1.6,-7.99 v 0"
         style="fill:#ff0000;fill-opacity:1;fill-rule:evenodd;stroke:none"
         id="path44"
         inkscape:connector-curvature="0" /><path
         d="m 1269.51,1188.01 c 0,-1.91 -0.25,-3.74 -0.74,-5.48 -0.47,-1.76 -1.15,-3.4 -2.04,-4.93 -0.89,-1.52 -1.94,-2.9 -3.18,-4.12 -1.24,-1.23 -2.61,-2.28 -4.15,-3.16 -1.51,-0.89 -3.15,-1.56 -4.9,-2.05 -1.76,-0.49 -3.6,-0.72 -5.51,-0.72 -2.87,0 -5.54,0.52 -8.02,1.58 -2.48,1.06 -4.65,2.52 -6.5,4.35 -1.84,1.84 -3.29,4.01 -4.34,6.49 -1.05,2.48 -1.58,5.17 -1.58,8.04 0,2.84 0.54,5.5 1.6,7.99 1.06,2.49 2.51,4.67 4.35,6.51 1.82,1.84 4,3.3 6.49,4.36 2.48,1.07 5.15,1.59 8,1.59 2.85,0 5.51,-0.52 8.01,-1.59 2.5,-1.06 4.67,-2.52 6.52,-4.36 1.85,-1.84 3.31,-4.02 4.38,-6.51 1.06,-2.49 1.61,-5.15 1.61,-7.99 v 0"
         style="fill:#ff0000;fill-opacity:1;fill-rule:evenodd;stroke:none"
         id="path46"
         inkscape:connector-curvature="0" /><path
         d="m 1291.39,1129.44 c 0,-1.91 -0.25,-3.75 -0.74,-5.5 -0.47,-1.76 -1.15,-3.4 -2.04,-4.91 -0.89,-1.52 -1.94,-2.91 -3.18,-4.12 -1.24,-1.23 -2.62,-2.3 -4.15,-3.18 -1.51,-0.88 -3.15,-1.57 -4.9,-2.05 -1.76,-0.47 -3.6,-0.72 -5.51,-0.72 -2.87,0 -5.54,0.54 -8.02,1.59 -2.48,1.06 -4.65,2.51 -6.5,4.36 -1.84,1.82 -3.29,3.99 -4.34,6.47 -1.05,2.49 -1.58,5.19 -1.58,8.06 0,2.83 0.54,5.49 1.6,7.99 1.06,2.48 2.51,4.65 4.35,6.49 1.82,1.85 4,3.31 6.49,4.37 2.48,1.06 5.16,1.6 8,1.6 2.85,0 5.51,-0.54 8.01,-1.6 2.5,-1.06 4.67,-2.52 6.52,-4.37 1.85,-1.84 3.31,-4.01 4.38,-6.49 1.06,-2.5 1.61,-5.16 1.61,-7.99 v 0"
         style="fill:#ff0000;fill-opacity:1;fill-rule:evenodd;stroke:none"
         id="path48"
         inkscape:connector-curvature="0" /><path
         d="m 1310.33,1142.41 c 0,-1.92 -0.25,-3.75 -0.74,-5.49 -0.47,-1.77 -1.16,-3.41 -2.04,-4.92 -0.88,-1.53 -1.94,-2.91 -3.17,-4.12 -1.25,-1.23 -2.63,-2.3 -4.16,-3.18 -1.51,-0.89 -3.15,-1.56 -4.91,-2.05 -1.75,-0.48 -3.59,-0.71 -5.5,-0.71 -2.87,0 -5.55,0.53 -8.02,1.58 -2.48,1.06 -4.65,2.51 -6.5,4.36 -1.84,1.82 -3.29,3.99 -4.34,6.47 -1.06,2.49 -1.57,5.19 -1.57,8.06 0,2.83 0.52,5.49 1.59,7.99 1.06,2.48 2.51,4.65 4.34,6.49 1.83,1.85 4.01,3.31 6.5,4.37 2.48,1.07 5.15,1.6 8,1.6 2.85,0 5.5,-0.53 8,-1.6 2.5,-1.06 4.69,-2.52 6.53,-4.37 1.85,-1.84 3.31,-4.01 4.38,-6.49 1.07,-2.5 1.61,-5.16 1.61,-7.99 v 0"
         style="fill:#ff0000;fill-opacity:1;fill-rule:evenodd;stroke:none"
         id="path50"
         inkscape:connector-curvature="0" /><path
         d="m 1327.05,1098.81 c 0,-1.91 -0.24,-3.74 -0.74,-5.48 -0.48,-1.76 -1.15,-3.4 -2.03,-4.93 -0.9,-1.52 -1.96,-2.9 -3.19,-4.12 -1.24,-1.23 -2.61,-2.28 -4.15,-3.16 -1.52,-0.89 -3.16,-1.57 -4.9,-2.05 -1.76,-0.49 -3.59,-0.72 -5.51,-0.72 -2.86,0 -5.54,0.52 -8.02,1.58 -2.48,1.06 -4.64,2.52 -6.49,4.35 -1.85,1.84 -3.3,4.01 -4.35,6.49 -1.05,2.48 -1.58,5.17 -1.58,8.04 0,2.84 0.54,5.5 1.6,7.99 1.06,2.49 2.51,4.66 4.35,6.51 1.83,1.84 4,3.3 6.49,4.36 2.48,1.07 5.16,1.59 8,1.59 2.85,0 5.51,-0.52 8.01,-1.59 2.5,-1.06 4.67,-2.52 6.51,-4.36 1.86,-1.85 3.32,-4.02 4.38,-6.51 1.07,-2.49 1.62,-5.15 1.62,-7.99 v 0"
         style="fill:#ff0000;fill-opacity:1;fill-rule:evenodd;stroke:none"
         id="path52"
         inkscape:connector-curvature="0" /><path
         d="m 1342,1090.87 c 0,-1.92 -0.25,-3.74 -0.74,-5.49 -0.47,-1.76 -1.15,-3.4 -2.04,-4.92 -0.89,-1.53 -1.94,-2.91 -3.18,-4.13 -1.24,-1.23 -2.62,-2.28 -4.15,-3.16 -1.51,-0.89 -3.15,-1.57 -4.9,-2.05 -1.76,-0.49 -3.6,-0.72 -5.51,-0.72 -2.87,0 -5.55,0.52 -8.02,1.58 -2.48,1.06 -4.65,2.52 -6.5,4.35 -1.84,1.84 -3.29,4.01 -4.34,6.49 -1.06,2.48 -1.58,5.17 -1.58,8.05 0,2.83 0.54,5.49 1.6,7.98 1.06,2.49 2.51,4.66 4.35,6.51 1.82,1.84 4,3.3 6.49,4.36 2.48,1.07 5.15,1.59 8,1.59 2.85,0 5.51,-0.52 8.01,-1.59 2.49,-1.06 4.68,-2.52 6.52,-4.36 1.85,-1.85 3.31,-4.02 4.38,-6.51 1.07,-2.49 1.61,-5.15 1.61,-7.98 v 0"
         style="fill:#ff0000;fill-opacity:1;fill-rule:evenodd;stroke:none"
         id="path54"
         inkscape:connector-curvature="0" /><path
         d="m 1355.51,1116.61 c 0,-1.91 -0.24,-3.73 -0.72,-5.49 -0.48,-1.76 -1.17,-3.4 -2.05,-4.92 -0.88,-1.52 -1.94,-2.89 -3.17,-4.12 -1.24,-1.23 -2.63,-2.29 -4.15,-3.17 -1.52,-0.88 -3.16,-1.56 -4.92,-2.05 -1.75,-0.48 -3.59,-0.72 -5.5,-0.72 -2.87,0 -5.55,0.53 -8.03,1.59 -2.47,1.07 -4.64,2.51 -6.49,4.35 -1.85,1.83 -3.3,4 -4.35,6.48 -1.05,2.49 -1.56,5.18 -1.56,8.05 0,2.85 0.52,5.51 1.59,7.99 1.06,2.5 2.51,4.66 4.34,6.5 1.83,1.86 4.01,3.32 6.5,4.37 2.47,1.06 5.15,1.59 8,1.59 2.85,0 5.5,-0.53 8,-1.59 2.5,-1.05 4.69,-2.51 6.53,-4.37 1.85,-1.84 3.31,-4 4.38,-6.5 1.07,-2.48 1.6,-5.14 1.6,-7.99 v 0"
         style="fill:#ff0000;fill-opacity:1;fill-rule:evenodd;stroke:none"
         id="path56"
         inkscape:connector-curvature="0" /><path
         d="m 1367.87,1116.49 c 0,-1.91 -0.24,-3.73 -0.74,-5.49 -0.47,-1.76 -1.15,-3.4 -2.04,-4.92 -0.89,-1.52 -1.95,-2.89 -3.18,-4.12 -1.24,-1.23 -2.61,-2.29 -4.15,-3.16 -1.51,-0.88 -3.16,-1.57 -4.9,-2.06 -1.76,-0.48 -3.6,-0.72 -5.51,-0.72 -2.87,0 -5.54,0.53 -8.02,1.59 -2.48,1.07 -4.65,2.51 -6.49,4.35 -1.85,1.84 -3.3,4 -4.35,6.48 -1.05,2.49 -1.58,5.18 -1.58,8.05 0,2.84 0.54,5.51 1.6,7.99 1.06,2.5 2.51,4.67 4.35,6.5 1.82,1.86 4,3.31 6.49,4.38 2.48,1.05 5.16,1.58 8,1.58 2.85,0 5.51,-0.53 8.01,-1.58 2.5,-1.07 4.67,-2.52 6.52,-4.38 1.85,-1.83 3.31,-4 4.37,-6.5 1.07,-2.48 1.62,-5.15 1.62,-7.99 v 0"
         style="fill:#ff0000;fill-opacity:1;fill-rule:evenodd;stroke:none"
         id="path58"
         inkscape:connector-curvature="0" /><path
         d="m 1394.72,1210.83 c 0,-1.91 -0.25,-3.73 -0.74,-5.49 -0.47,-1.76 -1.15,-3.4 -2.04,-4.92 -0.89,-1.52 -1.94,-2.89 -3.18,-4.12 -1.24,-1.23 -2.62,-2.29 -4.15,-3.17 -1.51,-0.88 -3.15,-1.56 -4.9,-2.05 -1.76,-0.48 -3.6,-0.72 -5.51,-0.72 -2.87,0 -5.55,0.53 -8.02,1.6 -2.48,1.05 -4.65,2.5 -6.5,4.34 -1.84,1.83 -3.29,4 -4.34,6.48 -1.05,2.5 -1.58,5.19 -1.58,8.05 0,2.85 0.54,5.5 1.6,7.99 1.06,2.49 2.51,4.66 4.35,6.5 1.82,1.85 4,3.32 6.49,4.37 2.48,1.06 5.15,1.59 8,1.59 2.85,0 5.51,-0.53 8.01,-1.59 2.5,-1.05 4.67,-2.52 6.52,-4.37 1.85,-1.84 3.31,-4.01 4.38,-6.5 1.06,-2.49 1.61,-5.14 1.61,-7.99 v 0"
         style="fill:#ff0000;fill-opacity:1;fill-rule:evenodd;stroke:none"
         id="path60"
         inkscape:connector-curvature="0" /><path
         d="m 1404.17,1230.18 c 0,-1.91 -0.23,-3.74 -0.72,-5.49 -0.49,-1.75 -1.16,-3.39 -2.04,-4.92 -0.9,-1.52 -1.96,-2.9 -3.19,-4.12 -1.24,-1.23 -2.61,-2.28 -4.14,-3.16 -1.53,-0.88 -3.17,-1.57 -4.91,-2.05 -1.75,-0.49 -3.59,-0.73 -5.5,-0.73 -2.87,0 -5.55,0.53 -8.04,1.59 -2.48,1.06 -4.63,2.51 -6.48,4.35 -1.86,1.84 -3.31,4 -4.36,6.49 -1.04,2.48 -1.57,5.17 -1.57,8.04 0,2.84 0.53,5.51 1.59,7.99 1.06,2.49 2.51,4.67 4.36,6.5 1.83,1.86 3.99,3.31 6.48,4.38 2.48,1.05 5.17,1.58 8.02,1.58 2.83,0 5.5,-0.53 8,-1.58 2.5,-1.07 4.67,-2.52 6.51,-4.38 1.85,-1.83 3.31,-4.01 4.38,-6.5 1.07,-2.48 1.61,-5.15 1.61,-7.99 v 0"
         style="fill:#ff0000;fill-opacity:1;fill-rule:evenodd;stroke:none"
         id="path62"
         inkscape:connector-curvature="0" /><path
         d="m 1421.4,1209.46 c 0,-1.91 -0.24,-3.75 -0.74,-5.5 -0.47,-1.76 -1.15,-3.4 -2.04,-4.91 -0.89,-1.52 -1.95,-2.91 -3.18,-4.12 -1.24,-1.23 -2.61,-2.3 -4.15,-3.18 -1.51,-0.88 -3.16,-1.57 -4.9,-2.05 -1.76,-0.48 -3.6,-0.72 -5.51,-0.72 -2.87,0 -5.54,0.54 -8.02,1.59 -2.48,1.06 -4.65,2.51 -6.49,4.36 -1.85,1.82 -3.3,3.99 -4.35,6.47 -1.05,2.49 -1.58,5.19 -1.58,8.06 0,2.83 0.54,5.49 1.6,7.99 1.06,2.48 2.51,4.65 4.35,6.49 1.82,1.85 4,3.31 6.49,4.37 2.48,1.06 5.16,1.6 8,1.6 2.85,0 5.51,-0.54 8.01,-1.6 2.5,-1.06 4.67,-2.52 6.52,-4.37 1.85,-1.84 3.31,-4.01 4.38,-6.49 1.06,-2.5 1.61,-5.16 1.61,-7.99 v 0"
         style="fill:#ff0000;fill-opacity:1;fill-rule:evenodd;stroke:none"
         id="path64"
         inkscape:connector-curvature="0" /><path
         d="m 1440.35,1225.09 c 0,-1.9 -0.24,-3.74 -0.74,-5.49 -0.47,-1.76 -1.15,-3.4 -2.04,-4.92 -0.89,-1.51 -1.94,-2.9 -3.18,-4.12 -1.24,-1.23 -2.61,-2.29 -4.15,-3.17 -1.51,-0.88 -3.16,-1.56 -4.9,-2.05 -1.76,-0.47 -3.6,-0.71 -5.51,-0.71 -2.87,0 -5.54,0.52 -8.02,1.59 -2.48,1.05 -4.65,2.5 -6.5,4.34 -1.84,1.83 -3.29,4 -4.34,6.48 -1.05,2.5 -1.58,5.18 -1.58,8.05 0,2.85 0.54,5.5 1.6,7.99 1.06,2.49 2.51,4.66 4.35,6.5 1.82,1.85 4,3.32 6.49,4.37 2.48,1.06 5.15,1.59 8,1.59 2.85,0 5.51,-0.53 8.01,-1.59 2.5,-1.05 4.67,-2.52 6.52,-4.37 1.85,-1.84 3.31,-4.01 4.38,-6.5 1.06,-2.49 1.61,-5.14 1.61,-7.99 v 0"
         style="fill:#ff0000;fill-opacity:1;fill-rule:evenodd;stroke:none"
         id="path66"
         inkscape:connector-curvature="0" /><path
         d="m 1457.07,1242.12 c 0,-1.92 -0.24,-3.74 -0.74,-5.49 -0.48,-1.76 -1.15,-3.4 -2.03,-4.92 -0.9,-1.53 -1.96,-2.91 -3.19,-4.13 -1.24,-1.23 -2.61,-2.28 -4.15,-3.16 -1.52,-0.89 -3.16,-1.57 -4.9,-2.05 -1.76,-0.49 -3.59,-0.72 -5.51,-0.72 -2.86,0 -5.54,0.52 -8.02,1.58 -2.49,1.06 -4.64,2.52 -6.49,4.35 -1.85,1.84 -3.3,4.01 -4.35,6.49 -1.05,2.48 -1.58,5.17 -1.58,8.05 0,2.83 0.54,5.49 1.6,7.98 1.05,2.49 2.5,4.66 4.35,6.51 1.83,1.84 3.99,3.3 6.48,4.36 2.49,1.07 5.17,1.59 8.01,1.59 2.84,0 5.51,-0.52 8.01,-1.59 2.5,-1.06 4.67,-2.52 6.51,-4.36 1.85,-1.85 3.31,-4.02 4.38,-6.51 1.07,-2.49 1.62,-5.15 1.62,-7.98 v 0"
         style="fill:#ff0000;fill-opacity:1;fill-rule:evenodd;stroke:none"
         id="path68"
         inkscape:connector-curvature="0" /><path
         d="m 1472.02,1261.08 c 0,-1.91 -0.24,-3.73 -0.74,-5.49 -0.47,-1.76 -1.15,-3.4 -2.04,-4.92 -0.89,-1.52 -1.95,-2.89 -3.18,-4.12 -1.24,-1.23 -2.61,-2.29 -4.15,-3.16 -1.51,-0.88 -3.16,-1.57 -4.9,-2.06 -1.76,-0.48 -3.6,-0.72 -5.51,-0.72 -2.87,0 -5.54,0.53 -8.02,1.59 -2.48,1.07 -4.65,2.51 -6.49,4.35 -1.85,1.84 -3.3,4 -4.35,6.48 -1.05,2.49 -1.58,5.18 -1.58,8.05 0,2.84 0.54,5.51 1.6,7.99 1.06,2.5 2.51,4.67 4.35,6.5 1.82,1.86 4,3.31 6.49,4.38 2.48,1.05 5.16,1.58 8,1.58 2.85,0 5.51,-0.53 8.01,-1.58 2.5,-1.07 4.67,-2.52 6.52,-4.38 1.85,-1.83 3.31,-4 4.38,-6.5 1.06,-2.48 1.61,-5.15 1.61,-7.99 v 0"
         style="fill:#ff0000;fill-opacity:1;fill-rule:evenodd;stroke:none"
         id="path70"
         inkscape:connector-curvature="0" /><path
         d="m 1485.54,1263.03 c 0,-1.91 -0.25,-3.74 -0.74,-5.48 -0.47,-1.76 -1.16,-3.4 -2.04,-4.93 -0.88,-1.52 -1.94,-2.9 -3.18,-4.12 -1.24,-1.23 -2.62,-2.28 -4.15,-3.16 -1.51,-0.89 -3.15,-1.56 -4.9,-2.05 -1.76,-0.49 -3.6,-0.73 -5.51,-0.73 -2.87,0 -5.55,0.53 -8.02,1.59 -2.48,1.06 -4.65,2.52 -6.5,4.35 -1.84,1.84 -3.29,4.01 -4.34,6.49 -1.06,2.48 -1.58,5.17 -1.58,8.04 0,2.84 0.54,5.5 1.6,7.99 1.06,2.49 2.51,4.67 4.35,6.51 1.82,1.84 4,3.3 6.49,4.36 2.48,1.07 5.15,1.59 8,1.59 2.85,0 5.51,-0.52 8.01,-1.59 2.5,-1.06 4.68,-2.52 6.52,-4.36 1.85,-1.84 3.31,-4.02 4.38,-6.51 1.07,-2.49 1.61,-5.15 1.61,-7.99 v 0"
         style="fill:#ff0000;fill-opacity:1;fill-rule:evenodd;stroke:none"
         id="path72"
         inkscape:connector-curvature="0" /><path
         d="m 1497.89,1239.72 c 0,-1.9 -0.24,-3.74 -0.74,-5.49 -0.48,-1.76 -1.15,-3.4 -2.03,-4.92 -0.9,-1.51 -1.96,-2.9 -3.19,-4.12 -1.24,-1.23 -2.61,-2.29 -4.15,-3.17 -1.52,-0.88 -3.16,-1.56 -4.9,-2.05 -1.76,-0.47 -3.59,-0.72 -5.51,-0.72 -2.86,0 -5.54,0.53 -8.02,1.6 -2.48,1.05 -4.64,2.5 -6.49,4.34 -1.85,1.83 -3.3,4 -4.35,6.48 -1.05,2.5 -1.58,5.18 -1.58,8.05 0,2.84 0.54,5.5 1.6,7.99 1.05,2.49 2.51,4.66 4.35,6.51 1.83,1.84 4,3.31 6.49,4.36 2.48,1.06 5.16,1.59 8,1.59 2.84,0 5.51,-0.53 8.01,-1.59 2.5,-1.05 4.67,-2.52 6.51,-4.36 1.86,-1.85 3.32,-4.02 4.38,-6.51 1.07,-2.49 1.62,-5.15 1.62,-7.99 v 0"
         style="fill:#ff0000;fill-opacity:1;fill-rule:evenodd;stroke:none"
         id="path74"
         inkscape:connector-curvature="0" /><path
         d="m 1509.23,1253.01 c 0,-1.91 -0.24,-3.74 -0.72,-5.48 -0.48,-1.76 -1.17,-3.4 -2.05,-4.93 -0.88,-1.52 -1.94,-2.9 -3.17,-4.12 -1.24,-1.23 -2.63,-2.28 -4.15,-3.16 -1.52,-0.89 -3.16,-1.56 -4.92,-2.05 -1.74,-0.49 -3.59,-0.72 -5.49,-0.72 -2.88,0 -5.56,0.52 -8.04,1.58 -2.48,1.06 -4.64,2.52 -6.49,4.35 -1.85,1.84 -3.3,4.01 -4.35,6.49 -1.05,2.48 -1.56,5.17 -1.56,8.04 0,2.84 0.52,5.5 1.58,7.99 1.07,2.49 2.51,4.67 4.35,6.51 1.83,1.84 4,3.3 6.49,4.36 2.48,1.07 5.16,1.59 8.02,1.59 2.84,0 5.49,-0.52 7.99,-1.59 2.5,-1.06 4.69,-2.52 6.53,-4.36 1.84,-1.84 3.3,-4.02 4.38,-6.51 1.07,-2.49 1.6,-5.15 1.6,-7.99 v 0"
         style="fill:#ff0000;fill-opacity:1;fill-rule:evenodd;stroke:none"
         id="path76"
         inkscape:connector-curvature="0" /><path
         d="m 1519.76,1262.62 c 0,-1.91 -0.24,-3.74 -0.74,-5.48 -0.48,-1.76 -1.15,-3.4 -2.03,-4.93 -0.9,-1.52 -1.96,-2.9 -3.19,-4.12 -1.24,-1.23 -2.61,-2.28 -4.15,-3.16 -1.52,-0.89 -3.16,-1.56 -4.9,-2.05 -1.76,-0.49 -3.59,-0.73 -5.51,-0.73 -2.86,0 -5.54,0.53 -8.02,1.59 -2.48,1.06 -4.64,2.52 -6.49,4.35 -1.85,1.84 -3.3,4.01 -4.35,6.49 -1.05,2.48 -1.58,5.17 -1.58,8.04 0,2.85 0.54,5.5 1.6,7.99 1.06,2.49 2.51,4.67 4.35,6.51 1.83,1.84 4,3.3 6.49,4.37 2.48,1.06 5.16,1.58 8,1.58 2.84,0 5.51,-0.52 8.01,-1.58 2.5,-1.07 4.67,-2.53 6.51,-4.37 1.86,-1.84 3.32,-4.02 4.38,-6.51 1.07,-2.49 1.62,-5.14 1.62,-7.99 v 0"
         style="fill:#ff0000;fill-opacity:1;fill-rule:evenodd;stroke:none"
         id="path78"
         inkscape:connector-curvature="0" /><path
         d="m 1538.71,1285.4 c 0,-1.91 -0.24,-3.73 -0.74,-5.49 -0.47,-1.76 -1.15,-3.4 -2.04,-4.92 -0.89,-1.52 -1.95,-2.89 -3.18,-4.12 -1.24,-1.23 -2.61,-2.29 -4.15,-3.17 -1.52,-0.88 -3.16,-1.56 -4.9,-2.05 -1.76,-0.48 -3.6,-0.72 -5.51,-0.72 -2.86,0 -5.54,0.54 -8.02,1.59 -2.48,1.06 -4.64,2.51 -6.49,4.35 -1.85,1.83 -3.3,4 -4.35,6.48 -1.05,2.5 -1.58,5.18 -1.58,8.05 0,2.85 0.54,5.5 1.6,7.99 1.06,2.5 2.51,4.66 4.35,6.5 1.83,1.85 4,3.32 6.49,4.37 2.48,1.06 5.16,1.59 8,1.59 2.85,0 5.51,-0.53 8.01,-1.59 2.5,-1.05 4.67,-2.52 6.51,-4.37 1.86,-1.84 3.32,-4 4.38,-6.5 1.07,-2.49 1.62,-5.14 1.62,-7.99 v 0"
         style="fill:#ff0000;fill-opacity:1;fill-rule:evenodd;stroke:none"
         id="path80"
         inkscape:connector-curvature="0" /><path
         d="m 1555.42,1280.93 c 0,-1.9 -0.24,-3.74 -0.73,-5.49 -0.49,-1.76 -1.16,-3.4 -2.04,-4.92 -0.9,-1.51 -1.96,-2.9 -3.19,-4.12 -1.24,-1.23 -2.61,-2.29 -4.15,-3.17 -1.52,-0.88 -3.16,-1.56 -4.9,-2.05 -1.75,-0.47 -3.59,-0.71 -5.5,-0.71 -2.87,0 -5.55,0.52 -8.03,1.59 -2.49,1.05 -4.64,2.5 -6.49,4.34 -1.85,1.83 -3.31,4 -4.35,6.48 -1.05,2.5 -1.58,5.18 -1.58,8.05 0,2.85 0.54,5.5 1.59,7.99 1.06,2.49 2.51,4.66 4.36,6.5 1.83,1.85 3.99,3.32 6.48,4.37 2.49,1.06 5.17,1.59 8.02,1.59 2.83,0 5.5,-0.53 8,-1.59 2.5,-1.05 4.67,-2.52 6.51,-4.37 1.85,-1.84 3.31,-4.01 4.38,-6.5 1.07,-2.49 1.62,-5.14 1.62,-7.99 v 0"
         style="fill:#ff0000;fill-opacity:1;fill-rule:evenodd;stroke:none"
         id="path82"
         inkscape:connector-curvature="0" /><path
         d="m 1570.37,1327.12 c 0,-1.92 -0.24,-3.74 -0.74,-5.49 -0.47,-1.76 -1.15,-3.4 -2.04,-4.92 -0.89,-1.53 -1.95,-2.91 -3.18,-4.13 -1.24,-1.23 -2.61,-2.28 -4.15,-3.16 -1.51,-0.89 -3.16,-1.57 -4.9,-2.05 -1.76,-0.49 -3.6,-0.72 -5.51,-0.72 -2.87,0 -5.54,0.52 -8.02,1.58 -2.48,1.06 -4.65,2.52 -6.49,4.35 -1.85,1.84 -3.3,4.01 -4.35,6.49 -1.05,2.48 -1.58,5.17 -1.58,8.05 0,2.83 0.54,5.49 1.6,7.98 1.06,2.49 2.51,4.66 4.35,6.51 1.82,1.84 4,3.3 6.49,4.36 2.48,1.07 5.16,1.59 8,1.59 2.85,0 5.51,-0.52 8.01,-1.59 2.5,-1.06 4.67,-2.52 6.52,-4.36 1.85,-1.85 3.31,-4.02 4.37,-6.51 1.07,-2.49 1.62,-5.15 1.62,-7.98 v 0"
         style="fill:#ff0000;fill-opacity:1;fill-rule:evenodd;stroke:none"
         id="path84"
         inkscape:connector-curvature="0" /><path
         d="m 1596.24,1377.53 c 0,-1.91 -0.24,-3.73 -0.74,-5.49 -0.48,-1.76 -1.15,-3.4 -2.03,-4.91 -0.9,-1.53 -1.96,-2.91 -3.19,-4.13 -1.24,-1.23 -2.61,-2.29 -4.15,-3.17 -1.52,-0.88 -3.16,-1.56 -4.9,-2.05 -1.76,-0.48 -3.59,-0.72 -5.51,-0.72 -2.86,0 -5.54,0.53 -8.02,1.6 -2.49,1.05 -4.64,2.5 -6.49,4.34 -1.85,1.83 -3.3,4 -4.35,6.48 -1.05,2.5 -1.58,5.18 -1.58,8.05 0,2.85 0.54,5.5 1.6,7.99 1.05,2.49 2.5,4.66 4.35,6.5 1.83,1.85 3.99,3.32 6.48,4.37 2.49,1.06 5.17,1.59 8.01,1.59 2.84,0 5.51,-0.53 8.01,-1.59 2.5,-1.05 4.67,-2.52 6.51,-4.37 1.85,-1.84 3.31,-4.01 4.38,-6.5 1.07,-2.49 1.62,-5.14 1.62,-7.99 v 0"
         style="fill:#ff0000;fill-opacity:1;fill-rule:evenodd;stroke:none"
         id="path86"
         inkscape:connector-curvature="0" /><path
         d="m 1627.9,1375.73 c 0,-1.92 -0.24,-3.75 -0.74,-5.5 -0.48,-1.76 -1.15,-3.4 -2.03,-4.91 -0.9,-1.52 -1.96,-2.91 -3.19,-4.12 -1.24,-1.23 -2.61,-2.3 -4.15,-3.18 -1.52,-0.88 -3.16,-1.56 -4.9,-2.05 -1.76,-0.48 -3.59,-0.71 -5.51,-0.71 -2.86,0 -5.54,0.53 -8.02,1.58 -2.48,1.06 -4.64,2.51 -6.49,4.36 -1.85,1.82 -3.3,3.99 -4.35,6.47 -1.05,2.49 -1.58,5.19 -1.58,8.06 0,2.83 0.54,5.49 1.6,7.99 1.05,2.48 2.5,4.66 4.35,6.49 1.83,1.85 3.99,3.31 6.49,4.37 2.48,1.06 5.16,1.6 8,1.6 2.84,0 5.51,-0.54 8.01,-1.6 2.5,-1.06 4.67,-2.52 6.51,-4.37 1.85,-1.83 3.31,-4.01 4.38,-6.49 1.07,-2.5 1.62,-5.16 1.62,-7.99 v 0"
         style="fill:#ff0000;fill-opacity:1;fill-rule:evenodd;stroke:none"
         id="path88"
         inkscape:connector-curvature="0" /><path
         d="m 1653.76,1375.28 c 0,-1.91 -0.23,-3.73 -0.72,-5.49 -0.49,-1.76 -1.16,-3.4 -2.04,-4.92 -0.89,-1.52 -1.96,-2.89 -3.19,-4.12 -1.23,-1.23 -2.61,-2.29 -4.14,-3.17 -1.53,-0.87 -3.17,-1.56 -4.92,-2.05 -1.74,-0.48 -3.58,-0.72 -5.49,-0.72 -2.87,0 -5.55,0.53 -8.04,1.59 -2.48,1.07 -4.63,2.51 -6.48,4.35 -1.86,1.83 -3.31,4 -4.36,6.48 -1.05,2.49 -1.57,5.18 -1.57,8.05 0,2.84 0.53,5.51 1.59,7.99 1.06,2.5 2.51,4.67 4.35,6.5 1.84,1.86 4,3.31 6.49,4.38 2.48,1.05 5.17,1.58 8.02,1.58 2.83,0 5.49,-0.53 7.99,-1.58 2.5,-1.07 4.68,-2.52 6.52,-4.38 1.85,-1.83 3.31,-4 4.38,-6.5 1.07,-2.48 1.61,-5.15 1.61,-7.99 v 0"
         style="fill:#ff0000;fill-opacity:1;fill-rule:evenodd;stroke:none"
         id="path90"
         inkscape:connector-curvature="0" /><path
         d="m 1668.72,1425.26 c 0,-1.91 -0.24,-3.73 -0.74,-5.49 -0.48,-1.76 -1.15,-3.4 -2.03,-4.92 -0.9,-1.52 -1.96,-2.89 -3.19,-4.12 -1.24,-1.23 -2.61,-2.29 -4.15,-3.17 -1.52,-0.87 -3.16,-1.56 -4.9,-2.05 -1.76,-0.48 -3.59,-0.72 -5.51,-0.72 -2.86,0 -5.54,0.53 -8.02,1.59 -2.48,1.07 -4.64,2.51 -6.49,4.35 -1.85,1.83 -3.3,4 -4.35,6.48 -1.05,2.49 -1.58,5.18 -1.58,8.05 0,2.84 0.54,5.51 1.6,7.99 1.06,2.5 2.51,4.67 4.35,6.5 1.83,1.86 4,3.31 6.49,4.38 2.48,1.05 5.16,1.58 8,1.58 2.84,0 5.51,-0.53 8.01,-1.58 2.5,-1.07 4.67,-2.52 6.51,-4.38 1.86,-1.83 3.32,-4 4.38,-6.5 1.07,-2.48 1.62,-5.15 1.62,-7.99 v 0"
         style="fill:#ff0000;fill-opacity:1;fill-rule:evenodd;stroke:none"
         id="path92"
         inkscape:connector-curvature="0" /><path
         d="m 1694.59,1422.45 c 0,-1.91 -0.23,-3.73 -0.72,-5.49 -0.49,-1.76 -1.16,-3.4 -2.04,-4.92 -0.9,-1.52 -1.96,-2.89 -3.19,-4.12 -1.23,-1.23 -2.61,-2.29 -4.14,-3.17 -1.53,-0.88 -3.17,-1.56 -4.92,-2.05 -1.74,-0.48 -3.58,-0.72 -5.49,-0.72 -2.87,0 -5.55,0.53 -8.04,1.59 -2.48,1.07 -4.63,2.51 -6.48,4.35 -1.86,1.83 -3.31,4 -4.36,6.48 -1.04,2.49 -1.57,5.18 -1.57,8.05 0,2.85 0.53,5.51 1.59,7.99 1.06,2.5 2.51,4.66 4.35,6.5 1.84,1.86 4,3.32 6.49,4.37 2.48,1.06 5.17,1.59 8.02,1.59 2.83,0 5.49,-0.53 7.99,-1.59 2.5,-1.05 4.68,-2.51 6.52,-4.37 1.85,-1.84 3.31,-4 4.38,-6.5 1.07,-2.48 1.61,-5.14 1.61,-7.99 v 0"
         style="fill:#ff0000;fill-opacity:1;fill-rule:evenodd;stroke:none"
         id="path94"
         inkscape:connector-curvature="0" /><path
         d="m 1726.25,1438.04 c 0,-1.9 -0.23,-3.74 -0.72,-5.49 -0.49,-1.76 -1.16,-3.4 -2.04,-4.92 -0.9,-1.51 -1.96,-2.9 -3.19,-4.12 -1.23,-1.23 -2.61,-2.29 -4.14,-3.17 -1.53,-0.88 -3.17,-1.56 -4.91,-2.05 -1.75,-0.47 -3.59,-0.72 -5.5,-0.72 -2.87,0 -5.55,0.53 -8.04,1.6 -2.48,1.05 -4.63,2.5 -6.48,4.34 -1.85,1.83 -3.31,4 -4.35,6.48 -1.05,2.5 -1.58,5.18 -1.58,8.05 0,2.85 0.53,5.5 1.59,7.99 1.06,2.49 2.51,4.66 4.36,6.5 1.83,1.85 3.99,3.32 6.48,4.37 2.48,1.06 5.17,1.59 8.02,1.59 2.83,0 5.5,-0.53 8,-1.59 2.5,-1.05 4.67,-2.52 6.51,-4.37 1.85,-1.84 3.31,-4.01 4.38,-6.5 1.07,-2.49 1.61,-5.14 1.61,-7.99 v 0"
         style="fill:#ff0000;fill-opacity:1;fill-rule:evenodd;stroke:none"
         id="path96"
         inkscape:connector-curvature="0" /><path
         d="m 1767.08,1504.75 c 0,-1.91 -0.24,-3.74 -0.74,-5.49 -0.48,-1.75 -1.15,-3.39 -2.03,-4.92 -0.9,-1.52 -1.96,-2.9 -3.19,-4.12 -1.24,-1.23 -2.61,-2.28 -4.15,-3.16 -1.52,-0.88 -3.16,-1.57 -4.9,-2.05 -1.76,-0.49 -3.59,-0.73 -5.51,-0.73 -2.86,0 -5.54,0.53 -8.02,1.59 -2.49,1.06 -4.64,2.52 -6.49,4.35 -1.85,1.84 -3.3,4 -4.35,6.49 -1.05,2.48 -1.58,5.17 -1.58,8.04 0,2.84 0.54,5.51 1.59,7.99 1.06,2.49 2.51,4.67 4.36,6.5 1.83,1.86 3.99,3.31 6.48,4.38 2.49,1.05 5.17,1.58 8.01,1.58 2.84,0 5.51,-0.53 8.01,-1.58 2.5,-1.07 4.67,-2.52 6.51,-4.38 1.85,-1.83 3.31,-4.01 4.38,-6.5 1.07,-2.48 1.62,-5.15 1.62,-7.99 v 0"
         style="fill:#ff0000;fill-opacity:1;fill-rule:evenodd;stroke:none"
         id="path98"
         inkscape:connector-curvature="0" /><path
         d="m 1798.74,1584.01 c 0,-1.91 -0.24,-3.73 -0.74,-5.49 -0.48,-1.76 -1.15,-3.4 -2.03,-4.92 -0.9,-1.52 -1.96,-2.89 -3.19,-4.12 -1.24,-1.23 -2.61,-2.29 -4.15,-3.17 -1.52,-0.87 -3.16,-1.56 -4.9,-2.05 -1.76,-0.48 -3.59,-0.72 -5.51,-0.72 -2.86,0 -5.54,0.53 -8.02,1.59 -2.49,1.07 -4.64,2.51 -6.49,4.35 -1.85,1.83 -3.3,4 -4.35,6.48 -1.05,2.49 -1.58,5.18 -1.58,8.05 0,2.84 0.54,5.51 1.6,7.99 1.05,2.5 2.5,4.67 4.35,6.5 1.83,1.86 3.99,3.31 6.48,4.38 2.49,1.05 5.17,1.58 8.01,1.58 2.84,0 5.51,-0.53 8.01,-1.58 2.5,-1.07 4.67,-2.52 6.51,-4.38 1.85,-1.83 3.31,-4 4.38,-6.5 1.07,-2.48 1.62,-5.15 1.62,-7.99 v 0"
         style="fill:#ff0000;fill-opacity:1;fill-rule:evenodd;stroke:none"
         id="path100"
         inkscape:connector-curvature="0" /><path
         d="m 1824.6,1633.72 c 0,-1.91 -0.23,-3.73 -0.72,-5.49 -0.49,-1.76 -1.17,-3.4 -2.04,-4.92 -0.89,-1.52 -1.96,-2.89 -3.19,-4.12 -1.23,-1.22 -2.61,-2.29 -4.14,-3.17 -1.53,-0.88 -3.17,-1.56 -4.92,-2.05 -1.74,-0.48 -3.58,-0.72 -5.49,-0.72 -2.87,0 -5.56,0.53 -8.04,1.59 -2.48,1.06 -4.63,2.51 -6.48,4.35 -1.86,1.83 -3.31,4 -4.36,6.48 -1.05,2.5 -1.57,5.18 -1.57,8.05 0,2.85 0.53,5.5 1.59,8 1.06,2.49 2.51,4.65 4.35,6.49 1.84,1.85 4,3.32 6.49,4.37 2.48,1.06 5.17,1.59 8.02,1.59 2.83,0 5.49,-0.53 7.99,-1.59 2.5,-1.05 4.69,-2.52 6.52,-4.37 1.85,-1.84 3.31,-4 4.38,-6.49 1.07,-2.5 1.61,-5.15 1.61,-8 v 0"
         style="fill:#ff0000;fill-opacity:1;fill-rule:evenodd;stroke:none"
         id="path102"
         inkscape:connector-curvature="0" /><path
         d="m 1846.48,1605.07 c 0,-1.9 -0.23,-3.74 -0.72,-5.49 -0.49,-1.76 -1.17,-3.4 -2.04,-4.92 -0.9,-1.52 -1.96,-2.9 -3.18,-4.12 -1.24,-1.23 -2.62,-2.29 -4.15,-3.17 -1.53,-0.88 -3.17,-1.56 -4.92,-2.05 -1.74,-0.47 -3.58,-0.72 -5.49,-0.72 -2.87,0 -5.56,0.53 -8.04,1.6 -2.48,1.05 -4.63,2.5 -6.48,4.34 -1.86,1.83 -3.31,4 -4.36,6.48 -1.05,2.5 -1.56,5.18 -1.56,8.05 0,2.85 0.52,5.5 1.58,7.99 1.06,2.49 2.51,4.66 4.35,6.5 1.84,1.85 4,3.32 6.49,4.37 2.48,1.06 5.17,1.59 8.02,1.59 2.83,0 5.49,-0.53 7.99,-1.59 2.5,-1.05 4.68,-2.52 6.52,-4.37 1.85,-1.84 3.31,-4.01 4.38,-6.5 1.08,-2.49 1.61,-5.14 1.61,-7.99 v 0"
         style="fill:#ff0000;fill-opacity:1;fill-rule:evenodd;stroke:none"
         id="path104"
         inkscape:connector-curvature="0" /><path
         d="m 1889.81,1669.56 c 0,-1.92 -0.23,-3.75 -0.72,-5.49 -0.49,-1.77 -1.17,-3.4 -2.04,-4.92 -0.89,-1.53 -1.96,-2.91 -3.18,-4.12 -1.25,-1.23 -2.62,-2.3 -4.16,-3.18 -1.52,-0.88 -3.16,-1.56 -4.9,-2.05 -1.76,-0.48 -3.59,-0.71 -5.51,-0.71 -2.86,0 -5.55,0.53 -8.03,1.58 -2.48,1.05 -4.63,2.52 -6.48,4.36 -1.86,1.82 -3.31,4 -4.36,6.48 -1.05,2.48 -1.56,5.18 -1.56,8.05 0,2.83 0.52,5.49 1.58,7.99 1.06,2.48 2.51,4.65 4.35,6.5 1.84,1.84 4,3.3 6.49,4.36 2.48,1.07 5.17,1.6 8.01,1.6 2.84,0 5.51,-0.53 8.01,-1.6 2.5,-1.06 4.67,-2.52 6.51,-4.36 1.85,-1.85 3.31,-4.02 4.39,-6.5 1.07,-2.5 1.6,-5.16 1.6,-7.99 v 0"
         style="fill:#ff0000;fill-opacity:1;fill-rule:evenodd;stroke:none"
         id="path106"
         inkscape:connector-curvature="0" /><path
         d="m 1897.09,1687.43 c 0,-1.91 -0.23,-3.73 -0.72,-5.49 -0.49,-1.76 -1.17,-3.4 -2.05,-4.92 -0.88,-1.52 -1.95,-2.89 -3.18,-4.12 -1.23,-1.23 -2.62,-2.29 -4.14,-3.17 -1.53,-0.88 -3.17,-1.56 -4.92,-2.05 -1.74,-0.48 -3.58,-0.72 -5.49,-0.72 -2.87,0 -5.55,0.53 -8.03,1.59 -2.49,1.07 -4.64,2.51 -6.49,4.35 -1.86,1.83 -3.31,4 -4.36,6.48 -1.04,2.49 -1.57,5.18 -1.57,8.05 0,2.85 0.53,5.51 1.59,7.99 1.06,2.5 2.51,4.66 4.35,6.5 1.84,1.86 4,3.31 6.5,4.38 2.48,1.05 5.16,1.58 8.01,1.58 2.83,0 5.49,-0.53 7.99,-1.58 2.5,-1.07 4.68,-2.52 6.52,-4.38 1.85,-1.84 3.32,-4 4.38,-6.5 1.07,-2.48 1.61,-5.14 1.61,-7.99 v 0"
         style="fill:#ff0000;fill-opacity:1;fill-rule:evenodd;stroke:none"
         id="path108"
         inkscape:connector-curvature="0" /><path
         d="m 1922.96,1688.54 c 0,-1.91 -0.24,-3.74 -0.73,-5.49 -0.48,-1.75 -1.15,-3.4 -2.03,-4.92 -0.9,-1.52 -1.95,-2.9 -3.18,-4.12 -1.24,-1.23 -2.62,-2.29 -4.15,-3.16 -1.52,-0.88 -3.16,-1.57 -4.92,-2.05 -1.74,-0.49 -3.59,-0.73 -5.49,-0.73 -2.88,0 -5.56,0.53 -8.04,1.58 -2.48,1.08 -4.63,2.52 -6.49,4.36 -1.85,1.84 -3.3,4 -4.35,6.48 -1.05,2.49 -1.56,5.18 -1.56,8.05 0,2.84 0.52,5.51 1.58,7.99 1.06,2.5 2.52,4.67 4.35,6.5 1.84,1.86 4.01,3.31 6.49,4.38 2.48,1.05 5.16,1.58 8.02,1.58 2.84,0 5.49,-0.53 7.99,-1.58 2.5,-1.07 4.69,-2.52 6.53,-4.38 1.84,-1.83 3.3,-4 4.37,-6.5 1.08,-2.48 1.61,-5.15 1.61,-7.99 v 0"
         style="fill:#ff0000;fill-opacity:1;fill-rule:evenodd;stroke:none"
         id="path110"
         inkscape:connector-curvature="0" /><path
         d="m 2005.71,1816.59 c 0,-1.92 -0.25,-3.75 -0.73,-5.49 -0.48,-1.77 -1.17,-3.41 -2.05,-4.92 -0.88,-1.53 -1.95,-2.91 -3.18,-4.12 -1.23,-1.23 -2.62,-2.3 -4.14,-3.18 -1.52,-0.89 -3.16,-1.56 -4.92,-2.05 -1.74,-0.48 -3.59,-0.71 -5.49,-0.71 -2.87,0 -5.56,0.53 -8.04,1.58 -2.48,1.06 -4.64,2.51 -6.49,4.36 -1.85,1.82 -3.3,3.99 -4.35,6.47 -1.04,2.49 -1.57,5.19 -1.57,8.06 0,2.83 0.53,5.49 1.59,7.99 1.07,2.48 2.51,4.65 4.35,6.5 1.83,1.84 4,3.3 6.49,4.36 2.48,1.07 5.17,1.6 8.02,1.6 2.83,0 5.49,-0.53 7.99,-1.6 2.5,-1.06 4.69,-2.52 6.52,-4.36 1.86,-1.85 3.32,-4.02 4.39,-6.5 1.06,-2.5 1.61,-5.16 1.61,-7.99 v 0"
         style="fill:#ff0000;fill-opacity:1;fill-rule:evenodd;stroke:none"
         id="path112"
         inkscape:connector-curvature="0" /><path
         d="m 2491.59,2684.52 c 0,-1.91 -0.24,-3.73 -0.73,-5.49 -0.48,-1.76 -1.17,-3.4 -2.05,-4.92 -0.89,-1.52 -1.95,-2.89 -3.18,-4.12 -1.23,-1.23 -2.62,-2.29 -4.14,-3.17 -1.52,-0.87 -3.16,-1.56 -4.92,-2.05 -1.74,-0.48 -3.58,-0.72 -5.49,-0.72 -2.87,0 -5.55,0.52 -8.03,1.59 -2.48,1.07 -4.65,2.51 -6.5,4.35 -1.84,1.83 -3.3,4 -4.34,6.48 -1.05,2.49 -1.58,5.18 -1.58,8.05 0,2.85 0.53,5.51 1.6,7.99 1.06,2.5 2.5,4.67 4.34,6.5 1.83,1.86 4,3.32 6.5,4.38 2.48,1.05 5.16,1.58 8.01,1.58 2.83,0 5.49,-0.53 7.99,-1.58 2.5,-1.06 4.68,-2.52 6.52,-4.38 1.86,-1.83 3.32,-4 4.38,-6.5 1.07,-2.48 1.62,-5.14 1.62,-7.99 v 0"
         style="fill:#ff0000;fill-opacity:1;fill-rule:evenodd;stroke:none"
         id="path114"
         inkscape:connector-curvature="0" /><path
         d="m 2460.45,2555.89 c 0,-1.91 -0.23,-3.73 -0.72,-5.49 -0.49,-1.76 -1.17,-3.4 -2.05,-4.92 -0.88,-1.52 -1.95,-2.89 -3.18,-4.12 -1.23,-1.23 -2.62,-2.29 -4.14,-3.17 -1.53,-0.88 -3.17,-1.56 -4.91,-2.05 -1.75,-0.47 -3.59,-0.72 -5.5,-0.72 -2.87,0 -5.55,0.53 -8.03,1.6 -2.48,1.05 -4.65,2.5 -6.5,4.34 -1.84,1.83 -3.29,4 -4.34,6.48 -1.06,2.5 -1.58,5.18 -1.58,8.05 0,2.85 0.54,5.5 1.6,7.99 1.05,2.5 2.5,4.66 4.35,6.5 1.82,1.85 3.99,3.32 6.49,4.37 2.48,1.06 5.15,1.59 8.01,1.59 2.83,0 5.5,-0.53 8,-1.59 2.5,-1.05 4.67,-2.52 6.51,-4.37 1.85,-1.84 3.32,-4 4.39,-6.5 1.06,-2.49 1.6,-5.14 1.6,-7.99 v 0"
         style="fill:#ff0000;fill-opacity:1;fill-rule:evenodd;stroke:none"
         id="path116"
         inkscape:connector-curvature="0" /><path
         d="m 2425.75,2513.76 c 0,-1.91 -0.24,-3.73 -0.73,-5.49 -0.48,-1.76 -1.15,-3.4 -2.03,-4.92 -0.9,-1.52 -1.95,-2.89 -3.18,-4.12 -1.25,-1.23 -2.62,-2.29 -4.16,-3.17 -1.52,-0.88 -3.16,-1.56 -4.9,-2.05 -1.76,-0.48 -3.6,-0.72 -5.51,-0.72 -2.87,0 -5.55,0.53 -8.03,1.6 -2.48,1.06 -4.63,2.5 -6.48,4.34 -1.86,1.83 -3.3,4 -4.36,6.48 -1.05,2.5 -1.56,5.18 -1.56,8.05 0,2.85 0.53,5.51 1.58,7.99 1.06,2.49 2.52,4.66 4.36,6.5 1.83,1.86 4,3.32 6.48,4.38 2.48,1.05 5.16,1.58 8.01,1.58 2.85,0 5.51,-0.53 8.01,-1.58 2.5,-1.06 4.67,-2.52 6.52,-4.38 1.84,-1.84 3.3,-4.01 4.38,-6.5 1.07,-2.48 1.6,-5.14 1.6,-7.99 v 0"
         style="fill:#ff0000;fill-opacity:1;fill-rule:evenodd;stroke:none"
         id="path118"
         inkscape:connector-curvature="0" /><path
         d="m 2382.06,2357.64 c 0,-1.91 -0.24,-3.74 -0.73,-5.48 -0.49,-1.76 -1.17,-3.4 -2.05,-4.93 -0.88,-1.52 -1.95,-2.9 -3.18,-4.12 -1.23,-1.23 -2.62,-2.29 -4.14,-3.16 -1.53,-0.89 -3.17,-1.56 -4.92,-2.05 -1.74,-0.49 -3.58,-0.72 -5.49,-0.72 -2.87,0 -5.55,0.52 -8.03,1.58 -2.48,1.06 -4.65,2.52 -6.5,4.35 -1.84,1.84 -3.3,4.01 -4.34,6.49 -1.05,2.47 -1.58,5.17 -1.58,8.04 0,2.84 0.53,5.5 1.6,7.99 1.05,2.49 2.5,4.67 4.34,6.51 1.83,1.84 4,3.3 6.5,4.37 2.48,1.06 5.16,1.58 8.01,1.58 2.83,0 5.49,-0.52 7.99,-1.58 2.5,-1.07 4.68,-2.53 6.52,-4.37 1.86,-1.84 3.32,-4.02 4.39,-6.51 1.06,-2.49 1.61,-5.15 1.61,-7.99 v 0"
         style="fill:#ff0000;fill-opacity:1;fill-rule:evenodd;stroke:none"
         id="path120"
         inkscape:connector-curvature="0" /><path
         d="m 2342,2328.6 c 0,-1.91 -0.24,-3.73 -0.73,-5.49 -0.48,-1.75 -1.15,-3.4 -2.03,-4.92 -0.9,-1.52 -1.95,-2.89 -3.18,-4.12 -1.25,-1.23 -2.62,-2.29 -4.16,-3.16 -1.52,-0.88 -3.16,-1.57 -4.9,-2.05 -1.76,-0.49 -3.6,-0.73 -5.51,-0.73 -2.87,0 -5.55,0.53 -8.03,1.59 -2.48,1.07 -4.63,2.51 -6.48,4.35 -1.86,1.84 -3.3,4 -4.36,6.48 -1.05,2.49 -1.56,5.18 -1.56,8.05 0,2.84 0.53,5.51 1.58,7.99 1.06,2.5 2.52,4.67 4.36,6.5 1.83,1.86 4,3.31 6.48,4.38 2.48,1.05 5.16,1.58 8.01,1.58 2.85,0 5.51,-0.53 8.01,-1.58 2.5,-1.07 4.67,-2.52 6.52,-4.38 1.84,-1.83 3.3,-4 4.38,-6.5 1.07,-2.48 1.6,-5.15 1.6,-7.99 v 0"
         style="fill:#ff0000;fill-opacity:1;fill-rule:evenodd;stroke:none"
         id="path122"
         inkscape:connector-curvature="0" /><path
         d="m 2322.17,2251.44 c 0,-1.9 -0.23,-3.74 -0.72,-5.49 -0.49,-1.76 -1.17,-3.4 -2.05,-4.92 -0.88,-1.51 -1.95,-2.9 -3.18,-4.11 -1.23,-1.23 -2.62,-2.3 -4.14,-3.18 -1.53,-0.88 -3.17,-1.56 -4.91,-2.05 -1.75,-0.47 -3.59,-0.72 -5.5,-0.72 -2.88,0 -5.55,0.54 -8.03,1.6 -2.48,1.05 -4.65,2.5 -6.49,4.35 -1.85,1.82 -3.3,3.99 -4.35,6.47 -1.06,2.5 -1.58,5.19 -1.58,8.05 0,2.84 0.54,5.5 1.6,8 1.05,2.48 2.5,4.65 4.35,6.49 1.82,1.85 3.99,3.32 6.49,4.37 2.48,1.06 5.15,1.59 8.01,1.59 2.83,0 5.5,-0.53 8,-1.59 2.5,-1.05 4.67,-2.52 6.51,-4.37 1.85,-1.84 3.32,-4.01 4.39,-6.49 1.06,-2.5 1.6,-5.16 1.6,-8 v 0"
         style="fill:#ff0000;fill-opacity:1;fill-rule:evenodd;stroke:none"
         id="path124"
         inkscape:connector-curvature="0" /><path
         d="m 2299.11,2340.85 c 0,-1.92 -0.24,-3.75 -0.73,-5.49 -0.48,-1.76 -1.15,-3.4 -2.03,-4.92 -0.9,-1.53 -1.95,-2.91 -3.18,-4.12 -1.25,-1.23 -2.62,-2.29 -4.16,-3.18 -1.52,-0.88 -3.15,-1.56 -4.9,-2.04 -1.76,-0.49 -3.6,-0.72 -5.51,-0.72 -2.87,0 -5.55,0.53 -8.03,1.58 -2.48,1.06 -4.63,2.52 -6.48,4.36 -1.86,1.82 -3.3,4 -4.36,6.48 -1.05,2.48 -1.56,5.18 -1.56,8.05 0,2.83 0.53,5.49 1.58,7.99 1.06,2.48 2.52,4.65 4.36,6.5 1.83,1.84 4,3.3 6.48,4.36 2.48,1.07 5.16,1.6 8.01,1.6 2.85,0 5.51,-0.53 8.01,-1.6 2.5,-1.06 4.68,-2.52 6.52,-4.36 1.84,-1.85 3.3,-4.02 4.37,-6.5 1.08,-2.5 1.61,-5.16 1.61,-7.99 v 0"
         style="fill:#ff0000;fill-opacity:1;fill-rule:evenodd;stroke:none"
         id="path126"
         inkscape:connector-curvature="0" /><path
         d="m 2261.04,2306.3 c 0,-1.92 -0.23,-3.75 -0.72,-5.49 -0.49,-1.76 -1.17,-3.4 -2.05,-4.92 -0.88,-1.53 -1.94,-2.91 -3.17,-4.12 -1.25,-1.24 -2.63,-2.29 -4.16,-3.17 -1.52,-0.89 -3.16,-1.57 -4.9,-2.05 -1.76,-0.49 -3.59,-0.73 -5.51,-0.73 -2.87,0 -5.54,0.54 -8.03,1.59 -2.48,1.06 -4.64,2.52 -6.48,4.36 -1.85,1.83 -3.3,4 -4.35,6.48 -1.06,2.48 -1.57,5.18 -1.57,8.05 0,2.83 0.53,5.49 1.58,7.98 1.06,2.49 2.52,4.66 4.36,6.51 1.82,1.84 4,3.3 6.48,4.36 2.48,1.07 5.16,1.6 8.01,1.6 2.85,0 5.51,-0.53 8.01,-1.6 2.5,-1.06 4.67,-2.52 6.52,-4.36 1.84,-1.85 3.3,-4.02 4.38,-6.51 1.07,-2.49 1.6,-5.15 1.6,-7.98 v 0"
         style="fill:#ff0000;fill-opacity:1;fill-rule:evenodd;stroke:none"
         id="path128"
         inkscape:connector-curvature="0" /><path
         d="m 2230.75,2173.68 c 0,-1.91 -0.24,-3.75 -0.73,-5.49 -0.48,-1.77 -1.17,-3.41 -2.05,-4.92 -0.89,-1.52 -1.95,-2.91 -3.18,-4.12 -1.23,-1.23 -2.62,-2.3 -4.14,-3.18 -1.52,-0.88 -3.16,-1.56 -4.92,-2.05 -1.74,-0.47 -3.58,-0.71 -5.49,-0.71 -2.87,0 -5.55,0.53 -8.03,1.58 -2.48,1.06 -4.65,2.51 -6.5,4.36 -1.84,1.82 -3.3,3.99 -4.34,6.47 -1.05,2.49 -1.58,5.19 -1.58,8.06 0,2.83 0.53,5.49 1.6,7.99 1.06,2.48 2.5,4.65 4.34,6.5 1.83,1.84 4,3.3 6.5,4.36 2.48,1.07 5.16,1.6 8.01,1.6 2.83,0 5.49,-0.53 7.99,-1.6 2.5,-1.06 4.69,-2.52 6.52,-4.36 1.86,-1.85 3.32,-4.02 4.38,-6.5 1.07,-2.5 1.62,-5.16 1.62,-7.99 v 0"
         style="fill:#ff0000;fill-opacity:1;fill-rule:evenodd;stroke:none"
         id="path130"
         inkscape:connector-curvature="0" /><path
         d="m 2208.87,2113.25 c 0,-1.91 -0.25,-3.75 -0.74,-5.49 -0.47,-1.77 -1.15,-3.41 -2.03,-4.92 -0.9,-1.53 -1.95,-2.91 -3.18,-4.12 -1.25,-1.23 -2.62,-2.3 -4.15,-3.18 -1.52,-0.89 -3.16,-1.56 -4.92,-2.05 -1.74,-0.48 -3.59,-0.71 -5.49,-0.71 -2.87,0 -5.56,0.53 -8.04,1.58 -2.48,1.06 -4.63,2.51 -6.49,4.36 -1.85,1.82 -3.3,3.99 -4.35,6.47 -1.05,2.49 -1.56,5.19 -1.56,8.06 0,2.83 0.52,5.49 1.59,7.99 1.06,2.48 2.51,4.65 4.34,6.49 1.84,1.84 4.01,3.31 6.49,4.37 2.48,1.07 5.17,1.6 8.02,1.6 2.84,0 5.49,-0.53 7.99,-1.6 2.5,-1.06 4.69,-2.53 6.53,-4.37 1.85,-1.84 3.3,-4.01 4.37,-6.49 1.08,-2.5 1.62,-5.16 1.62,-7.99 v 0"
         style="fill:#ff0000;fill-opacity:1;fill-rule:evenodd;stroke:none"
         id="path132"
         inkscape:connector-curvature="0" /><path
         d="m 2189.48,2089.58 c 0,-1.91 -0.24,-3.73 -0.74,-5.49 -0.47,-1.76 -1.16,-3.4 -2.04,-4.92 -0.89,-1.52 -1.95,-2.89 -3.18,-4.12 -1.23,-1.23 -2.62,-2.29 -4.14,-3.17 -1.52,-0.88 -3.16,-1.56 -4.92,-2.05 -1.74,-0.48 -3.58,-0.72 -5.49,-0.72 -2.87,0 -5.56,0.53 -8.03,1.6 -2.48,1.05 -4.65,2.5 -6.5,4.34 -1.84,1.83 -3.3,4 -4.35,6.48 -1.04,2.5 -1.57,5.18 -1.57,8.05 0,2.85 0.53,5.5 1.6,7.99 1.06,2.49 2.5,4.66 4.34,6.5 1.83,1.86 4,3.32 6.5,4.38 2.48,1.05 5.16,1.58 8.01,1.58 2.83,0 5.49,-0.53 7.99,-1.58 2.5,-1.06 4.69,-2.52 6.52,-4.38 1.86,-1.84 3.32,-4.01 4.38,-6.5 1.07,-2.49 1.62,-5.14 1.62,-7.99 v 0"
         style="fill:#ff0000;fill-opacity:1;fill-rule:evenodd;stroke:none"
         id="path134"
         inkscape:connector-curvature="0" /><path
         d="m 2167,2017.43 c 0,-1.92 -0.25,-3.75 -0.74,-5.49 -0.47,-1.77 -1.16,-3.41 -2.04,-4.92 -0.89,-1.53 -1.95,-2.91 -3.18,-4.12 -1.23,-1.23 -2.62,-2.3 -4.14,-3.18 -1.52,-0.89 -3.16,-1.56 -4.92,-2.05 -1.74,-0.48 -3.59,-0.71 -5.49,-0.71 -2.87,0 -5.55,0.53 -8.03,1.58 -2.48,1.06 -4.65,2.51 -6.5,4.36 -1.84,1.82 -3.29,3.99 -4.34,6.47 -1.05,2.49 -1.58,5.19 -1.58,8.06 0,2.83 0.54,5.49 1.6,7.99 1.06,2.48 2.5,4.65 4.34,6.5 1.83,1.84 4,3.3 6.5,4.36 2.48,1.07 5.16,1.6 8.01,1.6 2.83,0 5.49,-0.53 7.99,-1.6 2.5,-1.06 4.69,-2.52 6.52,-4.36 1.86,-1.85 3.32,-4.02 4.39,-6.5 1.06,-2.5 1.61,-5.16 1.61,-7.99 v 0"
         style="fill:#ff0000;fill-opacity:1;fill-rule:evenodd;stroke:none"
         id="path136"
         inkscape:connector-curvature="0" /><path
         d="m 2138.99,1993.81 c 0,-1.91 -0.24,-3.74 -0.73,-5.48 -0.48,-1.76 -1.17,-3.4 -2.04,-4.93 -0.9,-1.52 -1.96,-2.9 -3.19,-4.12 -1.23,-1.23 -2.61,-2.28 -4.14,-3.16 -1.52,-0.89 -3.16,-1.57 -4.92,-2.05 -1.74,-0.49 -3.58,-0.72 -5.49,-0.72 -2.87,0 -5.56,0.52 -8.04,1.58 -2.48,1.06 -4.63,2.52 -6.49,4.35 -1.85,1.84 -3.3,4.01 -4.35,6.49 -1.04,2.48 -1.57,5.17 -1.57,8.04 0,2.84 0.53,5.5 1.59,7.99 1.07,2.49 2.51,4.66 4.35,6.51 1.84,1.84 4,3.3 6.49,4.36 2.48,1.07 5.17,1.59 8.02,1.59 2.83,0 5.49,-0.52 7.99,-1.59 2.5,-1.06 4.69,-2.52 6.52,-4.36 1.86,-1.85 3.31,-4.02 4.38,-6.51 1.07,-2.49 1.62,-5.15 1.62,-7.99 v 0"
         style="fill:#ff0000;fill-opacity:1;fill-rule:evenodd;stroke:none"
         id="path138"
         inkscape:connector-curvature="0" /><path
         d="m 2093.8,1918.29 c 0,-1.92 -0.24,-3.75 -0.73,-5.49 -0.48,-1.77 -1.15,-3.41 -2.03,-4.92 -0.9,-1.53 -1.95,-2.91 -3.18,-4.12 -1.24,-1.23 -2.62,-2.3 -4.15,-3.18 -1.52,-0.89 -3.16,-1.56 -4.92,-2.05 -1.74,-0.48 -3.59,-0.71 -5.49,-0.71 -2.88,0 -5.56,0.53 -8.04,1.58 -2.48,1.06 -4.63,2.52 -6.49,4.36 -1.85,1.82 -3.3,4 -4.35,6.47 -1.05,2.49 -1.56,5.19 -1.56,8.06 0,2.83 0.52,5.49 1.58,7.99 1.06,2.48 2.52,4.65 4.35,6.5 1.84,1.84 4.01,3.3 6.49,4.36 2.48,1.07 5.16,1.6 8.02,1.6 2.84,0 5.49,-0.53 7.99,-1.6 2.5,-1.06 4.69,-2.52 6.53,-4.36 1.84,-1.85 3.3,-4.02 4.37,-6.5 1.08,-2.5 1.61,-5.16 1.61,-7.99 v 0"
         style="fill:#ff0000;fill-opacity:1;fill-rule:evenodd;stroke:none"
         id="path140"
         inkscape:connector-curvature="0" /><path
         d="m 2052.98,1867.7 c 0,-1.91 -0.24,-3.74 -0.73,-5.49 -0.47,-1.75 -1.15,-3.4 -2.03,-4.92 -0.9,-1.52 -1.95,-2.9 -3.18,-4.12 -1.24,-1.23 -2.62,-2.28 -4.15,-3.16 -1.52,-0.88 -3.16,-1.57 -4.92,-2.05 -1.74,-0.49 -3.59,-0.73 -5.49,-0.73 -2.88,0 -5.56,0.53 -8.04,1.58 -2.48,1.08 -4.63,2.52 -6.49,4.36 -1.85,1.84 -3.3,4 -4.35,6.48 -1.05,2.49 -1.56,5.18 -1.56,8.05 0,2.84 0.52,5.51 1.58,7.99 1.07,2.5 2.52,4.67 4.35,6.5 1.84,1.86 4.01,3.31 6.49,4.38 2.48,1.05 5.16,1.58 8.02,1.58 2.84,0 5.49,-0.53 7.99,-1.58 2.5,-1.07 4.69,-2.52 6.53,-4.38 1.84,-1.83 3.3,-4 4.37,-6.5 1.08,-2.48 1.61,-5.15 1.61,-7.99 v 0"
         style="fill:#ff0000;fill-opacity:1;fill-rule:evenodd;stroke:none"
         id="path142"
         inkscape:connector-curvature="0" /><path
         d="m 2027.1,1874.44 c 0,-1.91 -0.24,-3.73 -0.73,-5.49 -0.48,-1.76 -1.15,-3.4 -2.03,-4.92 -0.9,-1.52 -1.95,-2.89 -3.18,-4.12 -1.24,-1.23 -2.62,-2.29 -4.15,-3.17 -1.53,-0.87 -3.17,-1.56 -4.92,-2.05 -1.74,-0.48 -3.59,-0.72 -5.49,-0.72 -2.87,0 -5.56,0.53 -8.04,1.59 -2.48,1.07 -4.63,2.51 -6.48,4.35 -1.86,1.83 -3.31,4 -4.36,6.48 -1.05,2.49 -1.56,5.18 -1.56,8.05 0,2.84 0.52,5.51 1.58,7.99 1.06,2.5 2.52,4.67 4.35,6.5 1.84,1.86 4.01,3.31 6.49,4.38 2.48,1.05 5.17,1.58 8.02,1.58 2.84,0 5.49,-0.53 7.99,-1.58 2.5,-1.07 4.69,-2.52 6.53,-4.38 1.84,-1.83 3.3,-4 4.37,-6.5 1.08,-2.48 1.61,-5.15 1.61,-7.99 v 0"
         style="fill:#ff0000;fill-opacity:1;fill-rule:evenodd;stroke:none"
         id="path144"
         inkscape:connector-curvature="0" /><path
         d="m 1980.49,1759.56 c 0,-1.92 -0.23,-3.75 -0.72,-5.49 -0.49,-1.77 -1.17,-3.4 -2.05,-4.92 -0.88,-1.53 -1.94,-2.91 -3.17,-4.12 -1.24,-1.23 -2.63,-2.3 -4.15,-3.18 -1.53,-0.88 -3.17,-1.56 -4.92,-2.05 -1.74,-0.48 -3.58,-0.71 -5.49,-0.71 -2.88,0 -5.55,0.53 -8.03,1.58 -2.48,1.05 -4.65,2.52 -6.5,4.36 -1.84,1.82 -3.3,4 -4.34,6.48 -1.06,2.48 -1.57,5.18 -1.57,8.05 0,2.83 0.52,5.49 1.59,7.99 1.05,2.48 2.5,4.65 4.34,6.5 1.83,1.84 4,3.3 6.5,4.36 2.48,1.07 5.15,1.6 8.01,1.6 2.84,0 5.49,-0.53 7.99,-1.6 2.5,-1.06 4.68,-2.52 6.53,-4.36 1.84,-1.85 3.31,-4.02 4.38,-6.5 1.07,-2.5 1.6,-5.16 1.6,-7.99 v 0"
         style="fill:#ff0000;fill-opacity:1;fill-rule:evenodd;stroke:none"
         id="path146"
         inkscape:connector-curvature="0" /><path
         d="m 1949.81,1745.83 c 0,-1.92 -0.23,-3.75 -0.72,-5.49 -0.49,-1.77 -1.17,-3.4 -2.04,-4.92 -0.89,-1.53 -1.96,-2.91 -3.18,-4.12 -1.25,-1.24 -2.62,-2.29 -4.16,-3.18 -1.52,-0.88 -3.16,-1.56 -4.9,-2.04 -1.76,-0.49 -3.59,-0.72 -5.51,-0.72 -2.87,0 -5.55,0.53 -8.03,1.58 -2.48,1.05 -4.63,2.52 -6.48,4.36 -1.86,1.82 -3.3,4 -4.36,6.48 -1.05,2.48 -1.56,5.18 -1.56,8.05 0,2.83 0.53,5.49 1.58,7.98 1.06,2.49 2.51,4.66 4.36,6.51 1.83,1.84 3.99,3.3 6.48,4.36 2.48,1.07 5.16,1.6 8.01,1.6 2.84,0 5.51,-0.53 8.01,-1.6 2.5,-1.06 4.67,-2.52 6.51,-4.36 1.85,-1.85 3.31,-4.02 4.39,-6.51 1.07,-2.49 1.6,-5.15 1.6,-7.98 v 0"
         style="fill:#ff0000;fill-opacity:1;fill-rule:evenodd;stroke:none"
         id="path148"
         inkscape:connector-curvature="0" /><path
         d="m 1910.61,1681.59 c 0,-1.92 -0.23,-3.75 -0.72,-5.49 -0.49,-1.77 -1.16,-3.41 -2.04,-4.92 -0.89,-1.53 -1.96,-2.91 -3.19,-4.12 -1.24,-1.23 -2.61,-2.3 -4.15,-3.18 -1.52,-0.89 -3.16,-1.56 -4.9,-2.05 -1.76,-0.48 -3.59,-0.71 -5.51,-0.71 -2.87,0 -5.54,0.53 -8.02,1.58 -2.49,1.06 -4.64,2.51 -6.49,4.36 -1.85,1.82 -3.3,3.99 -4.35,6.47 -1.06,2.49 -1.58,5.19 -1.58,8.06 0,2.83 0.54,5.49 1.59,7.99 1.06,2.48 2.51,4.65 4.36,6.5 1.83,1.84 3.99,3.3 6.48,4.36 2.49,1.07 5.16,1.6 8.01,1.6 2.84,0 5.51,-0.53 8.01,-1.6 2.5,-1.06 4.67,-2.52 6.51,-4.36 1.85,-1.85 3.31,-4.02 4.39,-6.5 1.06,-2.5 1.6,-5.16 1.6,-7.99 v 0"
         style="fill:#ff0000;fill-opacity:1;fill-rule:evenodd;stroke:none"
         id="path150"
         inkscape:connector-curvature="0" /><path
         d="m 1157.51,1172.67 c 0,-1.9 -0.23,-3.74 -0.72,-5.49 -0.49,-1.76 -1.16,-3.4 -2.04,-4.92 -0.89,-1.51 -1.96,-2.9 -3.19,-4.12 -1.23,-1.22 -2.61,-2.29 -4.14,-3.17 -1.53,-0.88 -3.17,-1.57 -4.92,-2.05 -1.74,-0.47 -3.58,-0.72 -5.49,-0.72 -2.87,0 -5.55,0.53 -8.04,1.6 -2.48,1.05 -4.63,2.5 -6.48,4.34 -1.86,1.83 -3.31,4 -4.36,6.48 -1.05,2.5 -1.57,5.18 -1.57,8.05 0,2.84 0.53,5.5 1.59,8 1.06,2.48 2.51,4.65 4.35,6.49 1.84,1.85 4,3.31 6.49,4.37 2.48,1.06 5.17,1.59 8.02,1.59 2.83,0 5.49,-0.53 7.99,-1.59 2.5,-1.06 4.68,-2.52 6.52,-4.37 1.85,-1.84 3.31,-4.01 4.38,-6.49 1.07,-2.5 1.61,-5.16 1.61,-8 v 0"
         style="fill:#ff0000;fill-opacity:1;fill-rule:evenodd;stroke:none"
         id="path152"
         inkscape:connector-curvature="0" /><path
         d="m 1135.6,1112.22 c 0,-1.9 -0.24,-3.74 -0.74,-5.49 -0.48,-1.76 -1.15,-3.4 -2.03,-4.92 -0.9,-1.51 -1.96,-2.9 -3.19,-4.12 -1.24,-1.23 -2.61,-2.29 -4.15,-3.17 -1.52,-0.88 -3.16,-1.56 -4.9,-2.05 -1.76,-0.47 -3.59,-0.72 -5.51,-0.72 -2.86,0 -5.54,0.53 -8.02,1.6 -2.48,1.05 -4.64,2.5 -6.49,4.34 -1.85,1.83 -3.3,4 -4.35,6.48 -1.05,2.5 -1.58,5.18 -1.58,8.05 0,2.84 0.54,5.5 1.6,7.99 1.05,2.49 2.51,4.66 4.35,6.51 1.83,1.84 3.99,3.31 6.49,4.36 2.48,1.06 5.16,1.59 8,1.59 2.84,0 5.51,-0.53 8.01,-1.59 2.5,-1.05 4.67,-2.52 6.51,-4.36 1.86,-1.85 3.32,-4.02 4.38,-6.51 1.07,-2.49 1.62,-5.15 1.62,-7.99 v 0"
         style="fill:#ff0000;fill-opacity:1;fill-rule:evenodd;stroke:none"
         id="path154"
         inkscape:connector-curvature="0" /><path
         d="m 1015.26,979.852 c 0,-1.911 -0.24,-3.731 -0.72,-5.493 -0.49,-1.757 -1.17,-3.398 -2.04,-4.918 -0.89,-1.519 -1.95,-2.89 -3.18,-4.121 -1.24,-1.23 -2.63,-2.289 -4.15,-3.172 -1.53,-0.867 -3.16,-1.558 -4.92,-2.046 -1.742,-0.481 -3.586,-0.723 -5.492,-0.723 -2.871,0 -5.555,0.531 -8.035,1.59 -2.481,1.07 -4.637,2.511 -6.489,4.351 -1.851,1.828 -3.3,4 -4.351,6.481 -1.047,2.488 -1.567,5.179 -1.567,8.051 0,2.839 0.528,5.507 1.586,7.988 1.063,2.5 2.512,4.672 4.352,6.5 1.832,1.859 4,3.308 6.488,4.379 2.481,1.051 5.16,1.581 8.016,1.581 2.836,0 5.492,-0.53 7.992,-1.581 2.5,-1.071 4.69,-2.52 6.53,-4.379 1.84,-1.828 3.3,-4 4.38,-6.5 1.07,-2.481 1.6,-5.149 1.6,-7.988 v 0"
         style="fill:#ff0000;fill-opacity:1;fill-rule:evenodd;stroke:none"
         id="path156"
         inkscape:connector-curvature="0" /><path
         d="m 953.37265,461.97183 -26.00999,-23.03 -26,23.03 26,22.95 26.00999,-22.95"
         style="fill:#0000ff;fill-opacity:1;fill-rule:evenodd;stroke:none"
         id="path382"
         inkscape:connector-curvature="0" /><path
         d="M 2864,3006.22 V 438.988 M 805.766,3006.22 H 2864 M 805.766,438.988 V 3006.22 M 2864,438.988 H 805.766"
         style="fill:none;stroke:#000000;stroke-width:7.08660984;stroke-linecap:square;stroke-linejoin:miter;stroke-miterlimit:3.25;stroke-dasharray:none;stroke-opacity:1"
         id="path426"
         inkscape:connector-curvature="0" /><path
         d="m 901.453,438.988 v 28.934"
         style="fill:none;stroke:#000000;stroke-width:7.08660984;stroke-linecap:butt;stroke-linejoin:miter;stroke-miterlimit:3.25;stroke-dasharray:none;stroke-opacity:1"
         id="path428"
         inkscape:connector-curvature="0" /><path
         d="m 1881.64,438.988 v 28.934"
         style="fill:none;stroke:#000000;stroke-width:7.08660984;stroke-linecap:butt;stroke-linejoin:miter;stroke-miterlimit:3.25;stroke-dasharray:none;stroke-opacity:1"
         id="path430"
         inkscape:connector-curvature="0" /><path
         d="m 2861.82,438.988 v 28.934"
         style="fill:none;stroke:#000000;stroke-width:9.92125988;stroke-linecap:butt;stroke-linejoin:miter;stroke-miterlimit:3.25;stroke-dasharray:none;stroke-opacity:1"
         id="path432"
         inkscape:connector-curvature="0" /><path
         d="m 807.473,1979.27 h 28.289"
         style="fill:none;stroke:#000000;stroke-width:7.08660984;stroke-linecap:butt;stroke-linejoin:miter;stroke-miterlimit:3.25;stroke-dasharray:none;stroke-opacity:1"
         id="path434"
         inkscape:connector-curvature="0" /><path
         d="m 807.473,2492.48 h 28.289"
         style="fill:none;stroke:#000000;stroke-width:7.08660984;stroke-linecap:butt;stroke-linejoin:miter;stroke-miterlimit:3.25;stroke-dasharray:none;stroke-opacity:1"
         id="path436"
         inkscape:connector-curvature="0" /><path
         d="m 807.473,2133.76 h 14.136"
         style="fill:none;stroke:#000000;stroke-width:7.08660984;stroke-linecap:butt;stroke-linejoin:miter;stroke-miterlimit:3.25;stroke-dasharray:none;stroke-opacity:1"
         id="path438"
         inkscape:connector-curvature="0" /><path
         d="m 807.473,2224.13 h 14.136"
         style="fill:none;stroke:#000000;stroke-width:7.08660984;stroke-linecap:butt;stroke-linejoin:miter;stroke-miterlimit:3.25;stroke-dasharray:none;stroke-opacity:1"
         id="path440"
         inkscape:connector-curvature="0" /><path
         d="m 807.473,2288.24 h 14.136"
         style="fill:none;stroke:#000000;stroke-width:7.08660984;stroke-linecap:butt;stroke-linejoin:miter;stroke-miterlimit:3.25;stroke-dasharray:none;stroke-opacity:1"
         id="path442"
         inkscape:connector-curvature="0" /><path
         d="m 807.473,2338 h 14.136"
         style="fill:none;stroke:#000000;stroke-width:7.08660984;stroke-linecap:butt;stroke-linejoin:miter;stroke-miterlimit:3.25;stroke-dasharray:none;stroke-opacity:1"
         id="path444"
         inkscape:connector-curvature="0" /><path
         d="m 807.473,2378.63 h 14.136"
         style="fill:none;stroke:#000000;stroke-width:7.08660984;stroke-linecap:butt;stroke-linejoin:miter;stroke-miterlimit:3.25;stroke-dasharray:none;stroke-opacity:1"
         id="path446"
         inkscape:connector-curvature="0" /><path
         d="m 807.473,2412.98 h 14.136"
         style="fill:none;stroke:#000000;stroke-width:7.08660984;stroke-linecap:butt;stroke-linejoin:miter;stroke-miterlimit:3.25;stroke-dasharray:none;stroke-opacity:1"
         id="path448"
         inkscape:connector-curvature="0" /><path
         d="m 807.473,2442.74 h 14.136"
         style="fill:none;stroke:#000000;stroke-width:7.08660984;stroke-linecap:butt;stroke-linejoin:miter;stroke-miterlimit:3.25;stroke-dasharray:none;stroke-opacity:1"
         id="path450"
         inkscape:connector-curvature="0" /><path
         d="m 807.473,2468.99 h 14.136"
         style="fill:none;stroke:#000000;stroke-width:7.08660984;stroke-linecap:butt;stroke-linejoin:miter;stroke-miterlimit:3.25;stroke-dasharray:none;stroke-opacity:1"
         id="path452"
         inkscape:connector-curvature="0" /><path
         d="m 807.473,3005.89 h 28.289"
         style="fill:none;stroke:#000000;stroke-width:7.08660984;stroke-linecap:butt;stroke-linejoin:miter;stroke-miterlimit:3.25;stroke-dasharray:none;stroke-opacity:1"
         id="path454"
         inkscape:connector-curvature="0" /><path
         d="m 807.473,2647.18 h 14.136"
         style="fill:none;stroke:#000000;stroke-width:7.08660984;stroke-linecap:butt;stroke-linejoin:miter;stroke-miterlimit:3.25;stroke-dasharray:none;stroke-opacity:1"
         id="path456"
         inkscape:connector-curvature="0" /><path
         d="m 807.473,2737.55 h 14.136"
         style="fill:none;stroke:#000000;stroke-width:7.08660984;stroke-linecap:butt;stroke-linejoin:miter;stroke-miterlimit:3.25;stroke-dasharray:none;stroke-opacity:1"
         id="path458"
         inkscape:connector-curvature="0" /><path
         d="m 807.473,2801.66 h 14.136"
         style="fill:none;stroke:#000000;stroke-width:7.08660984;stroke-linecap:butt;stroke-linejoin:miter;stroke-miterlimit:3.25;stroke-dasharray:none;stroke-opacity:1"
         id="path460"
         inkscape:connector-curvature="0" /><path
         d="m 807.473,2851.41 h 14.136"
         style="fill:none;stroke:#000000;stroke-width:7.08660984;stroke-linecap:butt;stroke-linejoin:miter;stroke-miterlimit:3.25;stroke-dasharray:none;stroke-opacity:1"
         id="path462"
         inkscape:connector-curvature="0" /><path
         d="m 807.473,2892.05 h 14.136"
         style="fill:none;stroke:#000000;stroke-width:7.08660984;stroke-linecap:butt;stroke-linejoin:miter;stroke-miterlimit:3.25;stroke-dasharray:none;stroke-opacity:1"
         id="path464"
         inkscape:connector-curvature="0" /><path
         d="m 807.473,2926.4 h 14.136"
         style="fill:none;stroke:#000000;stroke-width:7.08660984;stroke-linecap:butt;stroke-linejoin:miter;stroke-miterlimit:3.25;stroke-dasharray:none;stroke-opacity:1"
         id="path466"
         inkscape:connector-curvature="0" /><path
         d="m 807.473,2956.16 h 14.136"
         style="fill:none;stroke:#000000;stroke-width:7.08660984;stroke-linecap:butt;stroke-linejoin:miter;stroke-miterlimit:3.25;stroke-dasharray:none;stroke-opacity:1"
         id="path468"
         inkscape:connector-curvature="0" /><path
         d="m 807.473,2982.41 h 14.136"
         style="fill:none;stroke:#000000;stroke-width:7.08660984;stroke-linecap:butt;stroke-linejoin:miter;stroke-miterlimit:3.25;stroke-dasharray:none;stroke-opacity:1"
         id="path470"
         inkscape:connector-curvature="0" /><path
         d="m 807.473,1462.95 h 28.289"
         style="fill:none;stroke:#000000;stroke-width:7.08660984;stroke-linecap:butt;stroke-linejoin:miter;stroke-miterlimit:3.25;stroke-dasharray:none;stroke-opacity:1"
         id="path472"
         inkscape:connector-curvature="0" /><path
         d="m 807.473,1617.43 h 14.136"
         style="fill:none;stroke:#000000;stroke-width:7.08660984;stroke-linecap:butt;stroke-linejoin:miter;stroke-miterlimit:3.25;stroke-dasharray:none;stroke-opacity:1"
         id="path474"
         inkscape:connector-curvature="0" /><path
         d="m 807.473,1707.8 h 14.136"
         style="fill:none;stroke:#000000;stroke-width:7.08660984;stroke-linecap:butt;stroke-linejoin:miter;stroke-miterlimit:3.25;stroke-dasharray:none;stroke-opacity:1"
         id="path476"
         inkscape:connector-curvature="0" /><path
         d="m 807.473,1771.91 h 14.136"
         style="fill:none;stroke:#000000;stroke-width:7.08660984;stroke-linecap:butt;stroke-linejoin:miter;stroke-miterlimit:3.25;stroke-dasharray:none;stroke-opacity:1"
         id="path478"
         inkscape:connector-curvature="0" /><path
         d="m 807.473,1821.67 h 14.136"
         style="fill:none;stroke:#000000;stroke-width:7.08660984;stroke-linecap:butt;stroke-linejoin:miter;stroke-miterlimit:3.25;stroke-dasharray:none;stroke-opacity:1"
         id="path480"
         inkscape:connector-curvature="0" /><path
         d="m 807.473,1862.3 h 14.136"
         style="fill:none;stroke:#000000;stroke-width:7.08660984;stroke-linecap:butt;stroke-linejoin:miter;stroke-miterlimit:3.25;stroke-dasharray:none;stroke-opacity:1"
         id="path482"
         inkscape:connector-curvature="0" /><path
         d="m 807.473,1896.66 h 14.136"
         style="fill:none;stroke:#000000;stroke-width:7.08660984;stroke-linecap:butt;stroke-linejoin:miter;stroke-miterlimit:3.25;stroke-dasharray:none;stroke-opacity:1"
         id="path484"
         inkscape:connector-curvature="0" /><path
         d="m 807.473,1926.41 h 14.136"
         style="fill:none;stroke:#000000;stroke-width:7.08660984;stroke-linecap:butt;stroke-linejoin:miter;stroke-miterlimit:3.25;stroke-dasharray:none;stroke-opacity:1"
         id="path486"
         inkscape:connector-curvature="0" /><path
         d="m 807.473,1952.66 h 14.136"
         style="fill:none;stroke:#000000;stroke-width:7.08660984;stroke-linecap:butt;stroke-linejoin:miter;stroke-miterlimit:3.25;stroke-dasharray:none;stroke-opacity:1"
         id="path488"
         inkscape:connector-curvature="0" /><path
         d="m 807.473,954.031 h 28.289"
         style="fill:none;stroke:#000000;stroke-width:7.08660984;stroke-linecap:butt;stroke-linejoin:miter;stroke-miterlimit:3.25;stroke-dasharray:none;stroke-opacity:1"
         id="path490"
         inkscape:connector-curvature="0" /><path
         d="m 807.473,1108.51 h 14.136"
         style="fill:none;stroke:#000000;stroke-width:7.08660984;stroke-linecap:butt;stroke-linejoin:miter;stroke-miterlimit:3.25;stroke-dasharray:none;stroke-opacity:1"
         id="path492"
         inkscape:connector-curvature="0" /><path
         d="m 807.473,1198.88 h 14.136"
         style="fill:none;stroke:#000000;stroke-width:7.08660984;stroke-linecap:butt;stroke-linejoin:miter;stroke-miterlimit:3.25;stroke-dasharray:none;stroke-opacity:1"
         id="path494"
         inkscape:connector-curvature="0" /><path
         d="m 807.473,1262.99 h 14.136"
         style="fill:none;stroke:#000000;stroke-width:7.08660984;stroke-linecap:butt;stroke-linejoin:miter;stroke-miterlimit:3.25;stroke-dasharray:none;stroke-opacity:1"
         id="path496"
         inkscape:connector-curvature="0" /><path
         d="m 807.473,1312.75 h 14.136"
         style="fill:none;stroke:#000000;stroke-width:7.08660984;stroke-linecap:butt;stroke-linejoin:miter;stroke-miterlimit:3.25;stroke-dasharray:none;stroke-opacity:1"
         id="path498"
         inkscape:connector-curvature="0" /><path
         d="m 807.473,1353.39 h 14.136"
         style="fill:none;stroke:#000000;stroke-width:7.08660984;stroke-linecap:butt;stroke-linejoin:miter;stroke-miterlimit:3.25;stroke-dasharray:none;stroke-opacity:1"
         id="path500"
         inkscape:connector-curvature="0" /><path
         d="m 807.473,1387.74 h 14.136"
         style="fill:none;stroke:#000000;stroke-width:7.08660984;stroke-linecap:butt;stroke-linejoin:miter;stroke-miterlimit:3.25;stroke-dasharray:none;stroke-opacity:1"
         id="path502"
         inkscape:connector-curvature="0" /><path
         d="m 807.473,1417.5 h 14.136"
         style="fill:none;stroke:#000000;stroke-width:7.08660984;stroke-linecap:butt;stroke-linejoin:miter;stroke-miterlimit:3.25;stroke-dasharray:none;stroke-opacity:1"
         id="path504"
         inkscape:connector-curvature="0" /><path
         d="m 807.473,1443.75 h 14.136"
         style="fill:none;stroke:#000000;stroke-width:7.08660984;stroke-linecap:butt;stroke-linejoin:miter;stroke-miterlimit:3.25;stroke-dasharray:none;stroke-opacity:1"
         id="path506"
         inkscape:connector-curvature="0" /><path
         d="m 807.473,598.359 h 14.136"
         style="fill:none;stroke:#000000;stroke-width:7.08660984;stroke-linecap:butt;stroke-linejoin:miter;stroke-miterlimit:3.25;stroke-dasharray:none;stroke-opacity:1"
         id="path508"
         inkscape:connector-curvature="0" /><path
         d="m 807.473,688.73 h 14.136"
         style="fill:none;stroke:#000000;stroke-width:7.08660984;stroke-linecap:butt;stroke-linejoin:miter;stroke-miterlimit:3.25;stroke-dasharray:none;stroke-opacity:1"
         id="path510"
         inkscape:connector-curvature="0" /><path
         d="m 807.473,752.84 h 14.136"
         style="fill:none;stroke:#000000;stroke-width:7.08660984;stroke-linecap:butt;stroke-linejoin:miter;stroke-miterlimit:3.25;stroke-dasharray:none;stroke-opacity:1"
         id="path512"
         inkscape:connector-curvature="0" /><path
         d="m 807.473,802.59 h 14.136"
         style="fill:none;stroke:#000000;stroke-width:7.08660984;stroke-linecap:butt;stroke-linejoin:miter;stroke-miterlimit:3.25;stroke-dasharray:none;stroke-opacity:1"
         id="path514"
         inkscape:connector-curvature="0" /><path
         d="m 807.473,843.23 h 14.136"
         style="fill:none;stroke:#000000;stroke-width:7.08660984;stroke-linecap:butt;stroke-linejoin:miter;stroke-miterlimit:3.25;stroke-dasharray:none;stroke-opacity:1"
         id="path516"
         inkscape:connector-curvature="0" /><path
         d="m 807.473,877.578 h 14.136"
         style="fill:none;stroke:#000000;stroke-width:7.08660984;stroke-linecap:butt;stroke-linejoin:miter;stroke-miterlimit:3.25;stroke-dasharray:none;stroke-opacity:1"
         id="path518"
         inkscape:connector-curvature="0" /><path
         d="m 807.473,907.34 h 14.136"
         style="fill:none;stroke:#000000;stroke-width:7.08660984;stroke-linecap:butt;stroke-linejoin:miter;stroke-miterlimit:3.25;stroke-dasharray:none;stroke-opacity:1"
         id="path520"
         inkscape:connector-curvature="0" /><path
         d="m 807.473,933.59 h 14.136"
         style="fill:none;stroke:#000000;stroke-width:7.08660984;stroke-linecap:butt;stroke-linejoin:miter;stroke-miterlimit:3.25;stroke-dasharray:none;stroke-opacity:1"
         id="path522"
         inkscape:connector-curvature="0" /><path
         d="m 2863.33,1976.84 h -28.29"
         style="fill:none;stroke:#000000;stroke-width:7.08660984;stroke-linecap:butt;stroke-linejoin:miter;stroke-miterlimit:3.25;stroke-dasharray:none;stroke-opacity:1"
         id="path524"
         inkscape:connector-curvature="0" /><path
         d="m 2863.33,2490.05 h -28.29"
         style="fill:none;stroke:#000000;stroke-width:7.08660984;stroke-linecap:butt;stroke-linejoin:miter;stroke-miterlimit:3.25;stroke-dasharray:none;stroke-opacity:1"
         id="path526"
         inkscape:connector-curvature="0" /><path
         d="m 2863.33,2131.32 h -14.14"
         style="fill:none;stroke:#000000;stroke-width:7.08660984;stroke-linecap:butt;stroke-linejoin:miter;stroke-miterlimit:3.25;stroke-dasharray:none;stroke-opacity:1"
         id="path528"
         inkscape:connector-curvature="0" /><path
         d="m 2863.33,2221.7 h -14.14"
         style="fill:none;stroke:#000000;stroke-width:7.08660984;stroke-linecap:butt;stroke-linejoin:miter;stroke-miterlimit:3.25;stroke-dasharray:none;stroke-opacity:1"
         id="path530"
         inkscape:connector-curvature="0" /><path
         d="m 2863.33,2285.81 h -14.14"
         style="fill:none;stroke:#000000;stroke-width:7.08660984;stroke-linecap:butt;stroke-linejoin:miter;stroke-miterlimit:3.25;stroke-dasharray:none;stroke-opacity:1"
         id="path532"
         inkscape:connector-curvature="0" /><path
         d="m 2863.33,2335.56 h -14.14"
         style="fill:none;stroke:#000000;stroke-width:7.08660984;stroke-linecap:butt;stroke-linejoin:miter;stroke-miterlimit:3.25;stroke-dasharray:none;stroke-opacity:1"
         id="path534"
         inkscape:connector-curvature="0" /><path
         d="m 2863.33,2376.2 h -14.14"
         style="fill:none;stroke:#000000;stroke-width:7.08660984;stroke-linecap:butt;stroke-linejoin:miter;stroke-miterlimit:3.25;stroke-dasharray:none;stroke-opacity:1"
         id="path536"
         inkscape:connector-curvature="0" /><path
         d="m 2863.33,2410.55 h -14.14"
         style="fill:none;stroke:#000000;stroke-width:7.08660984;stroke-linecap:butt;stroke-linejoin:miter;stroke-miterlimit:3.25;stroke-dasharray:none;stroke-opacity:1"
         id="path538"
         inkscape:connector-curvature="0" /><path
         d="m 2863.33,2440.31 h -14.14"
         style="fill:none;stroke:#000000;stroke-width:7.08660984;stroke-linecap:butt;stroke-linejoin:miter;stroke-miterlimit:3.25;stroke-dasharray:none;stroke-opacity:1"
         id="path540"
         inkscape:connector-curvature="0" /><path
         d="m 2863.33,2466.56 h -14.14"
         style="fill:none;stroke:#000000;stroke-width:7.08660984;stroke-linecap:butt;stroke-linejoin:miter;stroke-miterlimit:3.25;stroke-dasharray:none;stroke-opacity:1"
         id="path542"
         inkscape:connector-curvature="0" /><path
         d="m 2863.33,2644.74 h -14.14"
         style="fill:none;stroke:#000000;stroke-width:7.08660984;stroke-linecap:butt;stroke-linejoin:miter;stroke-miterlimit:3.25;stroke-dasharray:none;stroke-opacity:1"
         id="path544"
         inkscape:connector-curvature="0" /><path
         d="m 2863.33,2735.11 h -14.14"
         style="fill:none;stroke:#000000;stroke-width:7.08660984;stroke-linecap:butt;stroke-linejoin:miter;stroke-miterlimit:3.25;stroke-dasharray:none;stroke-opacity:1"
         id="path546"
         inkscape:connector-curvature="0" /><path
         d="m 2863.33,2799.23 h -14.14"
         style="fill:none;stroke:#000000;stroke-width:7.08660984;stroke-linecap:butt;stroke-linejoin:miter;stroke-miterlimit:3.25;stroke-dasharray:none;stroke-opacity:1"
         id="path548"
         inkscape:connector-curvature="0" /><path
         d="m 2863.33,2848.98 h -14.14"
         style="fill:none;stroke:#000000;stroke-width:7.08660984;stroke-linecap:butt;stroke-linejoin:miter;stroke-miterlimit:3.25;stroke-dasharray:none;stroke-opacity:1"
         id="path550"
         inkscape:connector-curvature="0" /><path
         d="m 2863.33,2889.62 h -14.14"
         style="fill:none;stroke:#000000;stroke-width:7.08660984;stroke-linecap:butt;stroke-linejoin:miter;stroke-miterlimit:3.25;stroke-dasharray:none;stroke-opacity:1"
         id="path552"
         inkscape:connector-curvature="0" /><path
         d="m 2863.33,2923.97 h -14.14"
         style="fill:none;stroke:#000000;stroke-width:7.08660984;stroke-linecap:butt;stroke-linejoin:miter;stroke-miterlimit:3.25;stroke-dasharray:none;stroke-opacity:1"
         id="path554"
         inkscape:connector-curvature="0" /><path
         d="m 2863.33,2953.73 h -14.14"
         style="fill:none;stroke:#000000;stroke-width:7.08660984;stroke-linecap:butt;stroke-linejoin:miter;stroke-miterlimit:3.25;stroke-dasharray:none;stroke-opacity:1"
         id="path556"
         inkscape:connector-curvature="0" /><path
         d="m 2863.33,2979.98 h -14.14"
         style="fill:none;stroke:#000000;stroke-width:7.08660984;stroke-linecap:butt;stroke-linejoin:miter;stroke-miterlimit:3.25;stroke-dasharray:none;stroke-opacity:1"
         id="path558"
         inkscape:connector-curvature="0" /><path
         d="m 2863.33,1460.51 h -28.29"
         style="fill:none;stroke:#000000;stroke-width:7.08660984;stroke-linecap:butt;stroke-linejoin:miter;stroke-miterlimit:3.25;stroke-dasharray:none;stroke-opacity:1"
         id="path560"
         inkscape:connector-curvature="0" /><path
         d="m 2863.33,1615 h -14.14"
         style="fill:none;stroke:#000000;stroke-width:7.08660984;stroke-linecap:butt;stroke-linejoin:miter;stroke-miterlimit:3.25;stroke-dasharray:none;stroke-opacity:1"
         id="path562"
         inkscape:connector-curvature="0" /><path
         d="m 2863.33,1705.37 h -14.14"
         style="fill:none;stroke:#000000;stroke-width:7.08660984;stroke-linecap:butt;stroke-linejoin:miter;stroke-miterlimit:3.25;stroke-dasharray:none;stroke-opacity:1"
         id="path564"
         inkscape:connector-curvature="0" /><path
         d="m 2863.33,1769.48 h -14.14"
         style="fill:none;stroke:#000000;stroke-width:7.08660984;stroke-linecap:butt;stroke-linejoin:miter;stroke-miterlimit:3.25;stroke-dasharray:none;stroke-opacity:1"
         id="path566"
         inkscape:connector-curvature="0" /><path
         d="m 2863.33,1819.23 h -14.14"
         style="fill:none;stroke:#000000;stroke-width:7.08660984;stroke-linecap:butt;stroke-linejoin:miter;stroke-miterlimit:3.25;stroke-dasharray:none;stroke-opacity:1"
         id="path568"
         inkscape:connector-curvature="0" /><path
         d="m 2863.33,1859.87 h -14.14"
         style="fill:none;stroke:#000000;stroke-width:7.08660984;stroke-linecap:butt;stroke-linejoin:miter;stroke-miterlimit:3.25;stroke-dasharray:none;stroke-opacity:1"
         id="path570"
         inkscape:connector-curvature="0" /><path
         d="m 2863.33,1894.22 h -14.14"
         style="fill:none;stroke:#000000;stroke-width:7.08660984;stroke-linecap:butt;stroke-linejoin:miter;stroke-miterlimit:3.25;stroke-dasharray:none;stroke-opacity:1"
         id="path572"
         inkscape:connector-curvature="0" /><path
         d="m 2863.33,1923.98 h -14.14"
         style="fill:none;stroke:#000000;stroke-width:7.08660984;stroke-linecap:butt;stroke-linejoin:miter;stroke-miterlimit:3.25;stroke-dasharray:none;stroke-opacity:1"
         id="path574"
         inkscape:connector-curvature="0" /><path
         d="m 2863.33,1950.23 h -14.14"
         style="fill:none;stroke:#000000;stroke-width:7.08660984;stroke-linecap:butt;stroke-linejoin:miter;stroke-miterlimit:3.25;stroke-dasharray:none;stroke-opacity:1"
         id="path576"
         inkscape:connector-curvature="0" /><path
         d="m 2863.33,951.602 h -28.29"
         style="fill:none;stroke:#000000;stroke-width:7.08660984;stroke-linecap:butt;stroke-linejoin:miter;stroke-miterlimit:3.25;stroke-dasharray:none;stroke-opacity:1"
         id="path578"
         inkscape:connector-curvature="0" /><path
         d="m 2863.33,1106.08 h -14.14"
         style="fill:none;stroke:#000000;stroke-width:7.08660984;stroke-linecap:butt;stroke-linejoin:miter;stroke-miterlimit:3.25;stroke-dasharray:none;stroke-opacity:1"
         id="path580"
         inkscape:connector-curvature="0" /><path
         d="m 2863.33,1196.45 h -14.14"
         style="fill:none;stroke:#000000;stroke-width:7.08660984;stroke-linecap:butt;stroke-linejoin:miter;stroke-miterlimit:3.25;stroke-dasharray:none;stroke-opacity:1"
         id="path582"
         inkscape:connector-curvature="0" /><path
         d="m 2863.33,1260.56 h -14.14"
         style="fill:none;stroke:#000000;stroke-width:7.08660984;stroke-linecap:butt;stroke-linejoin:miter;stroke-miterlimit:3.25;stroke-dasharray:none;stroke-opacity:1"
         id="path584"
         inkscape:connector-curvature="0" /><path
         d="m 2863.33,1310.32 h -14.14"
         style="fill:none;stroke:#000000;stroke-width:7.08660984;stroke-linecap:butt;stroke-linejoin:miter;stroke-miterlimit:3.25;stroke-dasharray:none;stroke-opacity:1"
         id="path586"
         inkscape:connector-curvature="0" /><path
         d="m 2863.33,1350.95 h -14.14"
         style="fill:none;stroke:#000000;stroke-width:7.08660984;stroke-linecap:butt;stroke-linejoin:miter;stroke-miterlimit:3.25;stroke-dasharray:none;stroke-opacity:1"
         id="path588"
         inkscape:connector-curvature="0" /><path
         d="m 2863.33,1385.31 h -14.14"
         style="fill:none;stroke:#000000;stroke-width:7.08660984;stroke-linecap:butt;stroke-linejoin:miter;stroke-miterlimit:3.25;stroke-dasharray:none;stroke-opacity:1"
         id="path590"
         inkscape:connector-curvature="0" /><path
         d="m 2863.33,1415.06 h -14.14"
         style="fill:none;stroke:#000000;stroke-width:7.08660984;stroke-linecap:butt;stroke-linejoin:miter;stroke-miterlimit:3.25;stroke-dasharray:none;stroke-opacity:1"
         id="path592"
         inkscape:connector-curvature="0" /><path
         d="m 2863.33,1441.31 h -14.14"
         style="fill:none;stroke:#000000;stroke-width:7.08660984;stroke-linecap:butt;stroke-linejoin:miter;stroke-miterlimit:3.25;stroke-dasharray:none;stroke-opacity:1"
         id="path594"
         inkscape:connector-curvature="0" /><path
         d="m 2863.33,595.922 h -14.14"
         style="fill:none;stroke:#000000;stroke-width:7.08660984;stroke-linecap:butt;stroke-linejoin:miter;stroke-miterlimit:3.25;stroke-dasharray:none;stroke-opacity:1"
         id="path596"
         inkscape:connector-curvature="0" /><path
         d="m 2863.33,686.301 h -14.14"
         style="fill:none;stroke:#000000;stroke-width:7.08660984;stroke-linecap:butt;stroke-linejoin:miter;stroke-miterlimit:3.25;stroke-dasharray:none;stroke-opacity:1"
         id="path598"
         inkscape:connector-curvature="0" /><path
         d="m 2863.33,750.41 h -14.14"
         style="fill:none;stroke:#000000;stroke-width:7.08660984;stroke-linecap:butt;stroke-linejoin:miter;stroke-miterlimit:3.25;stroke-dasharray:none;stroke-opacity:1"
         id="path600"
         inkscape:connector-curvature="0" /><path
         d="m 2863.33,800.16 h -14.14"
         style="fill:none;stroke:#000000;stroke-width:7.08660984;stroke-linecap:butt;stroke-linejoin:miter;stroke-miterlimit:3.25;stroke-dasharray:none;stroke-opacity:1"
         id="path602"
         inkscape:connector-curvature="0" /><path
         d="m 2863.33,840.801 h -14.14"
         style="fill:none;stroke:#000000;stroke-width:7.08660984;stroke-linecap:butt;stroke-linejoin:miter;stroke-miterlimit:3.25;stroke-dasharray:none;stroke-opacity:1"
         id="path604"
         inkscape:connector-curvature="0" /><path
         d="m 2863.33,875.148 h -14.14"
         style="fill:none;stroke:#000000;stroke-width:7.08660984;stroke-linecap:butt;stroke-linejoin:miter;stroke-miterlimit:3.25;stroke-dasharray:none;stroke-opacity:1"
         id="path606"
         inkscape:connector-curvature="0" /><path
         d="m 2863.33,904.91 h -14.14"
         style="fill:none;stroke:#000000;stroke-width:7.08660984;stroke-linecap:butt;stroke-linejoin:miter;stroke-miterlimit:3.25;stroke-dasharray:none;stroke-opacity:1"
         id="path608"
         inkscape:connector-curvature="0" /><path
         d="m 2863.33,931.16 h -14.14"
         style="fill:none;stroke:#000000;stroke-width:7.08660984;stroke-linecap:butt;stroke-linejoin:miter;stroke-miterlimit:3.25;stroke-dasharray:none;stroke-opacity:1"
         id="path610"
         inkscape:connector-curvature="0" /><g
         id="g612"
         transform="scale(10)"><text
           transform="matrix(1,0,0,-1,58.7227,192.051)"
           style="font-variant:normal;font-weight:normal;font-size:12.75590038px;font-family:Arial;-inkscape-font-specification:ArialMT;writing-mode:lr-tb;fill:#000000;fill-opacity:1;fill-rule:nonzero;stroke:none"
           id="text616"><tspan
             x="0 7.0942397"
             y="0"
             sodipodi:role="line"
             id="tspan614">10</tspan></text>
<text
           transform="matrix(1,0,0,-1,72.911,197.57366)"
           style="font-variant:normal;font-weight:normal;font-size:7.43669987px;font-family:Arial;-inkscape-font-specification:ArialMT;writing-mode:lr-tb;fill:#000000;fill-opacity:1;fill-rule:nonzero;stroke:none"
           id="text620"><tspan
             x="0"
             y="0"
             id="tspan618">4</tspan></text>
<text
           transform="matrix(1,0,0,-1,58.7227,140.92796)"
           style="font-variant:normal;font-weight:normal;font-size:12.75590038px;font-family:Arial;-inkscape-font-specification:ArialMT;writing-mode:lr-tb;fill:#000000;fill-opacity:1;fill-rule:nonzero;stroke:none"
           id="text624"><tspan
             x="0 7.0942397"
             y="0"
             sodipodi:role="line"
             id="tspan622">10</tspan></text>
<text
           transform="matrix(1,0,0,-1,72.911,146.45179)"
           style="font-variant:normal;font-weight:normal;font-size:7.43669987px;font-family:Arial;-inkscape-font-specification:ArialMT;writing-mode:lr-tb;fill:#000000;fill-opacity:1;fill-rule:nonzero;stroke:none"
           id="text628"><tspan
             x="0"
             y="0"
             id="tspan626">3</tspan></text>
<text
           transform="matrix(1,0,0,-1,58.7227,91.03269)"
           style="font-variant:normal;font-weight:normal;font-size:12.75590038px;font-family:Arial;-inkscape-font-specification:ArialMT;writing-mode:lr-tb;fill:#000000;fill-opacity:1;fill-rule:nonzero;stroke:none"
           id="text632"><tspan
             x="0 7.0942397"
             y="0"
             sodipodi:role="line"
             id="tspan630">10</tspan></text>
<text
           transform="matrix(1,0,0,-1,72.911,96.55574)"
           style="font-variant:normal;font-weight:normal;font-size:7.43669987px;font-family:Arial;-inkscape-font-specification:ArialMT;writing-mode:lr-tb;fill:#000000;fill-opacity:1;fill-rule:nonzero;stroke:none"
           id="text636"><tspan
             x="0"
             y="0"
             id="tspan634">2</tspan></text>
<text
           transform="matrix(1,0,0,-1,58.7227,40.88274)"
           style="font-variant:normal;font-weight:normal;font-size:12.75590038px;font-family:Arial;-inkscape-font-specification:ArialMT;writing-mode:lr-tb;fill:#000000;fill-opacity:1;fill-rule:nonzero;stroke:none"
           id="text640"><tspan
             x="0 7.0942397"
             y="0"
             sodipodi:role="line"
             id="tspan638">10</tspan></text>
<text
           transform="matrix(1,0,0,-1,72.911,46.40696)"
           style="font-variant:normal;font-weight:normal;font-size:7.43669987px;font-family:Arial;-inkscape-font-specification:ArialMT;writing-mode:lr-tb;fill:#000000;fill-opacity:1;fill-rule:nonzero;stroke:none"
           id="text644"><tspan
             x="0"
             y="0"
             id="tspan642">1</tspan></text>
</g><path
         d="m 2534.99,438.988 v 28.934"
         style="fill:none;stroke:#000000;stroke-width:7.08660984;stroke-linecap:butt;stroke-linejoin:miter;stroke-miterlimit:3.25;stroke-dasharray:none;stroke-opacity:1"
         id="path646"
         inkscape:connector-curvature="0" /><path
         d="m 2211.96,438.988 v 28.934"
         style="fill:none;stroke:#000000;stroke-width:7.08660984;stroke-linecap:butt;stroke-linejoin:miter;stroke-miterlimit:3.25;stroke-dasharray:none;stroke-opacity:1"
         id="path648"
         inkscape:connector-curvature="0" /><path
         d="m 1556.08,438.988 v 28.934"
         style="fill:none;stroke:#000000;stroke-width:7.08660984;stroke-linecap:butt;stroke-linejoin:miter;stroke-miterlimit:3.25;stroke-dasharray:none;stroke-opacity:1"
         id="path650"
         inkscape:connector-curvature="0" /><path
         d="m 1230.47,438.988 v 28.934"
         style="fill:none;stroke:#000000;stroke-width:7.08660984;stroke-linecap:butt;stroke-linejoin:miter;stroke-miterlimit:3.25;stroke-dasharray:none;stroke-opacity:1"
         id="path652"
         inkscape:connector-curvature="0" /><g
         id="g654"
         transform="scale(10)"><text
           transform="matrix(1,0,0,-1,273.117,29.5398)"
           style="font-variant:normal;font-weight:normal;font-size:12.75590038px;font-family:Arial;-inkscape-font-specification:ArialMT;writing-mode:lr-tb;fill:#000000;fill-opacity:1;fill-rule:nonzero;stroke:none"
           id="text658"><tspan
             x="0 7.0937452"
             y="0"
             sodipodi:role="line"
             id="tspan656">10</tspan></text>
<text
           transform="matrix(1,0,0,-1,287.3049,35.06285)"
           style="font-variant:normal;font-weight:normal;font-size:7.43669987px;font-family:Arial;-inkscape-font-specification:ArialMT;writing-mode:lr-tb;fill:#000000;fill-opacity:1;fill-rule:nonzero;stroke:none"
           id="text662"><tspan
             x="0 2.4764211"
             y="0"
             sodipodi:role="line"
             id="tspan660">-2</tspan></text>
<text
           transform="matrix(1,0,0,-1,80.8979,29.5398)"
           style="font-variant:normal;font-weight:normal;font-size:12.75590038px;font-family:Arial;-inkscape-font-specification:ArialMT;writing-mode:lr-tb;fill:#000000;fill-opacity:1;fill-rule:nonzero;stroke:none"
           id="text666"><tspan
             x="0 7.0942397"
             y="0"
             sodipodi:role="line"
             id="tspan664">10</tspan></text>
<text
           transform="matrix(1,0,0,-1,95.0862,35.06285)"
           style="font-variant:normal;font-weight:normal;font-size:7.43669987px;font-family:Arial;-inkscape-font-specification:ArialMT;writing-mode:lr-tb;fill:#000000;fill-opacity:1;fill-rule:nonzero;stroke:none"
           id="text670"><tspan
             x="0 2.4764211"
             y="0"
             sodipodi:role="line"
             id="tspan668">-8</tspan></text>
<text
           transform="matrix(1,0,0,-1,179.0374,29.5398)"
           style="font-variant:normal;font-weight:normal;font-size:12.75590038px;font-family:Arial;-inkscape-font-specification:ArialMT;writing-mode:lr-tb;fill:#000000;fill-opacity:1;fill-rule:nonzero;stroke:none"
           id="text674"><tspan
             x="0 7.0942335"
             y="0"
             sodipodi:role="line"
             id="tspan672">10</tspan></text>
<text
           transform="matrix(1,0,0,-1,193.2253,35.06285)"
           style="font-variant:normal;font-weight:normal;font-size:7.43669987px;font-family:Arial;-inkscape-font-specification:ArialMT;writing-mode:lr-tb;fill:#000000;fill-opacity:1;fill-rule:nonzero;stroke:none"
           id="text678"><tspan
             x="0 2.4764211"
             y="0"
             sodipodi:role="line"
             id="tspan676">-5</tspan></text>
<text
           transform="matrix(1,0,0,-1,157.2683,9.43275)"
           style="font-variant:normal;font-weight:normal;font-size:14.54170036px;font-family:'Times New Roman';-inkscape-font-specification:Times-Roman;writing-mode:lr-tb;fill:#000000;fill-opacity:1;fill-rule:nonzero;stroke:none"
           id="text682"><tspan
             x="0"
             y="0"
             id="tspan680">P</tspan></text>
<text
           transform="matrix(1,0,0,-1,165.35541,6.22689)"
           style="font-variant:normal;font-weight:normal;font-size:8.47782993px;font-family:'Times New Roman';-inkscape-font-specification:Times-Roman;writing-mode:lr-tb;fill:#000000;fill-opacity:1;fill-rule:nonzero;stroke:none"
           id="text686"><tspan
             x="0 4.238915 8.0030718"
             y="0"
             sodipodi:role="line"
             id="tspan684">gas</tspan></text>
<text
           transform="matrix(1,0,0,-1,180.29254,9.43275)"
           style="font-variant:normal;font-weight:normal;font-size:14.54170036px;font-family:'Times New Roman';-inkscape-font-specification:Times-Roman;writing-mode:lr-tb;fill:#000000;fill-opacity:1;fill-rule:nonzero;stroke:none"
           id="text690"><tspan
             x="0 4.8423862 16.152899 23.42375 29.877848 34.720234"
             y="0"
             sodipodi:role="line"
             id="tspan688">(mbar)</tspan></text>
<text
           transform="matrix(0,1,1,0,48.4824,162.341)"
           style="font-variant:normal;font-weight:normal;font-size:18.70870018px;font-family:'Times New Roman';-inkscape-font-specification:Times-Roman;writing-mode:lr-tb;fill:#000000;fill-opacity:1;fill-rule:nonzero;stroke:none"
           id="text694"><tspan
             x="0"
             y="0"
             id="tspan692">n</tspan></text>
<text
           transform="matrix(0,1,1,0,52.60779,171.69491)"
           style="font-variant:normal;font-weight:normal;font-size:10.90709972px;font-family:'Times New Roman';-inkscape-font-specification:Times-Roman;writing-mode:lr-tb;fill:#000000;fill-opacity:1;fill-rule:nonzero;stroke:none"
           id="text698"><tspan
             x="0"
             y="0"
             id="tspan696"></tspan></text>
</g><path
         d="m 2444.72,988.512 c 0,-2.871 -0.35,-5.602 -1.08,-8.242 -0.73,-2.641 -1.75,-5.098 -3.06,-7.379 -1.34,-2.289 -2.92,-4.34 -4.76,-6.172 -1.88,-1.86 -3.95,-3.438 -6.24,-4.75 -2.29,-1.328 -4.74,-2.34 -7.36,-3.09 -2.64,-0.719 -5.39,-1.07 -8.26,-1.07 -4.31,0 -8.32,0.781 -12.04,2.382 -3.72,1.598 -6.96,3.77 -9.73,6.528 -2.78,2.75 -4.95,5.992 -6.53,9.722 -1.58,3.731 -2.34,7.758 -2.34,12.071 0,4.258 0.79,8.258 2.37,11.968 1.58,3.75 3.76,7.02 6.53,9.77 2.74,2.77 6,4.96 9.73,6.56 3.72,1.58 7.73,2.37 12.01,2.37 4.26,0 8.26,-0.79 12.01,-2.37 3.75,-1.6 7.01,-3.79 9.79,-6.56 2.75,-2.75 4.95,-6.02 6.56,-9.77 1.61,-3.71 2.4,-7.71 2.4,-11.968 v 0"
         style="fill:#ff0000;fill-opacity:1;fill-rule:evenodd;stroke:none"
         id="path700"
         inkscape:connector-curvature="0" /><path
         d="m 2387.4,1325.09 h 53.2422 v 52.9219 H 2387.4 Z"
         style="fill:#00ff00;fill-opacity:1;fill-rule:evenodd;stroke:none"
         id="path702"
         inkscape:connector-curvature="0" /><path
         d="m 2453.04,1171.73 -39.02,-34.54 -39.02,34.54 39.02,34.43 39.02,-34.43"
         style="fill:#0000ff;fill-opacity:1;fill-rule:evenodd;stroke:none"
         id="path704"
         inkscape:connector-curvature="0" /><g
         id="g706"
         transform="scale(10)"><text
           transform="matrix(1,0,0,-1,251.313,131.303)"
           style="font-variant:normal;font-weight:normal;font-size:17.00790024px;font-family:'Times New Roman';-inkscape-font-specification:Times-Roman;writing-mode:lr-tb;fill:#000000;fill-opacity:1;fill-rule:nonzero;stroke:none"
           id="text714"><tspan
             x="0"
             y="0"
             id="tspan708">x</tspan><tspan
             x="0"
             y="18.75"
             id="tspan710">y</tspan><tspan
             x="0.476953"
             y="36.5"
             id="tspan712">z</tspan></text>
</g><path
         d="M 2872.47,796.41 814.84,789.5"
         style="fill:none;stroke:#000000;stroke-width:2.83465004;stroke-linecap:square;stroke-linejoin:miter;stroke-miterlimit:3.25;stroke-dasharray:56.6929, 56.6929;stroke-dashoffset:0;stroke-opacity:1"
         id="path716"
         inkscape:connector-curvature="0" /><g
         id="g718"
         transform="scale(10)"><text
           transform="matrix(1,0,0,-1,58.7227,242.951)"
           style="font-variant:normal;font-weight:normal;font-size:12.75590038px;font-family:Arial;-inkscape-font-specification:ArialMT;writing-mode:lr-tb;fill:#000000;fill-opacity:1;fill-rule:nonzero;stroke:none"
           id="text722"><tspan
             x="0 7.0942397"
             y="0"
             sodipodi:role="line"
             id="tspan720">10</tspan></text>
<text
           transform="matrix(1,0,0,-1,72.911,248.47444)"
           style="font-variant:normal;font-weight:normal;font-size:7.43669987px;font-family:Arial;-inkscape-font-specification:ArialMT;writing-mode:lr-tb;fill:#000000;fill-opacity:1;fill-rule:nonzero;stroke:none"
           id="text726"><tspan
             x="0"
             y="0"
             id="tspan724">5</tspan></text>
<text
           transform="matrix(1,0,0,-1,58.7227,293.95214)"
           style="font-variant:normal;font-weight:normal;font-size:12.75590038px;font-family:Arial;-inkscape-font-specification:ArialMT;writing-mode:lr-tb;fill:#000000;fill-opacity:1;fill-rule:nonzero;stroke:none"
           id="text730"><tspan
             x="0 7.0942397"
             y="0"
             sodipodi:role="line"
             id="tspan728">10</tspan></text>
<text
           transform="matrix(1,0,0,-1,72.911,299.47558)"
           style="font-variant:normal;font-weight:normal;font-size:7.43669987px;font-family:Arial;-inkscape-font-specification:ArialMT;writing-mode:lr-tb;fill:#000000;fill-opacity:1;fill-rule:nonzero;stroke:none"
           id="text734"><tspan
             x="0"
             y="0"
             id="tspan732">6</tspan></text>
</g><path
         d="m 898.113,3005.65 v -28.92"
         style="fill:none;stroke:#000000;stroke-width:7.08660984;stroke-linecap:butt;stroke-linejoin:miter;stroke-miterlimit:3.25;stroke-dasharray:none;stroke-opacity:1"
         id="path736"
         inkscape:connector-curvature="0" /><path
         d="m 1878.31,3005.65 v -28.92"
         style="fill:none;stroke:#000000;stroke-width:7.08660984;stroke-linecap:butt;stroke-linejoin:miter;stroke-miterlimit:3.25;stroke-dasharray:none;stroke-opacity:1"
         id="path738"
         inkscape:connector-curvature="0" /><path
         d="m 2531.65,3005.65 v -28.92"
         style="fill:none;stroke:#000000;stroke-width:7.08660984;stroke-linecap:butt;stroke-linejoin:miter;stroke-miterlimit:3.25;stroke-dasharray:none;stroke-opacity:1"
         id="path740"
         inkscape:connector-curvature="0" /><path
         d="m 2208.62,3005.65 v -28.92"
         style="fill:none;stroke:#000000;stroke-width:7.08660984;stroke-linecap:butt;stroke-linejoin:miter;stroke-miterlimit:3.25;stroke-dasharray:none;stroke-opacity:1"
         id="path742"
         inkscape:connector-curvature="0" /><path
         d="m 1552.74,3005.65 v -28.92"
         style="fill:none;stroke:#000000;stroke-width:7.08660984;stroke-linecap:butt;stroke-linejoin:miter;stroke-miterlimit:3.25;stroke-dasharray:none;stroke-opacity:1"
         id="path744"
         inkscape:connector-curvature="0" /><path
         d="m 1227.13,3005.65 v -28.92"
         style="fill:none;stroke:#000000;stroke-width:7.08660984;stroke-linecap:butt;stroke-linejoin:miter;stroke-miterlimit:3.25;stroke-dasharray:none;stroke-opacity:1"
         id="path746"
         inkscape:connector-curvature="0" /></g></g></svg>